<svg width="292" height="187" viewBox="0 0 292 187" fill="none" xmlns="http://www.w3.org/2000/svg">
<path d="M283.778 0C288.1 0 291.605 3.50413 291.605 7.82617V326.287H290.476V7.82617C290.476 4.12758 287.477 1.12891 283.778 1.12891H30.5899C27.5085 1.12914 25.0098 3.62751 25.0098 6.70898V22.7412C25.0098 23.4086 24.4691 23.9501 23.8018 23.9502C18.7404 23.9504 14.6368 28.0538 14.6368 33.1152V59.8174C14.6368 64.8788 18.7404 68.9822 23.8018 68.9824C24.4691 68.9826 25.0098 69.524 25.0098 70.1914V98.9854C25.0098 99.6527 24.4691 100.194 23.8018 100.194C18.7404 100.195 14.6368 104.298 14.6368 109.359V136.58C14.6368 141.642 18.7404 145.745 23.8018 145.745C24.4691 145.745 25.0098 146.287 25.0098 146.954V175.229C25.0098 175.897 24.4691 176.438 23.8018 176.438C18.7406 176.439 14.637 180.541 14.6368 185.603V212.824C14.6368 217.886 18.7404 221.989 23.8018 221.989C24.469 221.989 25.0096 222.53 25.0098 223.197V251.474C25.0098 252.141 24.4691 252.682 23.8018 252.682C18.7405 252.682 14.6369 256.785 14.6368 261.847V289.068C14.6368 294.13 18.7404 298.233 23.8018 298.233C24.4691 298.234 25.0097 298.774 25.0098 299.441V328.236C25.0097 328.904 24.4691 329.444 23.8018 329.444C18.7405 329.445 14.6368 333.548 14.6368 338.609V365.312C14.6369 370.374 18.7405 374.477 23.8018 374.478C24.4691 374.478 25.0098 375.018 25.0098 375.686V390.961C25.01 393.888 27.3835 396.26 30.3106 396.261H128.18V397.39H30.3106C26.7601 397.389 23.8811 394.511 23.8809 390.961V375.686C23.8809 375.642 23.8457 375.606 23.8018 375.605C18.1171 375.605 13.508 370.997 13.5079 365.312V338.609C13.5079 332.925 18.117 328.316 23.8018 328.315C23.8456 328.315 23.8808 328.28 23.8809 328.236V299.441C23.8808 299.398 23.8456 299.362 23.8018 299.362C18.117 299.362 13.5079 294.753 13.5079 289.068V261.847C13.508 256.162 18.117 251.553 23.8018 251.553C23.8456 251.553 23.8808 251.517 23.8809 251.474V223.197C23.8807 223.154 23.8455 223.118 23.8018 223.118C18.117 223.118 13.5079 218.509 13.5079 212.824V185.603C13.5081 179.918 18.1171 175.31 23.8018 175.31C23.8457 175.309 23.8809 175.273 23.8809 175.229V146.954C23.8809 146.91 23.8457 146.874 23.8018 146.874C18.117 146.874 13.5079 142.265 13.5079 136.58V109.359C13.5079 103.674 18.117 99.0657 23.8018 99.0654C23.8457 99.0653 23.8809 99.0293 23.8809 98.9854V70.1914C23.8809 70.1475 23.8457 70.1115 23.8018 70.1113C18.117 70.1111 13.5079 65.5023 13.5079 59.8174V33.1152C13.5079 27.4303 18.117 22.8215 23.8018 22.8213C23.8457 22.8211 23.8809 22.7851 23.8809 22.7412V6.70898C23.8809 3.00405 26.885 0.000230921 30.5899 0H283.778ZM291.605 389.564C291.604 393.886 288.1 397.39 283.778 397.39H177.972V396.261H283.778C287.477 396.261 290.475 393.263 290.476 389.564V375.041H291.605V389.564Z" fill="#B2987E"/>
<path d="M133.176 88.0957H89.7687C88.5221 88.0959 87.511 89.1068 87.5109 90.3535V140.816H133.177V141.945H87.5109V195.227H133.177V196.355H87.5109V249.639H133.177V250.768H87.5109V304.049H133.177V305.178H87.5109V355.636C87.5109 356.883 88.522 357.893 89.7687 357.894H133.176V359.022H89.7687L89.5939 359.019C87.8049 358.927 86.382 357.447 86.382 355.636V90.3535C86.3821 88.542 87.805 87.0628 89.5939 86.9717L89.7687 86.9668H133.176V88.0957ZM227.729 86.9668C229.599 86.9669 231.115 88.4833 231.115 90.3535V355.636C231.115 357.506 229.599 359.022 227.729 359.022H185.41V357.894H227.729C228.975 357.893 229.987 356.883 229.987 355.636V305.178H185.412V304.049H229.987V250.768H185.412V249.639H229.987V196.355H185.412V195.227H229.987V141.945H185.412V140.816H229.987V90.3535C229.986 89.1067 228.975 88.0958 227.729 88.0957H185.41V86.9668H227.729Z" fill="#B2987E"/>
<path d="M90.8965 41.2488H35.5823C34.9588 41.2488 34.4534 40.7434 34.4534 40.1199V37.2978C34.4534 36.6743 34.9588 36.1689 35.5823 36.1689H85.8166C87.0635 36.1689 88.0744 35.1581 88.0744 33.9112V12.4628C88.0744 11.2159 89.0852 10.2051 90.3321 10.2051H238.777C240.024 10.2051 241.035 11.2159 241.035 12.4628V33.9112C241.035 35.1581 242.046 36.1689 243.293 36.1689H281.674C282.298 36.1689 282.803 36.6743 282.803 37.2978V40.1199C282.803 40.7434 282.298 41.2488 281.674 41.2488H238.213C236.966 41.2488 235.955 40.238 235.955 38.9911V17.5427C235.955 16.2958 234.944 15.285 233.698 15.285H95.412C94.1651 15.285 93.1542 16.2958 93.1542 17.5427V38.9911C93.1542 40.238 92.1434 41.2488 90.8965 41.2488Z" fill="#B2987E" fill-opacity="0.3" stroke="#B2987E" stroke-width="1.12886"/>
<rect y="110.045" width="28" height="28" rx="14" fill="#B2987E"/>
<path d="M14.3594 116.045C14.3594 116.541 14.4548 116.902 14.6895 117.145C14.9236 117.387 15.3578 117.575 16.1836 117.575C16.846 117.575 17.3411 117.397 17.8809 117.202C18.4201 117.007 19.0041 116.795 19.7822 116.795C20.982 116.795 21.6962 117.751 21.5957 118.734C21.9935 118.884 22.2843 119.106 22.4805 119.379C22.7152 119.706 22.7969 120.076 22.7969 120.414C22.7968 120.881 22.6968 121.221 22.6084 121.534C22.5212 121.843 22.4424 122.131 22.4424 122.541C22.4424 123.078 22.5327 123.361 22.6699 123.516C22.7983 123.66 23.0289 123.759 23.5 123.759V124.359C23.016 124.359 22.79 124.445 22.666 124.58C22.5345 124.723 22.4424 124.999 22.4424 125.577C22.4424 125.944 22.5187 126.194 22.6074 126.497C22.6982 126.807 22.7968 127.157 22.7969 127.676C22.7969 128.474 22.2752 129.101 21.6162 129.376C21.6865 129.847 21.5171 130.296 21.2305 130.636C20.8857 131.044 20.3506 131.323 19.7822 131.323C19.0041 131.323 18.4201 131.111 17.8809 130.916C17.3411 130.721 16.846 130.544 16.1836 130.544C15.4155 130.544 14.9737 130.728 14.7227 130.975C14.4728 131.22 14.3594 131.579 14.3594 132.045H13.7588C13.7588 131.569 13.6585 131.212 13.4248 130.97C13.1923 130.729 12.7708 130.544 11.9941 130.544C11.2952 130.544 10.7702 130.722 10.2031 130.917C9.63634 131.112 9.02702 131.323 8.21777 131.323C7.68247 131.323 7.16289 131.108 6.81348 130.716C6.50888 130.374 6.34735 129.913 6.4043 129.382C5.46585 129.013 5.20312 128.211 5.20312 127.676C5.20317 127.215 5.30308 126.863 5.3916 126.546C5.48004 126.229 5.55757 125.947 5.55762 125.577C5.55762 125.024 5.46709 124.743 5.33203 124.593C5.20542 124.452 4.97608 124.359 4.5 124.359V123.759L4.66309 123.754C5.02008 123.732 5.21331 123.635 5.32812 123.503C5.46879 123.341 5.55762 123.054 5.55762 122.541C5.55757 122.165 5.47902 121.879 5.39062 121.558C5.3021 121.236 5.20317 120.879 5.20312 120.414C5.20313 119.596 5.71975 118.958 6.39453 118.72C6.29494 117.767 7.071 116.795 8.21777 116.795C9.02522 116.795 9.66743 117.005 10.252 117.2C10.8422 117.397 11.3645 117.575 11.9941 117.575C12.7627 117.575 13.1844 117.39 13.4189 117.146C13.6255 116.93 13.7307 116.624 13.7539 116.223L13.7588 116.045H14.3594ZM14.0547 117.296C13.9966 117.389 13.9308 117.479 13.8516 117.562C13.4593 117.97 12.8478 118.175 11.9941 118.175C11.252 118.175 10.6393 117.962 10.0615 117.77C9.47817 117.575 8.91835 117.395 8.21777 117.395C7.33582 117.395 6.82667 118.212 7.02832 118.848L7.13281 119.178L6.79199 119.234C6.2495 119.325 5.80273 119.789 5.80273 120.414C5.80278 120.79 5.88133 121.076 5.96973 121.397C6.05826 121.719 6.15718 122.076 6.15723 122.541C6.15723 123.092 6.06828 123.565 5.78125 123.896C5.73116 123.953 5.67549 124.003 5.61719 124.049C5.6737 124.091 5.72836 124.137 5.77734 124.191C6.07008 124.517 6.15723 124.996 6.15723 125.577C6.15718 126.037 6.05728 126.39 5.96875 126.707C5.88031 127.024 5.80278 127.306 5.80273 127.676C5.80273 128.059 5.9952 128.665 6.82129 128.891L7.10156 128.967L7.03418 129.25C6.92352 129.711 7.04113 130.071 7.26074 130.317C7.48664 130.571 7.83849 130.724 8.21777 130.724C8.91653 130.724 9.44084 130.545 10.0078 130.35C10.5747 130.155 11.1847 129.943 11.9941 129.943C12.8545 129.943 13.4657 130.148 13.8564 130.553C13.9413 130.641 14.01 130.737 14.0703 130.837C14.1358 130.735 14.2117 130.636 14.3027 130.547C14.7081 130.149 15.3294 129.943 16.1836 129.943C16.9618 129.943 17.5457 130.157 18.085 130.352C18.6247 130.547 19.1199 130.724 19.7822 130.724C20.1577 130.724 20.5308 130.535 20.7725 130.249C21.0114 129.966 21.1002 129.616 20.9766 129.285L20.8594 128.971L21.1846 128.889C21.7545 128.746 22.1973 128.263 22.1973 127.676C22.1972 127.244 22.1183 126.96 22.0322 126.666C21.944 126.365 21.8428 126.04 21.8428 125.577C21.8428 124.978 21.9284 124.495 22.2246 124.173C22.2677 124.126 22.3154 124.086 22.3643 124.049C22.3135 124.008 22.2651 123.964 22.2207 123.914C21.9303 123.587 21.8428 123.11 21.8428 122.541C21.8428 122.044 21.9415 121.689 22.0312 121.371C22.1198 121.058 22.1972 120.789 22.1973 120.414C22.1973 120.17 22.1382 119.93 21.9932 119.729C21.8502 119.53 21.6042 119.341 21.1807 119.229L20.8916 119.151L20.9678 118.862C21.1563 118.149 20.6811 117.395 19.7822 117.395C19.1199 117.395 18.6247 117.572 18.085 117.767C17.5457 117.962 16.9618 118.175 16.1836 118.175C15.2834 118.175 14.6543 117.972 14.2578 117.562C14.178 117.479 14.1123 117.389 14.0547 117.296ZM19.8408 120.045C19.8408 119.824 19.6622 119.645 19.4414 119.645H8.5C8.27909 119.645 8.09961 119.824 8.09961 120.045V128.045C8.09961 128.266 8.27909 128.445 8.5 128.445H19.4414C19.6622 128.445 19.8408 128.266 19.8408 128.045V120.045ZM20.4414 128.045L20.4355 128.147C20.3876 128.618 20.0137 128.992 19.543 129.04L19.4414 129.045H8.5C7.98232 129.045 7.55621 128.652 7.50488 128.147L7.5 128.045V120.045L7.50488 119.942C7.55622 119.438 7.98232 119.045 8.5 119.045H19.4414L19.543 119.05C20.0137 119.097 20.3876 119.472 20.4355 119.942L20.4414 120.045V128.045Z" fill="#FFFCF8"/>
</svg>