<svg width="278" height="187" viewBox="0 0 278 187" fill="none" xmlns="http://www.w3.org/2000/svg">
<path d="M270.278 0C274.6 0 278.105 3.50413 278.105 7.82617V326.287H276.976V7.82617C276.976 4.12758 273.977 1.12891 270.278 1.12891H17.0899C14.0085 1.12914 11.5098 3.62751 11.5098 6.70898V22.7412C11.5098 23.4086 10.9691 23.9501 10.3018 23.9502C5.24044 23.9504 1.13678 28.0538 1.13678 33.1152V59.8174C1.13678 64.8788 5.24044 68.9822 10.3018 68.9824C10.9691 68.9826 11.5098 69.524 11.5098 70.1914V98.9854C11.5098 99.6527 10.9691 100.194 10.3018 100.194C5.24044 100.195 1.13678 104.298 1.13678 109.359V136.58C1.13678 141.642 5.24044 145.745 10.3018 145.745C10.9691 145.745 11.5098 146.287 11.5098 146.954V175.229C11.5098 175.897 10.9691 176.438 10.3018 176.438C5.24055 176.439 1.13697 180.541 1.13678 185.603V212.824C1.13678 217.886 5.24044 221.989 10.3018 221.989C10.969 221.989 11.5096 222.53 11.5098 223.197V251.474C11.5098 252.141 10.9691 252.682 10.3018 252.682C5.24049 252.682 1.13686 256.785 1.13678 261.847V289.068C1.1368 294.13 5.24045 298.233 10.3018 298.233C10.9691 298.234 11.5097 298.774 11.5098 299.441V328.236C11.5097 328.904 10.9691 329.444 10.3018 329.444C5.24046 329.445 1.13681 333.548 1.13678 338.609V365.312C1.1369 370.374 5.24051 374.477 10.3018 374.478C10.9691 374.478 11.5098 375.018 11.5098 375.686V390.961C11.51 393.888 13.8835 396.26 16.8106 396.261H114.68V397.39H16.8106C13.2601 397.389 10.3811 394.511 10.3809 390.961V375.686C10.3809 375.642 10.3457 375.606 10.3018 375.605C4.61706 375.605 0.00799815 370.997 0.00787354 365.312V338.609C0.00790801 332.925 4.61701 328.316 10.3018 328.315C10.3456 328.315 10.3808 328.28 10.3809 328.236V299.441C10.3808 299.398 10.3456 299.362 10.3018 299.362C4.61699 299.362 0.00789023 294.753 0.00787354 289.068V261.847C0.0079534 256.162 4.61703 251.553 10.3018 251.553C10.3456 251.553 10.3808 251.517 10.3809 251.474V223.197C10.3807 223.154 10.3455 223.118 10.3018 223.118C4.61698 223.118 0.00787354 218.509 0.00787354 212.824V185.603C0.00806112 179.918 4.6171 175.31 10.3018 175.31C10.3457 175.309 10.3809 175.273 10.3809 175.229V146.954C10.3809 146.91 10.3457 146.874 10.3018 146.874C4.61698 146.874 0.00787354 142.265 0.00787354 136.58V109.359C0.00787354 103.674 4.61698 99.0657 10.3018 99.0654C10.3457 99.0653 10.3809 99.0293 10.3809 98.9854V70.1914C10.3809 70.1475 10.3457 70.1115 10.3018 70.1113C4.61698 70.1111 0.00787354 65.5023 0.00787354 59.8174V33.1152C0.00787354 27.4303 4.61698 22.8215 10.3018 22.8213C10.3457 22.8211 10.3809 22.7851 10.3809 22.7412V6.70898C10.3809 3.00405 13.385 0.000230921 17.0899 0H270.278ZM278.105 389.564C278.104 393.886 274.6 397.39 270.278 397.39H164.472V396.261H270.278C273.977 396.261 276.975 393.263 276.976 389.564V375.041H278.105V389.564Z" fill="#B2987E"/>
<path d="M119.676 88.0957H76.2687C75.0221 88.0959 74.011 89.1068 74.0109 90.3535V140.816H119.677V141.945H74.0109V195.227H119.677V196.355H74.0109V249.639H119.677V250.768H74.0109V304.049H119.677V305.178H74.0109V355.636C74.0109 356.883 75.022 357.893 76.2687 357.894H119.676V359.022H76.2687L76.0939 359.019C74.3049 358.927 72.882 357.447 72.882 355.636V90.3535C72.8821 88.542 74.305 87.0628 76.0939 86.9717L76.2687 86.9668H119.676V88.0957ZM214.229 86.9668C216.099 86.9669 217.615 88.4833 217.615 90.3535V355.636C217.615 357.506 216.099 359.022 214.229 359.022H171.91V357.894H214.229C215.475 357.893 216.487 356.883 216.487 355.636V305.178H171.912V304.049H216.487V250.768H171.912V249.639H216.487V196.355H171.912V195.227H216.487V141.945H171.912V140.816H216.487V90.3535C216.486 89.1067 215.475 88.0958 214.229 88.0957H171.91V86.9668H214.229Z" fill="#B2987E"/>
<path d="M77.3965 41.2488H22.0823C21.4588 41.2488 20.9534 40.7434 20.9534 40.1199V37.2978C20.9534 36.6743 21.4588 36.1689 22.0823 36.1689H72.3166C73.5635 36.1689 74.5744 35.1581 74.5744 33.9112V12.4628C74.5744 11.2159 75.5852 10.2051 76.8321 10.2051H225.277C226.524 10.2051 227.535 11.2159 227.535 12.4628V33.9112C227.535 35.1581 228.546 36.1689 229.793 36.1689H268.174C268.798 36.1689 269.303 36.6743 269.303 37.2978V40.1199C269.303 40.7434 268.798 41.2488 268.174 41.2488H224.713C223.466 41.2488 222.455 40.238 222.455 38.9911V17.5427C222.455 16.2958 221.444 15.285 220.198 15.285H81.912C80.6651 15.285 79.6542 16.2958 79.6542 17.5427V38.9911C79.6542 40.238 78.6434 41.2488 77.3965 41.2488Z" fill="#B2987E" fill-opacity="0.3" stroke="#B2987E" stroke-width="1.12886"/>
<rect x="204" y="102.045" width="28" height="28" rx="14" fill="#B2987E"/>
<path d="M218.359 108.045C218.359 108.541 218.455 108.902 218.689 109.145C218.924 109.387 219.358 109.575 220.184 109.575C220.846 109.575 221.341 109.397 221.881 109.202C222.42 109.007 223.004 108.795 223.782 108.795C224.982 108.795 225.696 109.751 225.596 110.734C225.993 110.884 226.284 111.106 226.48 111.379C226.715 111.706 226.797 112.076 226.797 112.414C226.797 112.881 226.697 113.221 226.608 113.534C226.521 113.843 226.442 114.131 226.442 114.541C226.442 115.078 226.533 115.361 226.67 115.516C226.798 115.66 227.029 115.759 227.5 115.759V116.359C227.016 116.359 226.79 116.445 226.666 116.58C226.535 116.723 226.442 116.999 226.442 117.577C226.442 117.944 226.519 118.194 226.607 118.497C226.698 118.807 226.797 119.157 226.797 119.676C226.797 120.474 226.275 121.101 225.616 121.376C225.687 121.847 225.517 122.296 225.23 122.636C224.886 123.044 224.351 123.323 223.782 123.323C223.004 123.323 222.42 123.111 221.881 122.916C221.341 122.721 220.846 122.544 220.184 122.544C219.415 122.544 218.974 122.728 218.723 122.975C218.473 123.22 218.359 123.579 218.359 124.045H217.759C217.759 123.569 217.658 123.212 217.425 122.97C217.192 122.729 216.771 122.544 215.994 122.544C215.295 122.544 214.77 122.722 214.203 122.917C213.636 123.112 213.027 123.323 212.218 123.323C211.682 123.323 211.163 123.108 210.813 122.716C210.509 122.374 210.347 121.913 210.404 121.382C209.466 121.013 209.203 120.211 209.203 119.676C209.203 119.215 209.303 118.863 209.392 118.546C209.48 118.229 209.558 117.947 209.558 117.577C209.558 117.024 209.467 116.743 209.332 116.593C209.205 116.452 208.976 116.359 208.5 116.359V115.759L208.663 115.754C209.02 115.732 209.213 115.635 209.328 115.503C209.469 115.341 209.558 115.054 209.558 114.541C209.558 114.165 209.479 113.879 209.391 113.558C209.302 113.236 209.203 112.879 209.203 112.414C209.203 111.596 209.72 110.958 210.395 110.72C210.295 109.767 211.071 108.795 212.218 108.795C213.025 108.795 213.667 109.005 214.252 109.2C214.842 109.397 215.364 109.575 215.994 109.575C216.763 109.575 217.184 109.39 217.419 109.146C217.626 108.93 217.731 108.624 217.754 108.223L217.759 108.045H218.359ZM218.055 109.296C217.997 109.389 217.931 109.479 217.852 109.562C217.459 109.97 216.848 110.175 215.994 110.175C215.252 110.175 214.639 109.962 214.062 109.77C213.478 109.575 212.918 109.395 212.218 109.395C211.336 109.395 210.827 110.212 211.028 110.848L211.133 111.178L210.792 111.234C210.25 111.325 209.803 111.789 209.803 112.414C209.803 112.79 209.881 113.076 209.97 113.397C210.058 113.719 210.157 114.076 210.157 114.541C210.157 115.092 210.068 115.565 209.781 115.896C209.731 115.953 209.675 116.003 209.617 116.049C209.674 116.091 209.728 116.137 209.777 116.191C210.07 116.517 210.157 116.996 210.157 117.577C210.157 118.037 210.057 118.39 209.969 118.707C209.88 119.024 209.803 119.306 209.803 119.676C209.803 120.059 209.995 120.665 210.821 120.891L211.102 120.967L211.034 121.25C210.924 121.711 211.041 122.071 211.261 122.317C211.487 122.571 211.838 122.724 212.218 122.724C212.917 122.724 213.441 122.545 214.008 122.35C214.575 122.155 215.185 121.943 215.994 121.943C216.854 121.943 217.466 122.148 217.856 122.553C217.941 122.641 218.01 122.737 218.07 122.837C218.136 122.735 218.212 122.636 218.303 122.547C218.708 122.149 219.329 121.943 220.184 121.943C220.962 121.943 221.546 122.157 222.085 122.352C222.625 122.547 223.12 122.724 223.782 122.724C224.158 122.724 224.531 122.535 224.772 122.249C225.011 121.966 225.1 121.616 224.977 121.285L224.859 120.971L225.185 120.889C225.755 120.746 226.197 120.263 226.197 119.676C226.197 119.244 226.118 118.96 226.032 118.666C225.944 118.365 225.843 118.04 225.843 117.577C225.843 116.978 225.928 116.495 226.225 116.173C226.268 116.126 226.315 116.086 226.364 116.049C226.314 116.008 226.265 115.964 226.221 115.914C225.93 115.587 225.843 115.11 225.843 114.541C225.843 114.044 225.942 113.689 226.031 113.371C226.12 113.058 226.197 112.789 226.197 112.414C226.197 112.17 226.138 111.93 225.993 111.729C225.85 111.53 225.604 111.341 225.181 111.229L224.892 111.151L224.968 110.862C225.156 110.149 224.681 109.395 223.782 109.395C223.12 109.395 222.625 109.572 222.085 109.767C221.546 109.962 220.962 110.175 220.184 110.175C219.283 110.175 218.654 109.972 218.258 109.562C218.178 109.479 218.112 109.389 218.055 109.296ZM223.841 112.045C223.841 111.824 223.662 111.645 223.441 111.645H212.5C212.279 111.645 212.1 111.824 212.1 112.045V120.045C212.1 120.266 212.279 120.445 212.5 120.445H223.441C223.662 120.445 223.841 120.266 223.841 120.045V112.045ZM224.441 120.045L224.436 120.147C224.388 120.618 224.014 120.992 223.543 121.04L223.441 121.045H212.5C211.982 121.045 211.556 120.652 211.505 120.147L211.5 120.045V112.045L211.505 111.942C211.556 111.438 211.982 111.045 212.5 111.045H223.441L223.543 111.05C224.014 111.097 224.388 111.472 224.436 111.942L224.441 112.045V120.045Z" fill="#FFFCF8"/>
</svg>