<svg width="292" height="404" viewBox="0 0 292 404" fill="none" xmlns="http://www.w3.org/2000/svg">
<path d="M283.278 0C287.6 0 291.104 3.50413 291.104 7.82617V326.287H289.976V7.82617C289.976 4.12758 286.977 1.12891 283.278 1.12891H30.0898C27.0084 1.12915 24.5098 3.62751 24.5098 6.70898V22.7412C24.5095 23.4084 23.9689 23.9501 23.3018 23.9502C18.2404 23.9504 14.1367 28.0538 14.1367 33.1152V59.8174C14.137 64.8786 18.2405 68.9822 23.3018 68.9824C23.9691 68.9826 24.5098 69.524 24.5098 70.1914V98.9854C24.5095 99.6525 23.9689 100.194 23.3018 100.194C18.2404 100.195 14.1367 104.298 14.1367 109.359V136.58C14.137 141.641 18.2405 145.745 23.3018 145.745C23.9691 145.745 24.5098 146.287 24.5098 146.954V175.229C24.5095 175.897 23.9689 176.438 23.3018 176.438C18.2405 176.439 14.1369 180.541 14.1367 185.603V212.824C14.137 217.885 18.2405 221.989 23.3018 221.989C23.9689 221.989 24.5095 222.53 24.5098 223.197V251.474C24.5094 252.141 23.9689 252.682 23.3018 252.682C18.2404 252.682 14.1368 256.785 14.1367 261.847V289.068C14.137 294.13 18.2406 298.233 23.3018 298.233C23.969 298.234 24.5096 298.774 24.5098 299.441V328.236C24.5094 328.903 23.9689 329.444 23.3018 329.444C18.2404 329.445 14.1368 333.548 14.1367 338.609V365.312C14.1371 370.374 18.2406 374.477 23.3018 374.478C23.9691 374.478 24.5097 375.018 24.5098 375.686V390.961C24.5102 393.888 26.8837 396.26 29.8105 396.261H127.68V397.39H29.8105C26.2602 397.389 23.3813 394.511 23.3809 390.961V375.686C23.3808 375.642 23.3456 375.606 23.3018 375.605C17.6172 375.605 13.0082 370.997 13.0078 365.312V338.609C13.0078 332.925 17.617 328.316 23.3018 328.315C23.3454 328.315 23.3805 328.28 23.3809 328.236V299.441C23.3807 299.398 23.3456 299.362 23.3018 299.362C17.6171 299.362 13.0081 294.753 13.0078 289.068V261.847C13.0079 256.162 17.617 251.553 23.3018 251.553C23.3454 251.553 23.3805 251.517 23.3809 251.474V223.197C23.3806 223.154 23.3455 223.118 23.3018 223.118C17.6171 223.118 13.0081 218.509 13.0078 212.824V185.603C13.008 179.918 17.617 175.31 23.3018 175.31C23.3455 175.309 23.3806 175.273 23.3809 175.229V146.954C23.3809 146.91 23.3456 146.874 23.3018 146.874C17.6171 146.874 13.0081 142.265 13.0078 136.58V109.359C13.0078 103.674 17.6169 99.0657 23.3018 99.0654C23.3455 99.0653 23.3806 99.029 23.3809 98.9854V70.1914C23.3809 70.1475 23.3456 70.1115 23.3018 70.1113C17.6171 70.1111 13.0081 65.502 13.0078 59.8174V33.1152C13.0078 27.4304 17.6169 22.8215 23.3018 22.8213C23.3455 22.8211 23.3806 22.7849 23.3809 22.7412V6.70898C23.3809 3.00406 26.385 0.000241407 30.0898 0H283.278ZM291.104 389.564C291.104 393.886 287.6 397.39 283.278 397.39H177.472V396.261H283.278C286.977 396.261 289.975 393.263 289.976 389.564V375.041H291.104V389.564Z" fill="#B2987E"/>
<path d="M132.676 88.0967H89.2686C88.0219 88.0969 87.0108 89.1078 87.0107 90.3545V140.816H132.677V141.945H87.0107V195.227H132.677V196.355H87.0107V249.639H132.677V250.768H87.0107V304.05H132.677V305.179H87.0107V355.637C87.0107 356.883 88.0219 357.894 89.2686 357.895H132.676V359.023H89.2686L89.0938 359.02C87.3048 358.928 85.8818 357.448 85.8818 355.637V90.3545C85.8819 88.5429 87.3048 87.0638 89.0938 86.9727L89.2686 86.9678H132.676V88.0967ZM227.229 86.9678C229.099 86.9679 230.615 88.4843 230.615 90.3545V355.637C230.615 357.507 229.099 359.023 227.229 359.023H184.91V357.895H227.229C228.475 357.894 229.486 356.884 229.486 355.637V305.179H184.912V304.05H229.486V250.768H184.912V249.639H229.486V196.355H184.912V195.227H229.486V141.945H184.912V140.816H229.486V90.3545C229.486 89.1077 228.475 88.0968 227.229 88.0967H184.91V86.9678H227.229Z" fill="#B2987E"/>
<path d="M90.3967 41.2488H35.0825C34.459 41.2488 33.9536 40.7434 33.9536 40.1199V37.2978C33.9536 36.6743 34.459 36.1689 35.0825 36.1689H85.3168C86.5637 36.1689 87.5745 35.1581 87.5745 33.9112V12.4628C87.5745 11.2159 88.5854 10.2051 89.8323 10.2051H238.278C239.525 10.2051 240.535 11.2159 240.535 12.4628V33.9112C240.535 35.1581 241.546 36.1689 242.793 36.1689H281.174C281.798 36.1689 282.303 36.6743 282.303 37.2978V40.1199C282.303 40.7434 281.798 41.2488 281.174 41.2488H237.713C236.466 41.2488 235.455 40.238 235.455 38.9911V17.5427C235.455 16.2958 234.445 15.285 233.198 15.285H94.9122C93.6652 15.285 92.6544 16.2958 92.6544 17.5427V38.9911C92.6544 40.238 91.6436 41.2488 90.3967 41.2488Z" fill="#B2987E" fill-opacity="0.3" stroke="#B2987E" stroke-width="1.12886"/>
<path d="M137.951 399.55L138.871 399.4V392.12L137.951 391.98V391.76H141.001C141.721 391.76 142.294 391.827 142.721 391.96C143.147 392.094 143.457 392.297 143.651 392.57C143.844 392.837 143.941 393.19 143.941 393.63C143.941 394.59 143.334 395.204 142.121 395.47V395.52C142.861 395.62 143.434 395.84 143.841 396.18C144.254 396.52 144.461 396.994 144.461 397.6C144.461 398.334 144.191 398.877 143.651 399.23C143.117 399.584 142.394 399.76 141.481 399.76H137.951V399.55ZM141.081 395.44C141.614 395.44 142.024 395.29 142.311 394.99C142.597 394.69 142.741 394.264 142.741 393.71V393.65C142.741 392.557 142.161 392.01 141.001 392.01H139.971V395.44H141.081ZM141.481 399.52C142.047 399.52 142.487 399.357 142.801 399.03C143.114 398.697 143.271 398.224 143.271 397.61V397.5C143.271 396.894 143.114 396.44 142.801 396.14C142.494 395.84 142.054 395.69 141.481 395.69H139.971V399.52H141.481ZM144.924 399.76V399.55L145.914 398.99L148.204 395.93L145.674 392.12L144.824 391.98V391.76H147.854V391.98L147.064 392.1L149.004 395.04L150.934 392.46L149.744 391.98V391.76H152.134V391.98L151.184 392.51L149.144 395.24L151.914 399.41L152.774 399.55V399.76H149.734V399.55L150.524 399.42L148.344 396.14L146.134 399.08L147.314 399.55V399.76H144.924ZM156.412 399.96C155.685 399.96 155.035 399.784 154.462 399.43C153.888 399.077 153.442 398.584 153.122 397.95C152.802 397.31 152.642 396.58 152.642 395.76C152.642 394.94 152.802 394.214 153.122 393.58C153.442 392.94 153.888 392.444 154.462 392.09C155.035 391.737 155.685 391.56 156.412 391.56C157.138 391.56 157.788 391.737 158.362 392.09C158.935 392.444 159.382 392.94 159.702 393.58C160.022 394.214 160.182 394.94 160.182 395.76C160.182 396.58 160.022 397.31 159.702 397.95C159.382 398.584 158.935 399.077 158.362 399.43C157.788 399.784 157.138 399.96 156.412 399.96ZM156.412 399.73C156.892 399.73 157.322 399.604 157.702 399.35C158.088 399.097 158.392 398.73 158.612 398.25C158.832 397.764 158.942 397.19 158.942 396.53V394.99C158.942 394.33 158.832 393.76 158.612 393.28C158.392 392.794 158.088 392.424 157.702 392.17C157.322 391.917 156.892 391.79 156.412 391.79C155.925 391.79 155.492 391.917 155.112 392.17C154.732 392.424 154.432 392.794 154.212 393.28C153.992 393.76 153.882 394.33 153.882 394.99V396.53C153.882 397.19 153.992 397.764 154.212 398.25C154.432 398.73 154.732 399.097 155.112 399.35C155.492 399.604 155.925 399.73 156.412 399.73ZM160.122 399.51H160.452C160.672 399.51 160.892 399.42 161.112 399.24C161.332 399.054 161.539 398.757 161.732 398.35C161.912 397.97 162.052 397.514 162.152 396.98C162.252 396.447 162.332 395.647 162.392 394.58L162.522 392.43L161.462 391.99V391.76H167.312V391.98L166.382 392.12V399.51H167.242L167.392 401.96H167.092L166.052 399.76H161.312L160.272 401.96H159.972L160.122 399.51ZM165.282 399.51V392.01H162.822L162.662 394.58C162.589 395.68 162.502 396.504 162.402 397.05C162.302 397.59 162.165 398.057 161.992 398.45C161.885 398.69 161.772 398.89 161.652 399.05C161.539 399.204 161.435 399.32 161.342 399.4C161.249 399.48 161.202 399.517 161.202 399.51H165.282Z" fill="#B2987E"/>
<rect x="73" y="102.045" width="28" height="28" rx="14" fill="#B2987E"/>
<path d="M87.3594 108.045C87.3594 108.541 87.4548 108.902 87.6895 109.145C87.9236 109.387 88.3578 109.576 89.1836 109.576C89.846 109.576 90.3411 109.398 90.8809 109.203C91.4201 109.008 92.0041 108.795 92.7822 108.795C93.982 108.795 94.6962 109.751 94.5957 110.735C94.9935 110.885 95.2843 111.107 95.4805 111.379C95.7152 111.706 95.7969 112.077 95.7969 112.415C95.7968 112.881 95.6968 113.222 95.6084 113.535C95.5212 113.843 95.4424 114.132 95.4424 114.542C95.4424 115.078 95.5327 115.361 95.6699 115.516C95.7983 115.661 96.0289 115.759 96.5 115.759V116.36C96.016 116.36 95.79 116.446 95.666 116.581C95.5345 116.723 95.4424 117 95.4424 117.578C95.4424 117.945 95.5187 118.195 95.6074 118.498C95.6982 118.808 95.7968 119.158 95.7969 119.676C95.7969 120.475 95.2752 121.101 94.6162 121.376C94.6865 121.847 94.5171 122.297 94.2305 122.636C93.8857 123.045 93.3506 123.324 92.7822 123.324C92.0041 123.324 91.4201 123.111 90.8809 122.917C90.3411 122.721 89.846 122.544 89.1836 122.544C88.4155 122.544 87.9737 122.728 87.7227 122.975C87.4728 123.221 87.3594 123.58 87.3594 124.045H86.7588C86.7588 123.57 86.6585 123.212 86.4248 122.97C86.1923 122.729 85.7708 122.544 84.9941 122.544C84.2952 122.544 83.7702 122.722 83.2031 122.917C82.6363 123.112 82.027 123.324 81.2178 123.324C80.6825 123.324 80.1629 123.108 79.8135 122.716C79.5089 122.375 79.3473 121.913 79.4043 121.382C78.4658 121.013 78.2031 120.211 78.2031 119.676C78.2032 119.216 78.3031 118.864 78.3916 118.546C78.48 118.229 78.5576 117.948 78.5576 117.578C78.5576 117.024 78.4671 116.743 78.332 116.593C78.2054 116.453 77.9761 116.36 77.5 116.36V115.759L77.6631 115.754C78.0201 115.732 78.2133 115.636 78.3281 115.503C78.4688 115.341 78.5576 115.054 78.5576 114.542C78.5576 114.166 78.479 113.879 78.3906 113.558C78.3021 113.236 78.2032 112.88 78.2031 112.415C78.2031 111.596 78.7198 110.958 79.3945 110.72C79.2949 109.768 80.071 108.795 81.2178 108.795C82.0252 108.795 82.6674 109.005 83.252 109.201C83.8422 109.398 84.3645 109.576 84.9941 109.576C85.7627 109.576 86.1844 109.39 86.4189 109.146C86.6255 108.931 86.7307 108.624 86.7539 108.223L86.7588 108.045H87.3594ZM87.0547 109.296C86.9966 109.39 86.9308 109.479 86.8516 109.562C86.4593 109.97 85.8478 110.175 84.9941 110.175C84.252 110.175 83.6393 109.963 83.0615 109.77C82.4782 109.575 81.9184 109.395 81.2178 109.395C80.3358 109.395 79.8267 110.212 80.0283 110.848L80.1328 111.178L79.792 111.235C79.2495 111.326 78.8027 111.789 78.8027 112.415C78.8028 112.79 78.8813 113.077 78.9697 113.398C79.0583 113.72 79.1572 114.076 79.1572 114.542C79.1572 115.093 79.0683 115.565 78.7812 115.896C78.7312 115.954 78.6755 116.004 78.6172 116.049C78.6737 116.092 78.7284 116.138 78.7773 116.192C79.0701 116.517 79.1572 116.996 79.1572 117.578C79.1572 118.038 79.0573 118.39 78.9688 118.708C78.8803 119.024 78.8028 119.306 78.8027 119.676C78.8027 120.059 78.9952 120.666 79.8213 120.891L80.1016 120.967L80.0342 121.25C79.9235 121.712 80.0411 122.072 80.2607 122.318C80.4866 122.571 80.8385 122.724 81.2178 122.724C81.9165 122.724 82.4408 122.545 83.0078 122.35C83.5747 122.155 84.1847 121.944 84.9941 121.944C85.8545 121.944 86.4657 122.149 86.8564 122.553C86.9413 122.641 87.01 122.738 87.0703 122.837C87.1358 122.735 87.2117 122.637 87.3027 122.547C87.7081 122.149 88.3294 121.944 89.1836 121.944C89.9618 121.944 90.5457 122.157 91.085 122.352C91.6247 122.547 92.1199 122.724 92.7822 122.724C93.1577 122.724 93.5308 122.536 93.7725 122.25C94.0114 121.966 94.1002 121.617 93.9766 121.286L93.8594 120.971L94.1846 120.889C94.7545 120.746 95.1973 120.264 95.1973 119.676C95.1972 119.245 95.1183 118.961 95.0322 118.667C94.944 118.365 94.8428 118.04 94.8428 117.578C94.8428 116.978 94.9284 116.495 95.2246 116.173C95.2677 116.127 95.3154 116.087 95.3643 116.049C95.3135 116.009 95.2651 115.965 95.2207 115.915C94.9303 115.587 94.8428 115.111 94.8428 114.542C94.8428 114.044 94.9415 113.689 95.0312 113.372C95.1198 113.058 95.1972 112.789 95.1973 112.415C95.1973 112.171 95.1382 111.931 94.9932 111.729C94.8502 111.53 94.6042 111.342 94.1807 111.229L93.8916 111.152L93.9678 110.863C94.1563 110.149 93.6811 109.395 92.7822 109.395C92.1199 109.395 91.6247 109.572 91.085 109.767C90.5457 109.962 89.9618 110.175 89.1836 110.175C88.2834 110.175 87.6543 109.972 87.2578 109.562C87.178 109.479 87.1123 109.39 87.0547 109.296ZM92.8408 112.045C92.8408 111.825 92.6622 111.645 92.4414 111.645H81.5C81.2791 111.645 81.0996 111.824 81.0996 112.045V120.045C81.0996 120.266 81.2791 120.446 81.5 120.446H92.4414C92.6622 120.446 92.8408 120.266 92.8408 120.045V112.045ZM93.4414 120.045L93.4355 120.148C93.3876 120.619 93.0137 120.993 92.543 121.041L92.4414 121.045H81.5C80.9823 121.045 80.5562 120.652 80.5049 120.148L80.5 120.045V112.045L80.5049 111.943C80.5562 111.439 80.9823 111.045 81.5 111.045H92.4414L92.543 111.05C93.0137 111.098 93.3876 111.472 93.4355 111.943L93.4414 112.045V120.045Z" fill="#FFFCF8"/>
<rect x="216" y="102.045" width="28" height="28" rx="14" fill="#B2987E"/>
<path d="M230.359 108.045C230.359 108.541 230.455 108.902 230.689 109.145C230.924 109.387 231.358 109.576 232.184 109.576C232.846 109.576 233.341 109.398 233.881 109.203C234.42 109.008 235.004 108.795 235.782 108.795C236.982 108.795 237.696 109.751 237.596 110.735C237.993 110.885 238.284 111.107 238.48 111.379C238.715 111.706 238.797 112.077 238.797 112.415C238.797 112.881 238.697 113.222 238.608 113.535C238.521 113.843 238.442 114.132 238.442 114.542C238.442 115.078 238.533 115.361 238.67 115.516C238.798 115.661 239.029 115.759 239.5 115.759V116.36C239.016 116.36 238.79 116.446 238.666 116.581C238.535 116.723 238.442 117 238.442 117.578C238.442 117.945 238.519 118.195 238.607 118.498C238.698 118.808 238.797 119.158 238.797 119.676C238.797 120.475 238.275 121.101 237.616 121.376C237.687 121.847 237.517 122.297 237.23 122.636C236.886 123.045 236.351 123.324 235.782 123.324C235.004 123.324 234.42 123.111 233.881 122.917C233.341 122.721 232.846 122.544 232.184 122.544C231.415 122.544 230.974 122.728 230.723 122.975C230.473 123.221 230.359 123.58 230.359 124.045H229.759C229.759 123.57 229.658 123.212 229.425 122.97C229.192 122.729 228.771 122.544 227.994 122.544C227.295 122.544 226.77 122.722 226.203 122.917C225.636 123.112 225.027 123.324 224.218 123.324C223.682 123.324 223.163 123.108 222.813 122.716C222.509 122.375 222.347 121.913 222.404 121.382C221.466 121.013 221.203 120.211 221.203 119.676C221.203 119.216 221.303 118.864 221.392 118.546C221.48 118.229 221.558 117.948 221.558 117.578C221.558 117.024 221.467 116.743 221.332 116.593C221.205 116.453 220.976 116.36 220.5 116.36V115.759L220.663 115.754C221.02 115.732 221.213 115.636 221.328 115.503C221.469 115.341 221.558 115.054 221.558 114.542C221.558 114.166 221.479 113.879 221.391 113.558C221.302 113.236 221.203 112.88 221.203 112.415C221.203 111.596 221.72 110.958 222.395 110.72C222.295 109.768 223.071 108.795 224.218 108.795C225.025 108.795 225.667 109.005 226.252 109.201C226.842 109.398 227.364 109.576 227.994 109.576C228.763 109.576 229.184 109.39 229.419 109.146C229.626 108.931 229.731 108.624 229.754 108.223L229.759 108.045H230.359ZM230.055 109.296C229.997 109.39 229.931 109.479 229.852 109.562C229.459 109.97 228.848 110.175 227.994 110.175C227.252 110.175 226.639 109.963 226.062 109.77C225.478 109.575 224.918 109.395 224.218 109.395C223.336 109.395 222.827 110.212 223.028 110.848L223.133 111.178L222.792 111.235C222.25 111.326 221.803 111.789 221.803 112.415C221.803 112.79 221.881 113.077 221.97 113.398C222.058 113.72 222.157 114.076 222.157 114.542C222.157 115.093 222.068 115.565 221.781 115.896C221.731 115.954 221.675 116.004 221.617 116.049C221.674 116.092 221.728 116.138 221.777 116.192C222.07 116.517 222.157 116.996 222.157 117.578C222.157 118.038 222.057 118.39 221.969 118.708C221.88 119.024 221.803 119.306 221.803 119.676C221.803 120.059 221.995 120.666 222.821 120.891L223.102 120.967L223.034 121.25C222.924 121.712 223.041 122.072 223.261 122.318C223.487 122.571 223.838 122.724 224.218 122.724C224.917 122.724 225.441 122.545 226.008 122.35C226.575 122.155 227.185 121.944 227.994 121.944C228.854 121.944 229.466 122.149 229.856 122.553C229.941 122.641 230.01 122.738 230.07 122.837C230.136 122.735 230.212 122.637 230.303 122.547C230.708 122.149 231.329 121.944 232.184 121.944C232.962 121.944 233.546 122.157 234.085 122.352C234.625 122.547 235.12 122.724 235.782 122.724C236.158 122.724 236.531 122.536 236.772 122.25C237.011 121.966 237.1 121.617 236.977 121.286L236.859 120.971L237.185 120.889C237.755 120.746 238.197 120.264 238.197 119.676C238.197 119.245 238.118 118.961 238.032 118.667C237.944 118.365 237.843 118.04 237.843 117.578C237.843 116.978 237.928 116.495 238.225 116.173C238.268 116.127 238.315 116.087 238.364 116.049C238.314 116.009 238.265 115.965 238.221 115.915C237.93 115.587 237.843 115.111 237.843 114.542C237.843 114.044 237.942 113.689 238.031 113.372C238.12 113.058 238.197 112.789 238.197 112.415C238.197 112.171 238.138 111.931 237.993 111.729C237.85 111.53 237.604 111.342 237.181 111.229L236.892 111.152L236.968 110.863C237.156 110.149 236.681 109.395 235.782 109.395C235.12 109.395 234.625 109.572 234.085 109.767C233.546 109.962 232.962 110.175 232.184 110.175C231.283 110.175 230.654 109.972 230.258 109.562C230.178 109.479 230.112 109.39 230.055 109.296ZM235.841 112.045C235.841 111.825 235.662 111.645 235.441 111.645H224.5C224.279 111.645 224.1 111.824 224.1 112.045V120.045C224.1 120.266 224.279 120.446 224.5 120.446H235.441C235.662 120.446 235.841 120.266 235.841 120.045V112.045ZM236.441 120.045L236.436 120.148C236.388 120.619 236.014 120.993 235.543 121.041L235.441 121.045H224.5C223.982 121.045 223.556 120.652 223.505 120.148L223.5 120.045V112.045L223.505 111.943C223.556 111.439 223.982 111.045 224.5 111.045H235.441L235.543 111.05C236.014 111.098 236.388 111.472 236.436 111.943L236.441 112.045V120.045Z" fill="#FFFCF8"/>
<rect x="216" y="264.045" width="28" height="28" rx="14" fill="#B2987E"/>
<path d="M230.359 270.045C230.359 270.541 230.455 270.902 230.689 271.145C230.924 271.387 231.358 271.576 232.184 271.576C232.846 271.576 233.341 271.398 233.881 271.203C234.42 271.008 235.004 270.795 235.782 270.795C236.982 270.795 237.696 271.751 237.596 272.735C237.993 272.885 238.284 273.107 238.48 273.379C238.715 273.706 238.797 274.077 238.797 274.415C238.797 274.881 238.697 275.222 238.608 275.535C238.521 275.843 238.442 276.132 238.442 276.542C238.442 277.078 238.533 277.361 238.67 277.516C238.798 277.661 239.029 277.759 239.5 277.759V278.36C239.016 278.36 238.79 278.446 238.666 278.581C238.535 278.723 238.442 279 238.442 279.578C238.442 279.945 238.519 280.195 238.607 280.498C238.698 280.808 238.797 281.158 238.797 281.676C238.797 282.475 238.275 283.101 237.616 283.376C237.687 283.847 237.517 284.297 237.23 284.636C236.886 285.045 236.351 285.324 235.782 285.324C235.004 285.324 234.42 285.111 233.881 284.917C233.341 284.721 232.846 284.544 232.184 284.544C231.415 284.544 230.974 284.728 230.723 284.975C230.473 285.221 230.359 285.58 230.359 286.045H229.759C229.759 285.57 229.658 285.212 229.425 284.97C229.192 284.729 228.771 284.544 227.994 284.544C227.295 284.544 226.77 284.722 226.203 284.917C225.636 285.112 225.027 285.324 224.218 285.324C223.682 285.324 223.163 285.108 222.813 284.716C222.509 284.375 222.347 283.913 222.404 283.382C221.466 283.013 221.203 282.211 221.203 281.676C221.203 281.216 221.303 280.864 221.392 280.546C221.48 280.229 221.558 279.948 221.558 279.578C221.558 279.024 221.467 278.743 221.332 278.593C221.205 278.453 220.976 278.36 220.5 278.36V277.759L220.663 277.754C221.02 277.732 221.213 277.636 221.328 277.503C221.469 277.341 221.558 277.054 221.558 276.542C221.558 276.166 221.479 275.879 221.391 275.558C221.302 275.236 221.203 274.88 221.203 274.415C221.203 273.596 221.72 272.958 222.395 272.72C222.295 271.768 223.071 270.795 224.218 270.795C225.025 270.795 225.667 271.005 226.252 271.201C226.842 271.398 227.364 271.576 227.994 271.576C228.763 271.576 229.184 271.39 229.419 271.146C229.626 270.931 229.731 270.624 229.754 270.223L229.759 270.045H230.359ZM230.055 271.296C229.997 271.39 229.931 271.479 229.852 271.562C229.459 271.97 228.848 272.175 227.994 272.175C227.252 272.175 226.639 271.963 226.062 271.77C225.478 271.575 224.918 271.395 224.218 271.395C223.336 271.395 222.827 272.212 223.028 272.848L223.133 273.178L222.792 273.235C222.25 273.326 221.803 273.789 221.803 274.415C221.803 274.79 221.881 275.077 221.97 275.398C222.058 275.72 222.157 276.076 222.157 276.542C222.157 277.093 222.068 277.565 221.781 277.896C221.731 277.954 221.675 278.004 221.617 278.049C221.674 278.092 221.728 278.138 221.777 278.192C222.07 278.517 222.157 278.996 222.157 279.578C222.157 280.038 222.057 280.39 221.969 280.708C221.88 281.024 221.803 281.306 221.803 281.676C221.803 282.059 221.995 282.666 222.821 282.891L223.102 282.967L223.034 283.25C222.924 283.712 223.041 284.072 223.261 284.318C223.487 284.571 223.838 284.724 224.218 284.724C224.917 284.724 225.441 284.545 226.008 284.35C226.575 284.155 227.185 283.944 227.994 283.944C228.854 283.944 229.466 284.149 229.856 284.553C229.941 284.641 230.01 284.738 230.07 284.837C230.136 284.735 230.212 284.637 230.303 284.547C230.708 284.149 231.329 283.944 232.184 283.944C232.962 283.944 233.546 284.157 234.085 284.352C234.625 284.547 235.12 284.724 235.782 284.724C236.158 284.724 236.531 284.536 236.772 284.25C237.011 283.966 237.1 283.617 236.977 283.286L236.859 282.971L237.185 282.889C237.755 282.746 238.197 282.264 238.197 281.676C238.197 281.245 238.118 280.961 238.032 280.667C237.944 280.365 237.843 280.04 237.843 279.578C237.843 278.978 237.928 278.495 238.225 278.173C238.268 278.127 238.315 278.087 238.364 278.049C238.314 278.009 238.265 277.965 238.221 277.915C237.93 277.587 237.843 277.111 237.843 276.542C237.843 276.044 237.942 275.689 238.031 275.372C238.12 275.058 238.197 274.789 238.197 274.415C238.197 274.171 238.138 273.931 237.993 273.729C237.85 273.53 237.604 273.342 237.181 273.229L236.892 273.152L236.968 272.863C237.156 272.149 236.681 271.395 235.782 271.395C235.12 271.395 234.625 271.572 234.085 271.767C233.546 271.962 232.962 272.175 232.184 272.175C231.283 272.175 230.654 271.972 230.258 271.562C230.178 271.479 230.112 271.39 230.055 271.296ZM235.841 274.045C235.841 273.825 235.662 273.645 235.441 273.645H224.5C224.279 273.645 224.1 273.824 224.1 274.045V282.045C224.1 282.266 224.279 282.446 224.5 282.446H235.441C235.662 282.446 235.841 282.266 235.841 282.045V274.045ZM236.441 282.045L236.436 282.148C236.388 282.619 236.014 282.993 235.543 283.041L235.441 283.045H224.5C223.982 283.045 223.556 282.652 223.505 282.148L223.5 282.045V274.045L223.505 273.943C223.556 273.439 223.982 273.045 224.5 273.045H235.441L235.543 273.05C236.014 273.098 236.388 273.472 236.436 273.943L236.441 274.045V282.045Z" fill="#FFFCF8"/>
<rect y="111.045" width="28" height="28" rx="14" fill="#B2987E"/>
<path d="M14.3594 117.045C14.3594 117.541 14.4548 117.902 14.6895 118.145C14.9236 118.387 15.3578 118.576 16.1836 118.576C16.846 118.576 17.3411 118.398 17.8809 118.203C18.4201 118.008 19.0041 117.795 19.7822 117.795C20.982 117.795 21.6962 118.751 21.5957 119.735C21.9935 119.885 22.2843 120.107 22.4805 120.379C22.7152 120.706 22.7969 121.077 22.7969 121.415C22.7968 121.881 22.6968 122.222 22.6084 122.535C22.5212 122.843 22.4424 123.132 22.4424 123.542C22.4424 124.078 22.5327 124.361 22.6699 124.516C22.7983 124.661 23.0289 124.759 23.5 124.759V125.36C23.016 125.36 22.79 125.446 22.666 125.581C22.5345 125.723 22.4424 126 22.4424 126.578C22.4424 126.945 22.5187 127.195 22.6074 127.498C22.6982 127.808 22.7968 128.158 22.7969 128.676C22.7969 129.475 22.2752 130.101 21.6162 130.376C21.6865 130.847 21.5171 131.297 21.2305 131.636C20.8857 132.045 20.3506 132.324 19.7822 132.324C19.0041 132.324 18.4201 132.111 17.8809 131.917C17.3411 131.721 16.846 131.544 16.1836 131.544C15.4155 131.544 14.9737 131.728 14.7227 131.975C14.4728 132.221 14.3594 132.58 14.3594 133.045H13.7588C13.7588 132.57 13.6585 132.212 13.4248 131.97C13.1923 131.729 12.7708 131.544 11.9941 131.544C11.2952 131.544 10.7702 131.722 10.2031 131.917C9.63634 132.112 9.02702 132.324 8.21777 132.324C7.68247 132.324 7.16289 132.108 6.81348 131.716C6.50888 131.375 6.34735 130.913 6.4043 130.382C5.46585 130.013 5.20312 129.211 5.20312 128.676C5.20317 128.216 5.30308 127.864 5.3916 127.546C5.48004 127.229 5.55757 126.948 5.55762 126.578C5.55762 126.024 5.46709 125.743 5.33203 125.593C5.20542 125.453 4.97608 125.36 4.5 125.36V124.759L4.66309 124.754C5.02008 124.732 5.21331 124.636 5.32812 124.503C5.46879 124.341 5.55762 124.054 5.55762 123.542C5.55757 123.166 5.47902 122.879 5.39062 122.558C5.3021 122.236 5.20317 121.88 5.20312 121.415C5.20313 120.596 5.71975 119.958 6.39453 119.72C6.29494 118.768 7.071 117.795 8.21777 117.795C9.02522 117.795 9.66743 118.005 10.252 118.201C10.8422 118.398 11.3645 118.576 11.9941 118.576C12.7627 118.576 13.1844 118.39 13.4189 118.146C13.6255 117.931 13.7307 117.624 13.7539 117.223L13.7588 117.045H14.3594ZM14.0547 118.296C13.9966 118.39 13.9308 118.479 13.8516 118.562C13.4593 118.97 12.8478 119.175 11.9941 119.175C11.252 119.175 10.6393 118.963 10.0615 118.77C9.47817 118.575 8.91835 118.395 8.21777 118.395C7.33582 118.395 6.82667 119.212 7.02832 119.848L7.13281 120.178L6.79199 120.235C6.2495 120.326 5.80273 120.789 5.80273 121.415C5.80278 121.79 5.88133 122.077 5.96973 122.398C6.05826 122.72 6.15718 123.076 6.15723 123.542C6.15723 124.093 6.06828 124.565 5.78125 124.896C5.73116 124.954 5.67549 125.004 5.61719 125.049C5.6737 125.092 5.72836 125.138 5.77734 125.192C6.07008 125.517 6.15723 125.996 6.15723 126.578C6.15718 127.038 6.05728 127.39 5.96875 127.708C5.88031 128.024 5.80278 128.306 5.80273 128.676C5.80273 129.059 5.9952 129.666 6.82129 129.891L7.10156 129.967L7.03418 130.25C6.92352 130.712 7.04113 131.072 7.26074 131.318C7.48664 131.571 7.83849 131.724 8.21777 131.724C8.91653 131.724 9.44084 131.545 10.0078 131.35C10.5747 131.155 11.1847 130.944 11.9941 130.944C12.8545 130.944 13.4657 131.149 13.8564 131.553C13.9413 131.641 14.01 131.738 14.0703 131.837C14.1358 131.735 14.2117 131.637 14.3027 131.547C14.7081 131.149 15.3294 130.944 16.1836 130.944C16.9618 130.944 17.5457 131.157 18.085 131.352C18.6247 131.547 19.1199 131.724 19.7822 131.724C20.1577 131.724 20.5308 131.536 20.7725 131.25C21.0114 130.966 21.1002 130.617 20.9766 130.286L20.8594 129.971L21.1846 129.889C21.7545 129.746 22.1973 129.264 22.1973 128.676C22.1972 128.245 22.1183 127.961 22.0322 127.667C21.944 127.365 21.8428 127.04 21.8428 126.578C21.8428 125.978 21.9284 125.495 22.2246 125.173C22.2677 125.127 22.3154 125.087 22.3643 125.049C22.3135 125.009 22.2651 124.965 22.2207 124.915C21.9303 124.587 21.8428 124.111 21.8428 123.542C21.8428 123.044 21.9415 122.689 22.0312 122.372C22.1198 122.058 22.1972 121.789 22.1973 121.415C22.1973 121.171 22.1382 120.931 21.9932 120.729C21.8502 120.53 21.6042 120.342 21.1807 120.229L20.8916 120.152L20.9678 119.863C21.1563 119.149 20.6811 118.395 19.7822 118.395C19.1199 118.395 18.6247 118.572 18.085 118.767C17.5457 118.962 16.9618 119.175 16.1836 119.175C15.2834 119.175 14.6543 118.972 14.2578 118.562C14.178 118.479 14.1123 118.39 14.0547 118.296ZM19.8408 121.045C19.8408 120.825 19.6622 120.645 19.4414 120.645H8.5C8.27909 120.645 8.09961 120.824 8.09961 121.045V129.045C8.09961 129.266 8.27909 129.446 8.5 129.446H19.4414C19.6622 129.446 19.8408 129.266 19.8408 129.045V121.045ZM20.4414 129.045L20.4355 129.148C20.3876 129.619 20.0137 129.993 19.543 130.041L19.4414 130.045H8.5C7.98232 130.045 7.55621 129.652 7.50488 129.148L7.5 129.045V121.045L7.50488 120.943C7.55622 120.439 7.98232 120.045 8.5 120.045H19.4414L19.543 120.05C20.0137 120.098 20.3876 120.472 20.4355 120.943L20.4414 121.045V129.045Z" fill="#FFFCF8"/>
</svg>
