<svg xmlns="http://www.w3.org/2000/svg" width="292" height="404" viewBox="0 0 292 404" fill="none">
<path d="M283.746 0C288.067 6.62041e-05 291.571 3.50443 291.571 7.82617V326.284H290.442V7.82617C290.442 4.12788 287.444 1.12897 283.746 1.12891H30.5591C27.4778 1.12904 24.9793 3.6277 24.979 6.70898V22.7412C24.979 23.4085 24.4383 23.95 23.771 23.9502C18.7099 23.9503 14.6065 28.0532 14.606 33.1143V59.8174C14.606 64.8788 18.7096 68.9823 23.771 68.9824C24.4381 68.9826 24.9787 69.5234 24.979 70.1904V98.9844C24.979 99.6517 24.4383 100.193 23.771 100.193C18.7097 100.193 14.6062 104.297 14.606 109.358V136.579C14.606 141.641 18.7096 145.744 23.771 145.744C24.438 145.744 24.9786 146.285 24.979 146.952V175.228C24.979 175.895 24.4383 176.436 23.771 176.437C18.7097 176.437 14.6062 180.54 14.606 185.602V212.822C14.606 217.884 18.7096 221.987 23.771 221.987C24.438 221.987 24.9785 222.528 24.979 223.195V251.472C24.9788 252.139 24.4381 252.68 23.771 252.68C18.7097 252.68 14.6062 256.784 14.606 261.845V289.065C14.606 294.127 18.7096 298.23 23.771 298.23C24.438 298.231 24.9785 298.772 24.979 299.438V328.233C24.9789 328.901 24.4382 329.441 23.771 329.441C18.7097 329.442 14.6062 333.545 14.606 338.606V365.309C14.606 370.37 18.7096 374.474 23.771 374.474C24.4381 374.474 24.9787 375.016 24.979 375.683V390.957C24.979 393.884 27.3526 396.258 30.2798 396.258H127.697V397.387H30.2798C26.7291 397.387 23.8501 394.508 23.8501 390.957V375.683C23.8498 375.639 23.8147 375.603 23.771 375.603C18.0861 375.602 13.4771 370.993 13.4771 365.309V338.606C13.4773 332.922 18.0863 328.313 23.771 328.312C23.8147 328.312 23.85 328.277 23.8501 328.233V299.438C23.8496 299.395 23.8145 299.36 23.771 299.359C18.0861 299.359 13.4771 294.75 13.4771 289.065V261.845C13.4773 256.16 18.0863 251.551 23.771 251.551C23.8147 251.551 23.8499 251.515 23.8501 251.472V223.195C23.8496 223.152 23.8145 223.116 23.771 223.116C18.0861 223.116 13.4771 218.507 13.4771 212.822V185.602C13.4773 179.917 18.0863 175.308 23.771 175.308C23.8148 175.307 23.8501 175.271 23.8501 175.228V146.952C23.8497 146.909 23.8146 146.873 23.771 146.873C18.0861 146.873 13.4771 142.264 13.4771 136.579V109.358C13.4773 103.674 18.0863 99.0646 23.771 99.0645C23.8148 99.0643 23.8501 99.0283 23.8501 98.9844V70.1904C23.8498 70.1468 23.8146 70.1115 23.771 70.1113C18.0862 70.1112 13.4771 65.5022 13.4771 59.8174V33.1143C13.4776 27.4298 18.0864 22.8214 23.771 22.8213C23.8148 22.8211 23.8501 22.7851 23.8501 22.7412V6.70898C23.8504 3.00425 26.8543 0.000133782 30.5591 0H283.746ZM291.571 389.561C291.571 393.883 288.068 397.387 283.746 397.387H177.489V396.258H283.746C287.444 396.258 290.442 393.259 290.442 389.561V375.038H291.571V389.561Z" fill="#B2987E"/>
<rect x="65.0464" y="119.14" width="185.589" height="185.589" rx="92.7947" stroke="#B2987E" stroke-width="1.12885"/>
<rect x="74.8427" y="128.937" width="165.995" height="165.995" rx="82.9977" stroke="#B2987E" stroke-width="1.12885"/>
<rect x="138.811" y="173.311" width="38.0589" height="77.2467" rx="2.54754" fill="#B2987E" fill-opacity="0.4" stroke="#B2987E" stroke-width="1.12885"/>
<rect x="47.8008" y="28.0082" width="21.6922" height="220.858" rx="2.54754" transform="rotate(-90 47.8008 28.0082)" fill="#B2987E" fill-opacity="0.3" stroke="#B2987E" stroke-width="1.12885"/>
<path d="M138.129 399.548L139.049 399.398V392.118L138.129 391.978V391.758H141.179C141.899 391.758 142.472 391.824 142.899 391.958C143.325 392.091 143.635 392.294 143.829 392.568C144.022 392.834 144.119 393.188 144.119 393.628C144.119 394.588 143.512 395.201 142.299 395.468V395.518C143.039 395.618 143.612 395.838 144.019 396.178C144.432 396.518 144.639 396.991 144.639 397.598C144.639 398.331 144.369 398.874 143.829 399.228C143.295 399.581 142.572 399.758 141.659 399.758H138.129V399.548ZM141.259 395.438C141.792 395.438 142.202 395.288 142.489 394.988C142.775 394.688 142.919 394.261 142.919 393.708V393.648C142.919 392.554 142.339 392.008 141.179 392.008H140.149V395.438H141.259ZM141.659 399.518C142.225 399.518 142.665 399.354 142.979 399.028C143.292 398.694 143.449 398.221 143.449 397.608V397.498C143.449 396.891 143.292 396.438 142.979 396.138C142.672 395.838 142.232 395.688 141.659 395.688H140.149V399.518H141.659ZM145.102 399.758V399.548L146.092 398.988L148.382 395.928L145.852 392.118L145.002 391.978V391.758H148.032V391.978L147.242 392.098L149.182 395.038L151.112 392.458L149.922 391.978V391.758H152.312V391.978L151.362 392.508L149.322 395.238L152.092 399.408L152.952 399.548V399.758H149.912V399.548L150.702 399.418L148.522 396.138L146.312 399.078L147.492 399.548V399.758H145.102ZM156.589 399.958C155.863 399.958 155.213 399.781 154.639 399.428C154.066 399.074 153.619 398.581 153.299 397.948C152.979 397.308 152.819 396.578 152.819 395.758C152.819 394.938 152.979 394.211 153.299 393.578C153.619 392.938 154.066 392.441 154.639 392.088C155.213 391.734 155.863 391.558 156.589 391.558C157.316 391.558 157.966 391.734 158.539 392.088C159.113 392.441 159.559 392.938 159.879 393.578C160.199 394.211 160.359 394.938 160.359 395.758C160.359 396.578 160.199 397.308 159.879 397.948C159.559 398.581 159.113 399.074 158.539 399.428C157.966 399.781 157.316 399.958 156.589 399.958ZM156.589 399.728C157.069 399.728 157.499 399.601 157.879 399.348C158.266 399.094 158.569 398.728 158.789 398.248C159.009 397.761 159.119 397.188 159.119 396.528V394.988C159.119 394.328 159.009 393.758 158.789 393.278C158.569 392.791 158.266 392.421 157.879 392.168C157.499 391.914 157.069 391.788 156.589 391.788C156.103 391.788 155.669 391.914 155.289 392.168C154.909 392.421 154.609 392.791 154.389 393.278C154.169 393.758 154.059 394.328 154.059 394.988V396.528C154.059 397.188 154.169 397.761 154.389 398.248C154.609 398.728 154.909 399.094 155.289 399.348C155.669 399.601 156.103 399.728 156.589 399.728ZM160.3 399.508H160.63C160.85 399.508 161.07 399.418 161.29 399.238C161.51 399.051 161.716 398.754 161.91 398.348C162.09 397.968 162.23 397.511 162.33 396.978C162.43 396.444 162.51 395.644 162.57 394.578L162.7 392.428L161.64 391.988V391.758H167.49V391.978L166.56 392.118V399.508H167.42L167.57 401.958H167.27L166.23 399.758H161.49L160.45 401.958H160.15L160.3 399.508ZM165.46 399.508V392.008H163L162.84 394.578C162.766 395.678 162.68 396.501 162.58 397.048C162.48 397.588 162.343 398.054 162.17 398.448C162.063 398.688 161.95 398.888 161.83 399.048C161.716 399.201 161.613 399.318 161.52 399.398C161.426 399.478 161.38 399.514 161.38 399.508H165.46Z" fill="#B2987E"/>
<circle cx="153" cy="28.0463" r="2" fill="#00FF00" id="activityC"/>
<circle cx="14" cy="275.046" r="2" fill="#00FF00" id="activityB"/>
</svg>