<svg xmlns="http://www.w3.org/2000/svg" width="292" height="404" viewBox="0 0 292 404" fill="none">
<path d="M283.278 0C287.6 0 291.104 3.50413 291.104 7.82617V326.287H289.976V7.82617C289.976 4.12758 286.977 1.12891 283.278 1.12891H30.0898C27.0084 1.12915 24.5098 3.62751 24.5098 6.70898V22.7412C24.5095 23.4084 23.9689 23.9501 23.3018 23.9502C18.2404 23.9504 14.1367 28.0538 14.1367 33.1152V59.8174C14.137 64.8786 18.2405 68.9822 23.3018 68.9824C23.9691 68.9826 24.5098 69.524 24.5098 70.1914V98.9854C24.5095 99.6525 23.9689 100.194 23.3018 100.194C18.2404 100.195 14.1367 104.298 14.1367 109.359V136.58C14.137 141.641 18.2405 145.745 23.3018 145.745C23.9691 145.745 24.5098 146.287 24.5098 146.954V175.229C24.5095 175.897 23.9689 176.438 23.3018 176.438C18.2405 176.439 14.1369 180.541 14.1367 185.603V212.824C14.137 217.885 18.2405 221.989 23.3018 221.989C23.9689 221.989 24.5095 222.53 24.5098 223.197V251.474C24.5094 252.141 23.9689 252.682 23.3018 252.682C18.2404 252.682 14.1368 256.785 14.1367 261.847V289.068C14.137 294.13 18.2406 298.233 23.3018 298.233C23.969 298.234 24.5096 298.774 24.5098 299.441V328.236C24.5094 328.903 23.9689 329.444 23.3018 329.444C18.2404 329.445 14.1368 333.548 14.1367 338.609V365.312C14.1371 370.374 18.2406 374.477 23.3018 374.478C23.9691 374.478 24.5097 375.018 24.5098 375.686V390.961C24.5102 393.888 26.8837 396.26 29.8105 396.261H127.68V397.39H29.8105C26.2602 397.389 23.3813 394.511 23.3809 390.961V375.686C23.3808 375.642 23.3456 375.606 23.3018 375.605C17.6172 375.605 13.0082 370.997 13.0078 365.312V338.609C13.0078 332.925 17.617 328.316 23.3018 328.315C23.3454 328.315 23.3805 328.28 23.3809 328.236V299.441C23.3807 299.398 23.3456 299.362 23.3018 299.362C17.6171 299.362 13.0081 294.753 13.0078 289.068V261.847C13.0079 256.162 17.617 251.553 23.3018 251.553C23.3454 251.553 23.3805 251.517 23.3809 251.474V223.197C23.3806 223.154 23.3455 223.118 23.3018 223.118C17.6171 223.118 13.0081 218.509 13.0078 212.824V185.603C13.008 179.918 17.617 175.31 23.3018 175.31C23.3455 175.309 23.3806 175.273 23.3809 175.229V146.954C23.3809 146.91 23.3456 146.874 23.3018 146.874C17.6171 146.874 13.0081 142.265 13.0078 136.58V109.359C13.0078 103.674 17.6169 99.0657 23.3018 99.0654C23.3455 99.0653 23.3806 99.029 23.3809 98.9854V70.1914C23.3809 70.1475 23.3456 70.1115 23.3018 70.1113C17.6171 70.1111 13.0081 65.502 13.0078 59.8174V33.1152C13.0078 27.4304 17.6169 22.8215 23.3018 22.8213C23.3455 22.8211 23.3806 22.7849 23.3809 22.7412V6.70898C23.3809 3.00406 26.385 0.000241407 30.0898 0H283.278ZM291.104 389.564C291.104 393.886 287.6 397.39 283.278 397.39H177.472V396.261H283.278C286.977 396.261 289.975 393.263 289.976 389.564V375.041H291.104V389.564Z" fill="#B2987E"/>
<path d="M132.676 88.0967H89.2686C88.0219 88.0969 87.0108 89.1078 87.0107 90.3545V140.816H132.677V141.945H87.0107V195.227H132.677V196.355H87.0107V249.639H132.677V250.768H87.0107V304.05H132.677V305.179H87.0107V355.637C87.0107 356.883 88.0219 357.894 89.2686 357.895H132.676V359.023H89.2686L89.0938 359.02C87.3048 358.928 85.8818 357.448 85.8818 355.637V90.3545C85.8819 88.5429 87.3048 87.0638 89.0938 86.9727L89.2686 86.9678H132.676V88.0967ZM227.229 86.9678C229.099 86.9679 230.615 88.4843 230.615 90.3545V355.637C230.615 357.507 229.099 359.023 227.229 359.023H184.91V357.895H227.229C228.475 357.894 229.486 356.884 229.486 355.637V305.179H184.912V304.05H229.486V250.768H184.912V249.639H229.486V196.355H184.912V195.227H229.486V141.945H184.912V140.816H229.486V90.3545C229.486 89.1077 228.475 88.0968 227.229 88.0967H184.91V86.9678H227.229Z" fill="#B2987E"/>
<path d="M90.3967 41.2488H35.0825C34.459 41.2488 33.9536 40.7434 33.9536 40.1199V37.2978C33.9536 36.6743 34.459 36.1689 35.0825 36.1689H85.3168C86.5637 36.1689 87.5745 35.1581 87.5745 33.9112V12.4628C87.5745 11.2159 88.5854 10.2051 89.8323 10.2051H238.278C239.525 10.2051 240.535 11.2159 240.535 12.4628V33.9112C240.535 35.1581 241.546 36.1689 242.793 36.1689H281.174C281.798 36.1689 282.303 36.6743 282.303 37.2978V40.1199C282.303 40.7434 281.798 41.2488 281.174 41.2488H237.713C236.466 41.2488 235.455 40.238 235.455 38.9911V17.5427C235.455 16.2958 234.445 15.285 233.198 15.285H94.9122C93.6652 15.285 92.6544 16.2958 92.6544 17.5427V38.9911C92.6544 40.238 91.6436 41.2488 90.3967 41.2488Z" fill="#B2987E" fill-opacity="0.3" stroke="#B2987E" stroke-width="1.12886"/>
<path d="M137.951 399.55L138.871 399.4V392.12L137.951 391.98V391.76H141.001C141.721 391.76 142.294 391.827 142.721 391.96C143.147 392.094 143.457 392.297 143.651 392.57C143.844 392.837 143.941 393.19 143.941 393.63C143.941 394.59 143.334 395.204 142.121 395.47V395.52C142.861 395.62 143.434 395.84 143.841 396.18C144.254 396.52 144.461 396.994 144.461 397.6C144.461 398.334 144.191 398.877 143.651 399.23C143.117 399.584 142.394 399.76 141.481 399.76H137.951V399.55ZM141.081 395.44C141.614 395.44 142.024 395.29 142.311 394.99C142.597 394.69 142.741 394.264 142.741 393.71V393.65C142.741 392.557 142.161 392.01 141.001 392.01H139.971V395.44H141.081ZM141.481 399.52C142.047 399.52 142.487 399.357 142.801 399.03C143.114 398.697 143.271 398.224 143.271 397.61V397.5C143.271 396.894 143.114 396.44 142.801 396.14C142.494 395.84 142.054 395.69 141.481 395.69H139.971V399.52H141.481ZM144.924 399.76V399.55L145.914 398.99L148.204 395.93L145.674 392.12L144.824 391.98V391.76H147.854V391.98L147.064 392.1L149.004 395.04L150.934 392.46L149.744 391.98V391.76H152.134V391.98L151.184 392.51L149.144 395.24L151.914 399.41L152.774 399.55V399.76H149.734V399.55L150.524 399.42L148.344 396.14L146.134 399.08L147.314 399.55V399.76H144.924ZM156.412 399.96C155.685 399.96 155.035 399.784 154.462 399.43C153.888 399.077 153.442 398.584 153.122 397.95C152.802 397.31 152.642 396.58 152.642 395.76C152.642 394.94 152.802 394.214 153.122 393.58C153.442 392.94 153.888 392.444 154.462 392.09C155.035 391.737 155.685 391.56 156.412 391.56C157.138 391.56 157.788 391.737 158.362 392.09C158.935 392.444 159.382 392.94 159.702 393.58C160.022 394.214 160.182 394.94 160.182 395.76C160.182 396.58 160.022 397.31 159.702 397.95C159.382 398.584 158.935 399.077 158.362 399.43C157.788 399.784 157.138 399.96 156.412 399.96ZM156.412 399.73C156.892 399.73 157.322 399.604 157.702 399.35C158.088 399.097 158.392 398.73 158.612 398.25C158.832 397.764 158.942 397.19 158.942 396.53V394.99C158.942 394.33 158.832 393.76 158.612 393.28C158.392 392.794 158.088 392.424 157.702 392.17C157.322 391.917 156.892 391.79 156.412 391.79C155.925 391.79 155.492 391.917 155.112 392.17C154.732 392.424 154.432 392.794 154.212 393.28C153.992 393.76 153.882 394.33 153.882 394.99V396.53C153.882 397.19 153.992 397.764 154.212 398.25C154.432 398.73 154.732 399.097 155.112 399.35C155.492 399.604 155.925 399.73 156.412 399.73ZM160.122 399.51H160.452C160.672 399.51 160.892 399.42 161.112 399.24C161.332 399.054 161.539 398.757 161.732 398.35C161.912 397.97 162.052 397.514 162.152 396.98C162.252 396.447 162.332 395.647 162.392 394.58L162.522 392.43L161.462 391.99V391.76H167.312V391.98L166.382 392.12V399.51H167.242L167.392 401.96H167.092L166.052 399.76H161.312L160.272 401.96H159.972L160.122 399.51ZM165.282 399.51V392.01H162.822L162.662 394.58C162.589 395.68 162.502 396.504 162.402 397.05C162.302 397.59 162.165 398.057 161.992 398.45C161.885 398.69 161.772 398.89 161.652 399.05C161.539 399.204 161.435 399.32 161.342 399.4C161.249 399.48 161.202 399.517 161.202 399.51H165.282Z" fill="#B2987E"/>
<circle cx="87" cy="116.045" r="2" fill="#00FF00" id="activityD"/>
<circle cx="230" cy="116.045" r="2" fill="#00FF00" id="activityA"/>
<circle cx="230" cy="278.045" r="2" fill="#00FF00" id="activityE"/>
<circle cx="14" cy="125.045" r="2" fill="#00FF00" id="activityF"/>
</svg>