<svg width="292" height="404" viewBox="0 0 292 404" fill="none" xmlns="http://www.w3.org/2000/svg">
<path d="M283.746 0C288.067 6.62041e-05 291.571 3.50443 291.571 7.82617V326.284H290.442V7.82617C290.442 4.12788 287.444 1.12897 283.746 1.12891H30.5591C27.4778 1.12904 24.9793 3.6277 24.979 6.70898V22.7412C24.979 23.4085 24.4383 23.95 23.771 23.9502C18.7099 23.9503 14.6065 28.0532 14.606 33.1143V59.8174C14.606 64.8788 18.7096 68.9823 23.771 68.9824C24.4381 68.9826 24.9787 69.5234 24.979 70.1904V98.9844C24.979 99.6517 24.4383 100.193 23.771 100.193C18.7097 100.193 14.6062 104.297 14.606 109.358V136.579C14.606 141.641 18.7096 145.744 23.771 145.744C24.438 145.744 24.9786 146.285 24.979 146.952V175.228C24.979 175.895 24.4383 176.436 23.771 176.437C18.7097 176.437 14.6062 180.54 14.606 185.602V212.822C14.606 217.884 18.7096 221.987 23.771 221.987C24.438 221.987 24.9785 222.528 24.979 223.195V251.472C24.9788 252.139 24.4381 252.68 23.771 252.68C18.7097 252.68 14.6062 256.784 14.606 261.845V289.065C14.606 294.127 18.7096 298.23 23.771 298.23C24.438 298.231 24.9785 298.772 24.979 299.438V328.233C24.9789 328.901 24.4382 329.441 23.771 329.441C18.7097 329.442 14.6062 333.545 14.606 338.606V365.309C14.606 370.37 18.7096 374.474 23.771 374.474C24.4381 374.474 24.9787 375.016 24.979 375.683V390.957C24.979 393.884 27.3526 396.258 30.2798 396.258H127.697V397.387H30.2798C26.7291 397.387 23.8501 394.508 23.8501 390.957V375.683C23.8498 375.639 23.8147 375.603 23.771 375.603C18.0861 375.602 13.4771 370.993 13.4771 365.309V338.606C13.4773 332.922 18.0863 328.313 23.771 328.312C23.8147 328.312 23.85 328.277 23.8501 328.233V299.438C23.8496 299.395 23.8145 299.36 23.771 299.359C18.0861 299.359 13.4771 294.75 13.4771 289.065V261.845C13.4773 256.16 18.0863 251.551 23.771 251.551C23.8147 251.551 23.8499 251.515 23.8501 251.472V223.195C23.8496 223.152 23.8145 223.116 23.771 223.116C18.0861 223.116 13.4771 218.507 13.4771 212.822V185.602C13.4773 179.917 18.0863 175.308 23.771 175.308C23.8148 175.307 23.8501 175.271 23.8501 175.228V146.952C23.8497 146.909 23.8146 146.873 23.771 146.873C18.0861 146.873 13.4771 142.264 13.4771 136.579V109.358C13.4773 103.674 18.0863 99.0646 23.771 99.0645C23.8148 99.0643 23.8501 99.0283 23.8501 98.9844V70.1904C23.8498 70.1468 23.8146 70.1115 23.771 70.1113C18.0862 70.1112 13.4771 65.5022 13.4771 59.8174V33.1143C13.4776 27.4298 18.0864 22.8214 23.771 22.8213C23.8148 22.8211 23.8501 22.7851 23.8501 22.7412V6.70898C23.8504 3.00425 26.8543 0.000133782 30.5591 0H283.746ZM291.571 389.561C291.571 393.883 288.068 397.387 283.746 397.387H177.489V396.258H283.746C287.444 396.258 290.442 393.259 290.442 389.561V375.038H291.571V389.561Z" fill="#B2987E"/>
<rect x="65.0464" y="119.14" width="185.589" height="185.589" rx="92.7947" stroke="#B2987E" stroke-width="1.12885"/>
<rect x="74.8427" y="128.937" width="165.995" height="165.995" rx="82.9977" stroke="#B2987E" stroke-width="1.12885"/>
<rect x="138.811" y="173.311" width="38.0589" height="77.2467" rx="2.54754" fill="#B2987E" fill-opacity="0.4" stroke="#B2987E" stroke-width="1.12885"/>
<rect x="47.8008" y="28.0082" width="21.6922" height="220.858" rx="2.54754" transform="rotate(-90 47.8008 28.0082)" fill="#B2987E" fill-opacity="0.3" stroke="#B2987E" stroke-width="1.12885"/>
<path d="M138.129 399.548L139.049 399.398V392.118L138.129 391.978V391.758H141.179C141.899 391.758 142.472 391.824 142.899 391.958C143.325 392.091 143.635 392.294 143.829 392.568C144.022 392.834 144.119 393.188 144.119 393.628C144.119 394.588 143.512 395.201 142.299 395.468V395.518C143.039 395.618 143.612 395.838 144.019 396.178C144.432 396.518 144.639 396.991 144.639 397.598C144.639 398.331 144.369 398.874 143.829 399.228C143.295 399.581 142.572 399.758 141.659 399.758H138.129V399.548ZM141.259 395.438C141.792 395.438 142.202 395.288 142.489 394.988C142.775 394.688 142.919 394.261 142.919 393.708V393.648C142.919 392.554 142.339 392.008 141.179 392.008H140.149V395.438H141.259ZM141.659 399.518C142.225 399.518 142.665 399.354 142.979 399.028C143.292 398.694 143.449 398.221 143.449 397.608V397.498C143.449 396.891 143.292 396.438 142.979 396.138C142.672 395.838 142.232 395.688 141.659 395.688H140.149V399.518H141.659ZM145.102 399.758V399.548L146.092 398.988L148.382 395.928L145.852 392.118L145.002 391.978V391.758H148.032V391.978L147.242 392.098L149.182 395.038L151.112 392.458L149.922 391.978V391.758H152.312V391.978L151.362 392.508L149.322 395.238L152.092 399.408L152.952 399.548V399.758H149.912V399.548L150.702 399.418L148.522 396.138L146.312 399.078L147.492 399.548V399.758H145.102ZM156.589 399.958C155.863 399.958 155.213 399.781 154.639 399.428C154.066 399.074 153.619 398.581 153.299 397.948C152.979 397.308 152.819 396.578 152.819 395.758C152.819 394.938 152.979 394.211 153.299 393.578C153.619 392.938 154.066 392.441 154.639 392.088C155.213 391.734 155.863 391.558 156.589 391.558C157.316 391.558 157.966 391.734 158.539 392.088C159.113 392.441 159.559 392.938 159.879 393.578C160.199 394.211 160.359 394.938 160.359 395.758C160.359 396.578 160.199 397.308 159.879 397.948C159.559 398.581 159.113 399.074 158.539 399.428C157.966 399.781 157.316 399.958 156.589 399.958ZM156.589 399.728C157.069 399.728 157.499 399.601 157.879 399.348C158.266 399.094 158.569 398.728 158.789 398.248C159.009 397.761 159.119 397.188 159.119 396.528V394.988C159.119 394.328 159.009 393.758 158.789 393.278C158.569 392.791 158.266 392.421 157.879 392.168C157.499 391.914 157.069 391.788 156.589 391.788C156.103 391.788 155.669 391.914 155.289 392.168C154.909 392.421 154.609 392.791 154.389 393.278C154.169 393.758 154.059 394.328 154.059 394.988V396.528C154.059 397.188 154.169 397.761 154.389 398.248C154.609 398.728 154.909 399.094 155.289 399.348C155.669 399.601 156.103 399.728 156.589 399.728ZM160.3 399.508H160.63C160.85 399.508 161.07 399.418 161.29 399.238C161.51 399.051 161.716 398.754 161.91 398.348C162.09 397.968 162.23 397.511 162.33 396.978C162.43 396.444 162.51 395.644 162.57 394.578L162.7 392.428L161.64 391.988V391.758H167.49V391.978L166.56 392.118V399.508H167.42L167.57 401.958H167.27L166.23 399.758H161.49L160.45 401.958H160.15L160.3 399.508ZM165.46 399.508V392.008H163L162.84 394.578C162.766 395.678 162.68 396.501 162.58 397.048C162.48 397.588 162.343 398.054 162.17 398.448C162.063 398.688 161.95 398.888 161.83 399.048C161.716 399.201 161.613 399.318 161.52 399.398C161.426 399.478 161.38 399.514 161.38 399.508H165.46Z" fill="#B2987E"/>
<rect x="139" y="14.0463" width="28" height="28" rx="14" fill="#B2987E"/>
<path d="M153.359 20.0463C153.359 20.5419 153.455 20.9029 153.689 21.1459C153.924 21.3881 154.358 21.5765 155.184 21.5765C155.846 21.5765 156.341 21.3986 156.881 21.2035C157.42 21.0086 158.004 20.7963 158.782 20.7963C159.982 20.7963 160.696 21.7522 160.596 22.7357C160.993 22.8855 161.284 23.1074 161.48 23.3802C161.715 23.7069 161.797 24.0776 161.797 24.4154C161.797 24.8819 161.697 25.2227 161.608 25.5355C161.521 25.8442 161.442 26.1324 161.442 26.5424C161.442 27.0793 161.533 27.3621 161.67 27.517C161.798 27.6617 162.029 27.7601 162.5 27.7601V28.3607C162.016 28.3607 161.79 28.4468 161.666 28.5814C161.535 28.7243 161.442 29.0007 161.442 29.5785C161.442 29.9457 161.519 30.1955 161.607 30.4984C161.698 30.8085 161.797 31.1587 161.797 31.6771C161.797 32.4755 161.275 33.102 160.616 33.3773C160.687 33.8479 160.517 34.2974 160.23 34.6371C159.886 35.0456 159.351 35.3246 158.782 35.3246C158.004 35.3245 157.42 35.1123 156.881 34.9174C156.341 34.7223 155.846 34.5454 155.184 34.5453C154.415 34.5453 153.974 34.7292 153.723 34.976C153.473 35.2215 153.359 35.5807 153.359 36.0463H152.759C152.759 35.5705 152.658 35.2131 152.425 34.9711C152.192 34.7304 151.771 34.5453 150.994 34.5453C150.295 34.5453 149.77 34.7233 149.203 34.9183C148.636 35.1133 148.027 35.3245 147.218 35.3246C146.682 35.3246 146.163 35.1091 145.813 34.7172C145.509 34.3754 145.347 33.9139 145.404 33.3832C144.466 33.014 144.203 32.2123 144.203 31.6771C144.203 31.2168 144.303 30.8645 144.392 30.5472C144.48 30.2303 144.558 29.9484 144.558 29.5785C144.558 29.0251 144.467 28.7441 144.332 28.5941C144.205 28.4535 143.976 28.3607 143.5 28.3607V27.7601L143.663 27.7552C144.02 27.733 144.213 27.6364 144.328 27.5043C144.469 27.3422 144.558 27.0549 144.558 26.5424C144.558 26.1665 144.479 25.8801 144.391 25.559C144.302 25.2373 144.203 24.8806 144.203 24.4154C144.203 23.5973 144.72 22.9591 145.395 22.7211C145.295 21.7688 146.071 20.7963 147.218 20.7963C148.025 20.7963 148.667 21.0063 149.252 21.2015C149.842 21.3986 150.364 21.5765 150.994 21.5765C151.763 21.5765 152.184 21.391 152.419 21.1469C152.626 20.9317 152.731 20.6252 152.754 20.224L152.759 20.0463H153.359ZM153.055 21.2972C152.997 21.3904 152.931 21.4803 152.852 21.5629C152.459 21.9712 151.848 22.1761 150.994 22.1761C150.252 22.1761 149.639 21.9638 149.062 21.7709C148.478 21.5761 147.918 21.3959 147.218 21.3959C146.336 21.3959 145.827 22.2132 146.028 22.849L146.133 23.1791L145.792 23.2357C145.25 23.3264 144.803 23.7903 144.803 24.4154C144.803 24.7912 144.881 25.0776 144.97 25.3988C145.058 25.7204 145.157 26.0772 145.157 26.5424C145.157 27.0935 145.068 27.566 144.781 27.8969C144.731 27.9546 144.675 28.0045 144.617 28.0502C144.674 28.0926 144.728 28.1384 144.777 28.1927C145.07 28.5179 145.157 28.9972 145.157 29.5785C145.157 30.0388 145.057 30.3911 144.969 30.7084C144.88 31.0253 144.803 31.3072 144.803 31.6771C144.803 32.0601 144.995 32.6667 145.821 32.892L146.102 32.9681L146.034 33.2513C145.924 33.7127 146.041 34.0724 146.261 34.3187C146.487 34.5721 146.838 34.725 147.218 34.725C147.917 34.7249 148.441 34.546 149.008 34.351C149.575 34.156 150.185 33.9447 150.994 33.9447C151.854 33.9448 152.466 34.1495 152.856 34.5541C152.941 34.642 153.01 34.7385 153.07 34.8383C153.136 34.7359 153.212 34.6377 153.303 34.5482C153.708 34.1499 154.329 33.9447 155.184 33.9447C155.962 33.9448 156.546 34.158 157.085 34.3529C157.625 34.548 158.12 34.7249 158.782 34.725C159.158 34.725 159.531 34.5367 159.772 34.2504C160.011 33.9672 160.1 33.6178 159.977 33.2865L159.859 32.972L160.185 32.89C160.755 32.747 161.197 32.2647 161.197 31.6771C161.197 31.2457 161.118 30.9614 161.032 30.6674C160.944 30.3661 160.843 30.0414 160.843 29.5785C160.843 28.9792 160.928 28.4959 161.225 28.1742C161.268 28.1274 161.315 28.0875 161.364 28.0502C161.314 28.0098 161.265 27.9655 161.221 27.9154C160.93 27.588 160.843 27.1116 160.843 26.5424C160.843 26.0449 160.942 25.6901 161.031 25.3724C161.12 25.0589 161.197 24.79 161.197 24.4154C161.197 24.1717 161.138 23.9316 160.993 23.7299C160.85 23.5311 160.604 23.3427 160.181 23.2299L159.892 23.1527L159.968 22.8636C160.156 22.1499 159.681 21.3959 158.782 21.3959C158.12 21.3959 157.625 21.5729 157.085 21.7679C156.546 21.9629 155.962 22.1761 155.184 22.1761C154.283 22.1761 153.654 21.9731 153.258 21.5629C153.178 21.4802 153.112 21.3904 153.055 21.2972ZM158.841 24.0463C158.841 23.8254 158.662 23.646 158.441 23.6459H147.5C147.279 23.6459 147.1 23.8254 147.1 24.0463V32.0463C147.1 32.2672 147.279 32.4467 147.5 32.4467H158.441C158.662 32.4465 158.841 32.2671 158.841 32.0463V24.0463ZM159.441 32.0463L159.436 32.1488C159.388 32.6194 159.014 32.9938 158.543 33.0414L158.441 33.0463H147.5C146.982 33.0463 146.556 32.6529 146.505 32.1488L146.5 32.0463V24.0463L146.505 23.9437C146.556 23.4396 146.982 23.0463 147.5 23.0463H158.441L158.543 23.0511C159.014 23.0987 159.388 23.4731 159.436 23.9437L159.441 24.0463V32.0463Z" fill="#FFFCF8"/>
<rect x="0.75" y="261.796" width="26.5" height="26.5" rx="13.25" fill="#FEFEFC"/>
<rect x="0.75" y="261.796" width="26.5" height="26.5" rx="13.25" stroke="#B2987E" stroke-width="1.5"/>
<path d="M7 275.046L12 280.046L21 271.046" stroke="#B2987E" stroke-width="1.5" stroke-linecap="round" stroke-linejoin="round"/>
</svg>
