<svg width="24" height="24" viewBox="0 0 24 24" fill="none" xmlns="http://www.w3.org/2000/svg">
  <path d="M11 5V19L7 15H4C3.73478 15 3.48043 14.8946 3.29289 14.7071C3.10536 14.5196 3 14.2652 3 14V10C3 9.73478 3.10536 9.48043 3.29289 9.29289C3.48043 9.10536 3.73478 9 4 9H7L11 5Z" stroke="#FFFCF8" stroke-width="1.5" stroke-linecap="round" stroke-linejoin="round"/>
  <path d="M18.3601 5.63989C20.0455 7.3274 20.9922 9.61488 20.9922 11.9999C20.9922 14.3849 20.0455 16.6724 18.3601 18.3599" stroke="#FFFCF8" stroke-width="1.5" stroke-linecap="round" stroke-linejoin="round"/>
  <path d="M15.54 8.45996C16.0057 8.92442 16.3751 9.47617 16.6272 10.0836C16.8792 10.6911 17.009 11.3423 17.009 12C17.009 12.6576 16.8792 13.3088 16.6272 13.9163C16.3751 14.5237 16.0057 15.0755 15.54 15.54" stroke="#FFFCF8" stroke-width="1.5" stroke-linecap="round" stroke-linejoin="round"/>
</svg>
