<svg width="281" height="187" viewBox="0 0 281 187" fill="none" xmlns="http://www.w3.org/2000/svg">
<path d="M272.344 0C276.666 6.62066e-05 280.169 3.50421 280.169 7.82617V326.284H279.04V7.82617C279.04 4.12765 276.043 1.12897 272.344 1.12891H19.1576C16.0761 1.12904 13.5775 3.62747 13.5775 6.70898V22.7412C13.5775 23.4085 13.0368 23.95 12.3695 23.9502C7.30823 23.9503 3.20471 28.053 3.20447 33.1143V59.8174C3.20451 64.8788 7.30811 68.9823 12.3695 68.9824C13.0368 68.9826 13.5775 69.5231 13.5775 70.1904V98.9844C13.5775 99.6517 13.0368 100.193 12.3695 100.193C7.30809 100.193 3.20447 104.297 3.20447 109.358V136.579C3.20447 141.641 7.30809 145.744 12.3695 145.744C13.0367 145.744 13.5774 146.285 13.5775 146.952V175.228C13.5775 175.895 13.0368 176.436 12.3695 176.437C7.30809 176.437 3.20447 180.54 3.20447 185.602V212.822C3.20447 217.884 7.30809 221.987 12.3695 221.987C13.0367 221.987 13.5773 222.528 13.5775 223.195V251.472C13.5773 252.139 13.0366 252.68 12.3695 252.68C7.30809 252.68 3.20447 256.783 3.20447 261.845V289.065C3.20447 294.127 7.30809 298.23 12.3695 298.23C13.0366 298.231 13.5773 298.771 13.5775 299.438V328.233C13.5774 328.901 13.0367 329.441 12.3695 329.441C7.30809 329.442 3.20447 333.545 3.20447 338.606V365.309C3.20447 370.37 7.30809 374.474 12.3695 374.474C13.0368 374.474 13.5775 375.015 13.5775 375.683V390.957C13.5775 393.884 15.9511 396.258 18.8783 396.258H116.295V397.387H18.8783C15.3276 397.387 12.4486 394.508 12.4486 390.957V375.683C12.4486 375.639 12.4133 375.603 12.3695 375.603C6.68464 375.602 2.07556 370.993 2.07556 365.309V338.606C2.07556 332.922 6.68464 328.313 12.3695 328.312C12.4133 328.312 12.4485 328.277 12.4486 328.233V299.438C12.4484 299.395 12.4132 299.36 12.3695 299.359C6.68464 299.359 2.07556 294.75 2.07556 289.065V261.845C2.07556 256.16 6.68464 251.551 12.3695 251.551C12.4132 251.551 12.4484 251.515 12.4486 251.472V223.195C12.4484 223.152 12.4132 223.116 12.3695 223.116C6.68464 223.116 2.07556 218.507 2.07556 212.822V185.602C2.07556 179.917 6.68464 175.308 12.3695 175.308C12.4133 175.307 12.4486 175.271 12.4486 175.228V146.952C12.4485 146.908 12.4132 146.873 12.3695 146.873C6.68464 146.873 2.07556 142.264 2.07556 136.579V109.358C2.07556 103.674 6.68464 99.0646 12.3695 99.0645C12.4133 99.0643 12.4486 99.0283 12.4486 98.9844V70.1904C12.4486 70.1466 12.4133 70.1115 12.3695 70.1113C6.68467 70.1112 2.07561 65.5022 2.07556 59.8174V33.1143C2.0758 27.4296 6.68479 22.8214 12.3695 22.8213C12.4133 22.8211 12.4486 22.7851 12.4486 22.7412V6.70898C12.4486 3.00402 15.4527 0.000131961 19.1576 0H272.344ZM280.169 389.561C280.169 393.883 276.666 397.387 272.344 397.387H166.087V396.258H272.344C276.043 396.258 279.04 393.259 279.04 389.561V375.038H280.169V389.561Z" fill="#B2987E"/>
<rect x="53.6449" y="119.141" width="185.589" height="185.589" rx="92.7947" stroke="#B2987E" stroke-width="1.12885"/>
<rect x="63.4411" y="128.937" width="165.995" height="165.995" rx="82.9977" stroke="#B2987E" stroke-width="1.12885"/>
<rect x="127.41" y="173.312" width="38.0589" height="77.2467" rx="2.54754" fill="#B2987E" fill-opacity="0.4" stroke="#B2987E" stroke-width="1.12885"/>
<rect x="36.3996" y="28.0098" width="21.6922" height="220.858" rx="2.54754" transform="rotate(-90 36.3996 28.0098)" fill="#B2987E" fill-opacity="0.3" stroke="#B2987E" stroke-width="1.12885"/>
<rect x="127.599" y="14.0469" width="28" height="28" rx="14" fill="#B2987E"/>
<path d="M141.958 20.0469C141.958 20.5425 142.053 20.9035 142.288 21.1465C142.522 21.3887 142.956 21.5771 143.782 21.5771C144.445 21.5771 144.94 21.3992 145.479 21.2041C146.019 21.0092 146.603 20.7969 147.381 20.7969C148.581 20.7969 149.295 21.7528 149.194 22.7363C149.592 22.8861 149.883 23.108 150.079 23.3809C150.314 23.7075 150.396 24.0782 150.396 24.416C150.395 24.8825 150.295 25.2233 150.207 25.5361C150.12 25.8449 150.041 26.133 150.041 26.543C150.041 27.0799 150.131 27.3627 150.269 27.5176C150.397 27.6623 150.628 27.7607 151.099 27.7607V28.3613C150.615 28.3613 150.389 28.4474 150.265 28.582C150.133 28.7249 150.041 29.0013 150.041 29.5791C150.041 29.9463 150.117 30.1961 150.206 30.499C150.297 30.8092 150.395 31.1593 150.396 31.6777C150.396 32.4762 149.874 33.1026 149.215 33.3779C149.285 33.8485 149.116 34.298 148.829 34.6377C148.484 35.0462 147.949 35.3252 147.381 35.3252C146.603 35.3251 146.019 35.1129 145.479 34.918C144.94 34.7229 144.445 34.546 143.782 34.5459C143.014 34.5459 142.572 34.7298 142.321 34.9766C142.071 35.2222 141.958 35.5813 141.958 36.0469H141.357C141.357 35.5711 141.257 35.2137 141.023 34.9717C140.791 34.731 140.369 34.546 139.593 34.5459C138.894 34.5459 138.369 34.7239 137.802 34.9189C137.235 35.1139 136.626 35.3251 135.816 35.3252C135.281 35.3252 134.762 35.1097 134.412 34.7178C134.108 34.376 133.946 33.9145 134.003 33.3838C133.064 33.0146 132.802 32.2129 132.802 31.6777C132.802 31.2175 132.902 30.8651 132.99 30.5479C133.079 30.2309 133.156 29.949 133.156 29.5791C133.156 29.0257 133.066 28.7447 132.931 28.5947C132.804 28.4542 132.575 28.3613 132.099 28.3613V27.7607L132.262 27.7559C132.619 27.7337 132.812 27.637 132.927 27.5049C133.067 27.3428 133.156 27.0555 133.156 26.543C133.156 26.1671 133.078 25.8807 132.989 25.5596C132.901 25.2379 132.802 24.8812 132.802 24.416C132.802 23.5979 133.318 22.9597 133.993 22.7217C133.894 21.7694 134.67 20.7969 135.816 20.7969C136.624 20.7969 137.266 21.007 137.851 21.2021C138.441 21.3993 138.963 21.5771 139.593 21.5771C140.361 21.5771 140.783 21.3916 141.018 21.1475C141.224 20.9323 141.329 20.6258 141.353 20.2246L141.357 20.0469H141.958ZM141.653 21.2979C141.595 21.3911 141.529 21.481 141.45 21.5635C141.058 21.9718 140.446 22.1767 139.593 22.1768C138.851 22.1768 138.238 21.9644 137.66 21.7715C137.077 21.5767 136.517 21.3965 135.816 21.3965C134.934 21.3965 134.425 22.2138 134.627 22.8496L134.731 23.1797L134.391 23.2363C133.848 23.327 133.401 23.7909 133.401 24.416C133.401 24.7919 133.48 25.0783 133.568 25.3994C133.657 25.721 133.756 26.0778 133.756 26.543C133.756 27.0942 133.667 27.5666 133.38 27.8975C133.33 27.9552 133.274 28.0052 133.216 28.0508C133.272 28.0932 133.327 28.139 133.376 28.1934C133.669 28.5185 133.756 28.9978 133.756 29.5791C133.756 30.0394 133.656 30.3917 133.567 30.709C133.479 31.0259 133.401 31.3078 133.401 31.6777C133.401 32.0607 133.594 32.6673 134.42 32.8926L134.7 32.9688L134.633 33.252C134.522 33.7134 134.64 34.073 134.859 34.3193C135.085 34.5727 135.437 34.7256 135.816 34.7256C136.515 34.7255 137.039 34.5466 137.606 34.3516C138.173 34.1566 138.783 33.9453 139.593 33.9453C140.453 33.9454 141.064 34.1501 141.455 34.5547C141.54 34.6426 141.609 34.7391 141.669 34.8389C141.734 34.7366 141.81 34.6383 141.901 34.5488C142.307 34.1505 142.928 33.9453 143.782 33.9453C144.56 33.9454 145.144 34.1586 145.684 34.3535C146.223 34.5486 146.719 34.7255 147.381 34.7256C147.756 34.7256 148.129 34.5373 148.371 34.251C148.61 33.9678 148.699 33.6184 148.575 33.2871L148.458 32.9727L148.783 32.8906C149.353 32.7477 149.796 32.2653 149.796 31.6777C149.796 31.2463 149.717 30.962 149.631 30.668C149.543 30.3667 149.441 30.042 149.441 29.5791C149.441 28.9798 149.527 28.4965 149.823 28.1748C149.866 28.128 149.914 28.0881 149.963 28.0508C149.912 28.0104 149.864 27.9661 149.819 27.916C149.529 27.5886 149.441 27.1122 149.441 26.543C149.441 26.0455 149.54 25.6907 149.63 25.373C149.718 25.0595 149.796 24.7906 149.796 24.416C149.796 24.1723 149.737 23.9322 149.592 23.7305C149.449 23.5317 149.203 23.3433 148.779 23.2305L148.49 23.1533L148.566 22.8643C148.755 22.1505 148.28 21.3965 147.381 21.3965C146.719 21.3966 146.223 21.5735 145.684 21.7686C145.144 21.9635 144.56 22.1767 143.782 22.1768C142.882 22.1768 142.253 21.9737 141.856 21.5635C141.777 21.4808 141.711 21.391 141.653 21.2979ZM147.439 24.0469C147.439 23.826 147.261 23.6466 147.04 23.6465H136.099C135.878 23.6465 135.698 23.826 135.698 24.0469V32.0469C135.698 32.2678 135.878 32.4473 136.099 32.4473H147.04C147.261 32.4471 147.439 32.2677 147.439 32.0469V24.0469ZM148.04 32.0469L148.034 32.1494C147.986 32.6201 147.612 32.9944 147.142 33.042L147.04 33.0469H136.099C135.581 33.0469 135.155 32.6535 135.104 32.1494L135.099 32.0469V24.0469L135.104 23.9443C135.155 23.4402 135.581 23.0469 136.099 23.0469H147.04L147.142 23.0518C147.612 23.0993 147.986 23.4737 148.034 23.9443L148.04 24.0469V32.0469Z" fill="#FFFCF8"/>
</svg>