<svg width="293" height="186" viewBox="0 0 293 186" fill="none" xmlns="http://www.w3.org/2000/svg">
<g clip-path="url(#clip0_27_1099)">
<path d="M283.745 -217.046C288.067 -217.046 291.571 -213.542 291.571 -209.22V109.238H290.442V-209.22C290.442 -212.918 287.444 -215.917 283.745 -215.917H30.559C27.4775 -215.917 24.9789 -213.418 24.9789 -210.337V-194.305C24.9789 -193.637 24.4382 -193.096 23.7709 -193.096C18.7096 -193.096 14.6061 -188.993 14.6058 -183.932V-157.229C14.6059 -152.167 18.7095 -148.064 23.7709 -148.063C24.4381 -148.063 24.9788 -147.523 24.9789 -146.855V-118.062C24.9789 -117.394 24.4382 -116.853 23.7709 -116.853C18.7095 -116.852 14.6058 -112.749 14.6058 -107.688V-80.4668C14.6058 -75.4053 18.7095 -71.3019 23.7709 -71.3018C24.4381 -71.3016 24.9787 -70.7609 24.9789 -70.0938V-41.8184C24.9789 -41.151 24.4382 -40.6096 23.7709 -40.6094C18.7095 -40.6092 14.6058 -36.5058 14.6058 -31.4443V-4.22363C14.6058 0.837814 18.7095 4.94127 23.7709 4.94141C24.438 4.94159 24.9787 5.48225 24.9789 6.14941V34.4258C24.9786 35.0929 24.438 35.6336 23.7709 35.6338C18.7095 35.6339 14.6058 39.7374 14.6058 44.7988V72.0195C14.6058 77.081 18.7095 81.1844 23.7709 81.1846C24.438 81.1848 24.9786 81.7255 24.9789 82.3926V111.188C24.9787 111.855 24.4381 112.395 23.7709 112.396C18.7095 112.396 14.6058 116.499 14.6058 121.561V148.263C14.6058 153.324 18.7095 157.428 23.7709 157.428C24.4382 157.428 24.9789 157.969 24.9789 158.637V173.911C24.9789 176.838 27.3524 179.212 30.2797 179.212H127.697V180.341H30.2797C26.729 180.341 23.85 177.462 23.85 173.911V158.637C23.85 158.593 23.8147 158.557 23.7709 158.557C18.086 158.557 13.4769 153.948 13.4769 148.263V121.561C13.4769 115.876 18.086 111.267 23.7709 111.267C23.8146 111.266 23.8498 111.231 23.85 111.188V82.3926C23.8497 82.3489 23.8146 82.3137 23.7709 82.3135C18.086 82.3134 13.4769 77.7044 13.4769 72.0195V44.7988C13.4769 39.1139 18.086 34.505 23.7709 34.5049C23.8146 34.5047 23.8497 34.4695 23.85 34.4258V6.14941C23.8498 6.10571 23.8146 6.0705 23.7709 6.07031C18.086 6.07018 13.4769 1.46127 13.4769 -4.22363V-31.4443C13.4769 -37.1292 18.086 -41.7381 23.7709 -41.7383C23.8147 -41.7385 23.85 -41.7745 23.85 -41.8184V-70.0938C23.8498 -70.1375 23.8146 -70.1727 23.7709 -70.1729C18.086 -70.173 13.4769 -74.7819 13.4769 -80.4668V-107.688C13.4769 -113.372 18.086 -117.981 23.7709 -117.981C23.8147 -117.982 23.85 -118.018 23.85 -118.062V-146.855C23.8499 -146.899 23.8147 -146.934 23.7709 -146.935C18.086 -146.935 13.477 -151.544 13.4769 -157.229V-183.932C13.4772 -189.616 18.0862 -194.224 23.7709 -194.225C23.8147 -194.225 23.85 -194.261 23.85 -194.305V-210.337C23.85 -214.042 26.854 -217.046 30.559 -217.046H283.745ZM291.571 172.515C291.571 176.837 288.067 180.341 283.745 180.341H177.489V179.212H283.745C287.444 179.212 290.442 176.213 290.442 172.515V157.992H291.571V172.515Z" fill="#B2987E"/>
<rect x="65.0462" y="-97.9063" width="185.589" height="185.589" rx="92.7947" stroke="#B2987E" stroke-width="1.12885"/>
<rect x="74.8425" y="-88.1094" width="165.995" height="165.995" rx="82.9977" stroke="#B2987E" stroke-width="1.12885"/>
<rect x="138.811" y="-43.7354" width="38.0589" height="77.2467" rx="2.54754" fill="#B2987E" fill-opacity="0.4" stroke="#B2987E" stroke-width="1.12885"/>
<path d="M138.129 182.501L139.049 182.351V175.071L138.129 174.931V174.711H141.179C141.899 174.711 142.472 174.778 142.899 174.911C143.325 175.044 143.635 175.248 143.829 175.521C144.022 175.788 144.119 176.141 144.119 176.581C144.119 177.541 143.512 178.154 142.299 178.421V178.471C143.039 178.571 143.612 178.791 144.019 179.131C144.432 179.471 144.639 179.944 144.639 180.551C144.639 181.284 144.369 181.828 143.829 182.181C143.295 182.534 142.572 182.711 141.659 182.711H138.129V182.501ZM141.259 178.391C141.792 178.391 142.202 178.241 142.489 177.941C142.775 177.641 142.919 177.214 142.919 176.661V176.601C142.919 175.508 142.339 174.961 141.179 174.961H140.149V178.391H141.259ZM141.659 182.471C142.225 182.471 142.665 182.308 142.979 181.981C143.292 181.648 143.449 181.174 143.449 180.561V180.451C143.449 179.844 143.292 179.391 142.979 179.091C142.672 178.791 142.232 178.641 141.659 178.641H140.149V182.471H141.659ZM145.102 182.711V182.501L146.092 181.941L148.382 178.881L145.852 175.071L145.002 174.931V174.711H148.032V174.931L147.242 175.051L149.182 177.991L151.112 175.411L149.922 174.931V174.711H152.312V174.931L151.362 175.461L149.322 178.191L152.092 182.361L152.952 182.501V182.711H149.912V182.501L150.702 182.371L148.522 179.091L146.312 182.031L147.492 182.501V182.711H145.102ZM156.589 182.911C155.863 182.911 155.213 182.734 154.639 182.381C154.066 182.028 153.619 181.534 153.299 180.901C152.979 180.261 152.819 179.531 152.819 178.711C152.819 177.891 152.979 177.164 153.299 176.531C153.619 175.891 154.066 175.394 154.639 175.041C155.213 174.688 155.863 174.511 156.589 174.511C157.316 174.511 157.966 174.688 158.539 175.041C159.113 175.394 159.559 175.891 159.879 176.531C160.199 177.164 160.359 177.891 160.359 178.711C160.359 179.531 160.199 180.261 159.879 180.901C159.559 181.534 159.113 182.028 158.539 182.381C157.966 182.734 157.316 182.911 156.589 182.911ZM156.589 182.681C157.069 182.681 157.499 182.554 157.879 182.301C158.266 182.048 158.569 181.681 158.789 181.201C159.009 180.714 159.119 180.141 159.119 179.481V177.941C159.119 177.281 159.009 176.711 158.789 176.231C158.569 175.744 158.266 175.374 157.879 175.121C157.499 174.868 157.069 174.741 156.589 174.741C156.103 174.741 155.669 174.868 155.289 175.121C154.909 175.374 154.609 175.744 154.389 176.231C154.169 176.711 154.059 177.281 154.059 177.941V179.481C154.059 180.141 154.169 180.714 154.389 181.201C154.609 181.681 154.909 182.048 155.289 182.301C155.669 182.554 156.103 182.681 156.589 182.681ZM160.3 182.461H160.63C160.85 182.461 161.07 182.371 161.29 182.191C161.51 182.004 161.716 181.708 161.91 181.301C162.09 180.921 162.23 180.464 162.33 179.931C162.43 179.398 162.51 178.598 162.57 177.531L162.7 175.381L161.64 174.941V174.711H167.49V174.931L166.56 175.071V182.461H167.42L167.57 184.911H167.27L166.23 182.711H161.49L160.45 184.911H160.15L160.3 182.461ZM165.46 182.461V174.961H163L162.84 177.531C162.766 178.631 162.68 179.454 162.58 180.001C162.48 180.541 162.343 181.008 162.17 181.401C162.063 181.641 161.95 181.841 161.83 182.001C161.716 182.154 161.613 182.271 161.52 182.351C161.426 182.431 161.38 182.468 161.38 182.461H165.46Z" fill="#B2987E"/>
</g>
<rect y="43" width="28" height="28" rx="14" fill="#B2987E"/>
<path d="M14.3594 49C14.3594 49.4956 14.4548 49.8566 14.6895 50.0996C14.9236 50.3418 15.3578 50.5303 16.1836 50.5303C16.846 50.5302 17.3411 50.3523 17.8809 50.1572C18.4201 49.9623 19.0041 49.7501 19.7822 49.75C20.982 49.75 21.6962 50.7059 21.5957 51.6895C21.9935 51.8393 22.2843 52.0611 22.4805 52.334C22.7152 52.6606 22.7969 53.0313 22.7969 53.3691C22.7968 53.8356 22.6968 54.1764 22.6084 54.4893C22.5212 54.798 22.4424 55.0861 22.4424 55.4961C22.4424 56.033 22.5327 56.3159 22.6699 56.4707C22.7983 56.6155 23.0289 56.7139 23.5 56.7139V57.3145C23.016 57.3145 22.79 57.4005 22.666 57.5352C22.5345 57.6781 22.4424 57.9544 22.4424 58.5322C22.4424 58.8995 22.5187 59.1493 22.6074 59.4521C22.6982 59.7623 22.7968 60.1124 22.7969 60.6309C22.7969 61.4293 22.2752 62.0557 21.6162 62.3311C21.6865 62.8016 21.5171 63.2511 21.2305 63.5908C20.8857 63.9993 20.3506 64.2783 19.7822 64.2783C19.0041 64.2783 18.4201 64.066 17.8809 63.8711C17.3411 63.676 16.846 63.4991 16.1836 63.499C15.4155 63.499 14.9737 63.6829 14.7227 63.9297C14.4728 64.1753 14.3594 64.5344 14.3594 65H13.7588C13.7588 64.5243 13.6585 64.1669 13.4248 63.9248C13.1923 63.6841 12.7708 63.4991 11.9941 63.499C11.2952 63.499 10.7702 63.677 10.2031 63.8721C9.63634 64.067 9.02702 64.2783 8.21777 64.2783C7.68247 64.2783 7.16289 64.0629 6.81348 63.6709C6.50888 63.3291 6.34735 62.8676 6.4043 62.3369C5.46585 61.9677 5.20312 61.166 5.20312 60.6309C5.20317 60.1706 5.30308 59.8182 5.3916 59.501C5.48004 59.184 5.55757 58.9021 5.55762 58.5322C5.55762 57.9788 5.46709 57.6979 5.33203 57.5479C5.20542 57.4073 4.97608 57.3145 4.5 57.3145V56.7139L4.66309 56.709C5.02008 56.6868 5.21331 56.5901 5.32812 56.458C5.46879 56.2959 5.55762 56.0087 5.55762 55.4961C5.55757 55.1203 5.47902 54.8338 5.39062 54.5127C5.3021 54.1911 5.20317 53.8343 5.20312 53.3691C5.20313 52.551 5.71975 51.9129 6.39453 51.6748C6.29494 50.7225 7.071 49.75 8.21777 49.75C9.02522 49.7501 9.66743 49.9601 10.252 50.1553C10.8422 50.3524 11.3645 50.5303 11.9941 50.5303C12.7627 50.5302 13.1844 50.3447 13.4189 50.1006C13.6255 49.8855 13.7307 49.579 13.7539 49.1777L13.7588 49H14.3594ZM14.0547 50.251C13.9966 50.3442 13.9308 50.4341 13.8516 50.5166C13.4593 50.9249 12.8478 51.1298 11.9941 51.1299C11.252 51.1299 10.6393 50.9175 10.0615 50.7246C9.47817 50.5298 8.91835 50.3497 8.21777 50.3496C7.33582 50.3496 6.82667 51.1669 7.02832 51.8027L7.13281 52.1328L6.79199 52.1895C6.2495 52.2802 5.80273 52.744 5.80273 53.3691C5.80278 53.745 5.88133 54.0314 5.96973 54.3525C6.05826 54.6742 6.15718 55.0309 6.15723 55.4961C6.15723 56.0473 6.06828 56.5198 5.78125 56.8506C5.73116 56.9083 5.67549 56.9583 5.61719 57.0039C5.6737 57.0464 5.72836 57.0921 5.77734 57.1465C6.07008 57.4716 6.15723 57.9509 6.15723 58.5322C6.15718 58.9925 6.05728 59.3449 5.96875 59.6621C5.88031 59.9791 5.80278 60.261 5.80273 60.6309C5.80273 61.0138 5.9952 61.6204 6.82129 61.8457L7.10156 61.9219L7.03418 62.2051C6.92352 62.6665 7.04113 63.0261 7.26074 63.2725C7.48664 63.5259 7.83849 63.6787 8.21777 63.6787C8.91653 63.6786 9.44084 63.4997 10.0078 63.3047C10.5747 63.1097 11.1847 62.8984 11.9941 62.8984C12.8545 62.8985 13.4657 63.1032 13.8564 63.5078C13.9413 63.5957 14.01 63.6922 14.0703 63.792C14.1358 63.6897 14.2117 63.5914 14.3027 63.502C14.7081 63.1037 15.3294 62.8984 16.1836 62.8984C16.9618 62.8985 17.5457 63.1117 18.085 63.3066C18.6247 63.5017 19.1199 63.6786 19.7822 63.6787C20.1577 63.6787 20.5308 63.4905 20.7725 63.2041C21.0114 62.9209 21.1002 62.5716 20.9766 62.2402L20.8594 61.9258L21.1846 61.8438C21.7545 61.7008 22.1973 61.2184 22.1973 60.6309C22.1972 60.1994 22.1183 59.9152 22.0322 59.6211C21.944 59.3198 21.8428 58.9951 21.8428 58.5322C21.8428 57.933 21.9284 57.4496 22.2246 57.1279C22.2677 57.0811 22.3154 57.0413 22.3643 57.0039C22.3135 56.9636 22.2651 56.9192 22.2207 56.8691C21.9303 56.5417 21.8428 56.0653 21.8428 55.4961C21.8428 54.9987 21.9415 54.6438 22.0312 54.3262C22.1198 54.0127 22.1972 53.7437 22.1973 53.3691C22.1973 53.1254 22.1382 52.8853 21.9932 52.6836C21.8502 52.4849 21.6042 52.2964 21.1807 52.1836L20.8916 52.1064L20.9678 51.8174C21.1563 51.1036 20.6811 50.3496 19.7822 50.3496C19.1199 50.3497 18.6247 50.5266 18.085 50.7217C17.5457 50.9166 16.9618 51.1298 16.1836 51.1299C15.2834 51.1299 14.6543 50.9269 14.2578 50.5166C14.178 50.434 14.1123 50.3442 14.0547 50.251ZM19.8408 53C19.8408 52.7792 19.6622 52.5997 19.4414 52.5996H8.5C8.27909 52.5996 8.09961 52.7791 8.09961 53V61C8.09961 61.2209 8.27909 61.4004 8.5 61.4004H19.4414C19.6622 61.4003 19.8408 61.2208 19.8408 61V53ZM20.4414 61L20.4355 61.1025C20.3876 61.5732 20.0137 61.9475 19.543 61.9951L19.4414 62H8.5C7.98232 62 7.55621 61.6067 7.50488 61.1025L7.5 61V53L7.50488 52.8975C7.55622 52.3933 7.98232 52 8.5 52H19.4414L19.543 52.0049C20.0137 52.0525 20.3876 52.4268 20.4355 52.8975L20.4414 53V61Z" fill="#FFFCF8"/>
<defs>
<clipPath id="clip0_27_1099">
<rect width="280" height="186" fill="white" transform="translate(13)"/>
</clipPath>
</defs>
</svg>