<svg width="248" height="642" viewBox="0 0 248 642" fill="none" xmlns="http://www.w3.org/2000/svg" xmlns:xlink="http://www.w3.org/1999/xlink">
    <g filter="url(#filter0_d_1768_10921)">
        <path d="M165.29 582.292L165.29 421.77L122.713 421.77L122.713 582.292L165.29 582.292Z" fill="#252627"/>
        <path d="M132.055 388.314L203.731 388.314L203.731 199.607L132.055 199.607L132.055 388.314Z" fill="#252627"/>
        <path fill-rule="evenodd" clip-rule="evenodd" d="M79.291 407.383L79.293 346.438L121.863 346.438L121.863 308.44L104.027 308.44L104.027 226.682L121.863 226.682L121.863 184.363L92.5057 184.363L92.5056 84.2477L92.5056 59.292L165.29 59.292L165.29 184.363L203.731 184.363L203.731 199.607L132.055 199.607L132.055 388.314L203.731 388.314L203.731 405.232L122.713 405.232L122.713 421.77L122.713 582.292L89.293 582.292L89.293 494.365L59.2891 494.365L59.29 407.383L79.291 407.383Z" fill="#1B1C1D"/>
        <path d="M165.29 421.77L203.731 421.77L203.731 405.232L122.713 405.232L122.713 421.77L165.29 421.77Z" fill="#252627"/>
        <path d="M89.293 582.292L165.29 582.292M89.293 582.292L122.713 582.292M89.293 582.292L89.293 494.365L59.2891 494.365L59.29 407.383L79.291 407.383L79.293 346.438L121.863 346.438L121.863 308.44L104.027 308.44L104.027 226.682L121.863 226.682L121.863 184.363M121.863 184.363L92.5057 184.363L92.5056 84.2477L92.5056 59.292L165.29 59.292L165.29 184.363M121.863 184.363L136.061 184.363L165.29 184.363M165.29 184.363L203.731 184.363L203.731 199.607M165.29 421.77L203.731 421.77L203.731 405.232M165.29 421.77L165.29 582.292M165.29 421.77L122.713 421.77M165.29 582.292L122.713 582.292M122.713 582.292L122.713 421.77M122.713 421.77L122.713 405.232L203.731 405.232M203.731 388.314L132.055 388.314L132.055 199.607L203.731 199.607M203.731 388.314L203.731 199.607M203.731 388.314L203.731 405.232" stroke="#656565"/>
    </g>
    <rect x="123.438" y="406.232" width="79" height="15" fill="url(#pattern0_1768_10921)"/>
    <rect x="132.945" y="200.484" width="69.8503" height="186.922" fill="url(#pattern1_1768_10921)"/>
    <rect x="123.766" y="422.494" width="40.6178" height="158.999" fill="url(#pattern2_1768_10921)"/>
    <rect width="71.54" height="123.535" transform="matrix(-0.999999 0.0013577 0.0013577 0.999999 164.609 59.8438)" fill="url(#pattern3_1768_10921)"/>
    <rect opacity="0.5" x="110.438" y="233.232" width="12.5976" height="3.87619" fill="#C5C5C5"/>
    <rect opacity="0.5" x="110.438" y="236.139" width="12.5976" height="3.87619" fill="#C5C5C5"/>
    <rect opacity="0.5" x="110.438" y="239.046" width="12.5976" height="3.87619" fill="#C5C5C5"/>
    <rect opacity="0.5" x="110.438" y="241.954" width="12.5976" height="3.87619" fill="#C5C5C5"/>
    <rect opacity="0.5" x="110.438" y="244.86" width="12.5976" height="3.87619" fill="#C5C5C5"/>
    <rect opacity="0.5" x="110.438" y="247.768" width="12.5976" height="3.87619" fill="#C5C5C5"/>
    <rect opacity="0.5" x="110.438" y="250.675" width="12.5976" height="3.87619" fill="#C5C5C5"/>
    <rect opacity="0.5" x="88.4375" y="374.232" width="12.5976" height="3.87619" fill="#C5C5C5"/>
    <rect opacity="0.5" x="88.4375" y="377.139" width="12.5976" height="3.87619" fill="#C5C5C5"/>
    <rect opacity="0.5" x="88.4375" y="380.046" width="12.5976" height="3.87619" fill="#C5C5C5"/>
    <rect opacity="0.5" x="88.4375" y="382.953" width="12.5976" height="3.87619" fill="#C5C5C5"/>
    <rect opacity="0.5" x="88.4375" y="385.861" width="12.5976" height="3.87619" fill="#C5C5C5"/>
    <rect opacity="0.5" x="88.4375" y="388.768" width="12.5976" height="3.87619" fill="#C5C5C5"/>
    <rect opacity="0.5" x="88.4375" y="391.675" width="12.5976" height="3.87619" fill="#C5C5C5"/>
    <rect opacity="0.5" x="88.4375" y="400.232" width="12.5976" height="3.87619" fill="#C5C5C5"/>
    <rect opacity="0.5" x="88.4375" y="403.139" width="12.5976" height="3.87619" fill="#C5C5C5"/>
    <rect opacity="0.5" x="88.4375" y="406.046" width="12.5976" height="3.87619" fill="#C5C5C5"/>
    <rect opacity="0.5" x="88.4375" y="408.953" width="12.5976" height="3.87619" fill="#C5C5C5"/>
    <rect opacity="0.5" x="88.4375" y="411.861" width="12.5976" height="3.87619" fill="#C5C5C5"/>
    <rect opacity="0.5" x="88.4375" y="414.768" width="12.5976" height="3.87619" fill="#C5C5C5"/>
    <rect opacity="0.5" x="88.4375" y="417.675" width="12.5976" height="3.87619" fill="#C5C5C5"/>
    <rect opacity="0.5" x="88.4375" y="454.232" width="12.5976" height="3.87619" fill="#C5C5C5"/>
    <rect opacity="0.5" x="88.4375" y="457.139" width="12.5976" height="3.87619" fill="#C5C5C5"/>
    <rect opacity="0.5" x="88.4375" y="460.046" width="12.5976" height="3.87619" fill="#C5C5C5"/>
    <rect opacity="0.5" x="88.4375" y="462.953" width="12.5976" height="3.87619" fill="#C5C5C5"/>
    <rect opacity="0.5" x="88.4375" y="465.861" width="12.5976" height="3.87619" fill="#C5C5C5"/>
    <rect opacity="0.5" x="88.4375" y="468.768" width="12.5976" height="3.87619" fill="#C5C5C5"/>
    <rect opacity="0.5" x="88.4375" y="471.675" width="12.5976" height="3.87619" fill="#C5C5C5"/>
    <rect opacity="0.5" x="88.4375" y="427.232" width="12.5976" height="3.87619" fill="#C5C5C5"/>
    <rect opacity="0.5" x="88.4375" y="430.139" width="12.5976" height="3.87619" fill="#C5C5C5"/>
    <rect opacity="0.5" x="88.4375" y="433.046" width="12.5976" height="3.87619" fill="#C5C5C5"/>
    <rect opacity="0.5" x="88.4375" y="435.953" width="12.5976" height="3.87619" fill="#C5C5C5"/>
    <rect opacity="0.5" x="88.4375" y="438.861" width="12.5976" height="3.87619" fill="#C5C5C5"/>
    <rect opacity="0.5" x="88.4375" y="441.768" width="12.5976" height="3.87619" fill="#C5C5C5"/>
    <rect opacity="0.5" x="88.4375" y="444.675" width="12.5976" height="3.87619" fill="#C5C5C5"/>
    <path d="M33.7805 364.232V362.701L34.0689 362.686C34.46 362.663 34.7699 362.522 34.9986 362.263C35.2306 362.005 35.4013 361.589 35.5107 361.015C35.6233 360.442 35.6979 359.673 35.7344 358.708L35.9034 354.05H42.5753V364.232H40.7706V355.566H37.6236L37.4645 359.28C37.4181 360.394 37.2955 361.317 37.0966 362.049C36.901 362.782 36.5795 363.329 36.1321 363.69C35.688 364.051 35.0698 364.232 34.2777 364.232H33.7805ZM47.8874 364.381C47.1218 364.381 46.4606 364.222 45.9038 363.904C45.3503 363.582 44.9244 363.128 44.6261 362.542C44.3278 361.952 44.1786 361.257 44.1786 360.458C44.1786 359.673 44.3278 358.984 44.6261 358.39C44.9277 357.794 45.3486 357.33 45.8888 356.998C46.4291 356.664 47.0638 356.496 47.793 356.496C48.2636 356.496 48.7077 356.572 49.1254 356.725C49.5463 356.874 49.9175 357.106 50.239 357.421C50.5638 357.736 50.819 358.137 51.0046 358.624C51.1902 359.108 51.283 359.685 51.283 360.354V360.906H45.0238V359.693H49.5579C49.5546 359.348 49.48 359.042 49.3342 358.773C49.1883 358.501 48.9845 358.288 48.7227 358.132C48.4641 357.976 48.1625 357.898 47.8178 357.898C47.4499 357.898 47.1268 357.988 46.8484 358.167C46.57 358.342 46.3529 358.574 46.1971 358.863C46.0446 359.148 45.9667 359.461 45.9634 359.802V360.861C45.9634 361.305 46.0446 361.686 46.207 362.005C46.3694 362.32 46.5965 362.561 46.8881 362.731C47.1798 362.896 47.5212 362.979 47.9123 362.979C48.1741 362.979 48.4111 362.943 48.6232 362.87C48.8353 362.793 49.0193 362.682 49.1751 362.537C49.3308 362.391 49.4485 362.21 49.5281 361.995L51.2085 362.184C51.1024 362.628 50.9002 363.016 50.6019 363.347C50.3069 363.675 49.9291 363.93 49.4684 364.113C49.0077 364.292 48.4807 364.381 47.8874 364.381ZM56.1365 364.381C55.3742 364.381 54.7196 364.214 54.1728 363.879C53.6292 363.544 53.2099 363.082 52.915 362.492C52.6233 361.899 52.4775 361.216 52.4775 360.444C52.4775 359.668 52.6266 358.984 52.9249 358.39C53.2232 357.794 53.6441 357.33 54.1877 356.998C54.7346 356.664 55.3809 356.496 56.1266 356.496C56.7464 356.496 57.2949 356.61 57.7722 356.839C58.2528 357.065 58.6356 357.384 58.9206 357.799C59.2057 358.21 59.3681 358.69 59.4078 359.24H57.6877C57.6181 358.873 57.4524 358.566 57.1905 358.321C56.932 358.072 56.5856 357.948 56.1515 357.948C55.7836 357.948 55.4604 358.047 55.182 358.246C54.9036 358.442 54.6865 358.723 54.5307 359.091C54.3783 359.459 54.302 359.9 54.302 360.414C54.302 360.934 54.3783 361.382 54.5307 361.756C54.6832 362.127 54.897 362.414 55.1721 362.616C55.4505 362.815 55.7769 362.914 56.1515 362.914C56.4166 362.914 56.6536 362.865 56.8624 362.765C57.0745 362.663 57.2518 362.515 57.3944 362.323C57.5369 362.131 57.6346 361.897 57.6877 361.622H59.4078C59.3648 362.162 59.2057 362.641 58.9306 363.059C58.6555 363.473 58.281 363.798 57.807 364.033C57.333 364.265 56.7762 364.381 56.1365 364.381ZM60.3313 358.072V356.596H67.0131V358.072H64.5423V364.232H62.8022V358.072H60.3313ZM73.6912 359.668V361.145H69.6245V359.668H73.6912ZM70.1813 356.596V364.232H68.4462V356.596H70.1813ZM74.8695 356.596V364.232H73.1394V356.596H74.8695ZM78.4254 361.796L81.483 356.596H83.3324V364.232H81.5923V359.027L78.5447 364.232H76.6903V356.596H78.4254V361.796ZM91.6287 356.596V362.89H92.7971V366.688H91.0371V364.232H85.1806V356.596H86.9157V362.755H89.9086V356.596H91.6287ZM96.4698 364.386C95.9859 364.386 95.5501 364.3 95.1623 364.128C94.7778 363.952 94.4729 363.693 94.2475 363.352C94.0254 363.011 93.9144 362.59 93.9144 362.089C93.9144 361.658 93.994 361.302 94.1531 361.02C94.3121 360.739 94.5292 360.513 94.8043 360.344C95.0794 360.175 95.3893 360.048 95.734 359.961C96.082 359.872 96.4416 359.807 96.8129 359.767C97.2603 359.721 97.6232 359.68 97.9016 359.643C98.18 359.603 98.3822 359.544 98.5082 359.464C98.6374 359.381 98.7021 359.254 98.7021 359.081V359.052C98.7021 358.677 98.591 358.387 98.369 358.182C98.1469 357.976 97.8271 357.873 97.4094 357.873C96.9686 357.873 96.619 357.969 96.3604 358.162C96.1052 358.354 95.9329 358.581 95.8434 358.843L94.163 358.604C94.2956 358.14 94.5143 357.752 94.8192 357.441C95.1242 357.126 95.497 356.891 95.9379 356.735C96.3787 356.576 96.8659 356.496 97.3995 356.496C97.7674 356.496 98.1336 356.539 98.4982 356.625C98.8628 356.712 99.1959 356.854 99.4975 357.053C99.7991 357.249 100.041 357.515 100.223 357.853C100.409 358.191 100.502 358.614 100.502 359.121V364.232H98.7717V363.183H98.712C98.6026 363.395 98.4485 363.594 98.2496 363.78C98.0541 363.962 97.8072 364.109 97.5089 364.222C97.2139 364.331 96.8675 364.386 96.4698 364.386ZM96.9371 363.064C97.2984 363.064 97.6116 362.992 97.8768 362.85C98.1419 362.704 98.3458 362.512 98.4883 362.273C98.6341 362.034 98.707 361.774 98.707 361.493V360.593C98.6507 360.639 98.5546 360.682 98.4187 360.722C98.2861 360.762 98.137 360.797 97.9712 360.826C97.8055 360.856 97.6415 360.883 97.479 360.906C97.3166 360.929 97.1758 360.949 97.0565 360.966C96.788 361.002 96.5477 361.062 96.3356 361.145C96.1235 361.227 95.9561 361.343 95.8335 361.493C95.7108 361.638 95.6495 361.827 95.6495 362.059C95.6495 362.391 95.7705 362.641 96.0124 362.81C96.2544 362.979 96.5626 363.064 96.9371 363.064Z" fill="#E2E2E2"/>
    <defs>
        <filter id="filter0_d_1768_10921" x="-0.00291252" y="1.71661e-05" width="263.029" height="641.584" filterUnits="userSpaceOnUse" color-interpolation-filters="sRGB">
            <feFlood flood-opacity="0" result="BackgroundImageFix"/>
            <feColorMatrix in="SourceAlpha" type="matrix" values="0 0 0 0 0 0 0 0 0 0 0 0 0 0 0 0 0 0 127 0" result="hardAlpha"/>
            <feMorphology radius="14.2526" operator="dilate" in="SourceAlpha" result="effect1_dropShadow_1768_10921"/>
            <feOffset/>
            <feGaussianBlur stdDeviation="22.2697"/>
            <feComposite in2="hardAlpha" operator="out"/>
            <feColorMatrix type="matrix" values="0 0 0 0 0.486275 0 0 0 0 0.737255 0 0 0 0 0.643137 0 0 0 0.4 0"/>
            <feBlend mode="normal" in2="BackgroundImageFix" result="effect1_dropShadow_1768_10921"/>
            <feBlend mode="normal" in="SourceGraphic" in2="effect1_dropShadow_1768_10921" result="shape"/>
        </filter>
        <pattern id="pattern0_1768_10921" patternUnits="userSpaceOnUse" patternTransform="matrix(7.57865 0 0 7.57822 123.123 405.917)" preserveAspectRatio="none" viewBox="-0.353516 -0.353516 8.50781 8.50732" width="1" height="1">
            <use xlink:href="#pattern0_1768_10921_inner" transform="translate(-8.50781 -8.50732)"/>
            <use xlink:href="#pattern0_1768_10921_inner" transform="translate(0 -8.50732)"/>
            <use xlink:href="#pattern0_1768_10921_inner" transform="translate(-8.50781 0)"/>
            <g id="pattern0_1768_10921_inner">
                <path d="M8.50781 0L0 8.50732" stroke="#2E2F2E"/>
            </g>
        </pattern><pattern id="pattern1_1768_10921" patternUnits="userSpaceOnUse" patternTransform="matrix(7.57865 0 0 7.57822 132.63 200.169)" preserveAspectRatio="none" viewBox="-0.353516 -0.353516 8.50781 8.50732" width="1" height="1">
        <use xlink:href="#pattern1_1768_10921_inner" transform="translate(-8.50781 -8.50732)"/>
        <use xlink:href="#pattern1_1768_10921_inner" transform="translate(0 -8.50732)"/>
        <use xlink:href="#pattern1_1768_10921_inner" transform="translate(-8.50781 0)"/>
        <g id="pattern1_1768_10921_inner">
            <path d="M8.50781 0L0 8.50732" stroke="#2E2F2E"/>
        </g>
    </pattern><pattern id="pattern2_1768_10921" patternUnits="userSpaceOnUse" patternTransform="matrix(7.57865 0 0 7.57822 123.451 422.179)" preserveAspectRatio="none" viewBox="-0.353516 -0.353516 8.50781 8.50732" width="1" height="1">
        <use xlink:href="#pattern2_1768_10921_inner" transform="translate(-8.50781 -8.50732)"/>
        <use xlink:href="#pattern2_1768_10921_inner" transform="translate(0 -8.50732)"/>
        <use xlink:href="#pattern2_1768_10921_inner" transform="translate(-8.50781 0)"/>
        <g id="pattern2_1768_10921_inner">
            <path d="M8.50781 0L0 8.50732" stroke="#2E2F2E"/>
        </g>
    </pattern><pattern id="pattern3_1768_10921" patternUnits="userSpaceOnUse" patternTransform="matrix(7.57865 0 0 7.57822 -0.314907 -0.314907)" preserveAspectRatio="none" viewBox="-0.353516 -0.353516 8.50781 8.50732" width="1" height="1">
        <use xlink:href="#pattern3_1768_10921_inner" transform="translate(-8.50781 -8.50732)"/>
        <use xlink:href="#pattern3_1768_10921_inner" transform="translate(0 -8.50732)"/>
        <use xlink:href="#pattern3_1768_10921_inner" transform="translate(-8.50781 0)"/>
        <g id="pattern3_1768_10921_inner">
            <path d="M8.50781 0L0 8.50732" stroke="#2E2F2E"/>
        </g>
    </pattern></defs>
</svg>
