<svg width="258" height="652" viewBox="0 0 258 652" fill="none" xmlns="http://www.w3.org/2000/svg" xmlns:xlink="http://www.w3.org/1999/xlink">
    <g filter="url(#filter0_d_1768_10484)">
        <path d="M225.492 177.26L183.674 177.26L147.519 177.26L147.519 248.956L147.519 399.129L225.492 399.129L225.492 177.26Z" fill="#161716"/>
        <path fill-rule="evenodd" clip-rule="evenodd" d="M91 586.892L91 353.574L136.432 353.574L136.432 312.237L117.029 312.237L117.029 223.296L136.432 223.296L136.432 177.26L104.495 177.26L104.495 64.4571L183.674 64.4571L183.674 177.26L147.519 177.26L147.519 248.956L147.519 399.129L225.492 399.129L225.492 435.524L183.674 435.524L145.109 435.524L145.109 550.978L183.674 550.978L183.674 586.892L91 586.892Z" fill="#1B1C1D"/>
        <path d="M183.674 550.978L183.674 435.524L145.109 435.524L145.109 550.978L183.674 550.978Z" fill="#161716"/>
        <path d="M183.674 177.26L225.492 177.26L225.492 399.129M183.674 177.26L183.674 64.4571L104.495 64.4571L104.495 177.26L136.432 177.26L136.432 223.296L117.029 223.296L117.029 312.237L136.432 312.237L136.432 353.574L91 353.574L91 586.892L183.674 586.892L183.674 550.978M183.674 177.26L147.519 177.26L147.519 248.956L147.519 399.129L225.492 399.129M183.674 435.524L225.492 435.524L225.492 399.129M183.674 435.524L183.674 550.978M183.674 435.524L145.109 435.524L145.109 550.978L183.674 550.978" stroke="#656565"/>
    </g>
    <path d="M121.023 586.743L132.652 593.457" stroke="#656565"/>
    <path d="M148.156 586.743L136.528 593.457" stroke="#656565"/>
    <path d="M117.525 506.477L117.525 505.301C117.525 504.847 117.622 504.443 117.817 504.091C118.013 503.739 118.287 503.462 118.641 503.261C118.994 503.061 119.406 502.96 119.88 502.96C120.342 502.96 120.746 503.061 121.093 503.261C121.44 503.462 121.71 503.739 121.903 504.091C122.094 504.443 122.19 504.847 122.19 505.301L122.19 506.477C122.19 506.934 122.095 507.339 121.906 507.693C121.714 508.045 121.445 508.322 121.099 508.523C120.752 508.723 120.347 508.824 119.883 508.824C119.409 508.824 118.996 508.723 118.644 508.52C118.29 508.317 118.015 508.04 117.82 507.687C117.623 507.333 117.525 506.93 117.525 506.477ZM118.417 506.477C118.417 506.754 118.474 506.993 118.587 507.196C118.699 507.397 118.864 507.552 119.082 507.662C119.299 507.772 119.567 507.827 119.883 507.827C120.186 507.827 120.442 507.772 120.653 507.662C120.863 507.55 121.023 507.393 121.133 507.19C121.243 506.988 121.298 506.75 121.298 506.477L121.298 505.298C121.298 505.024 121.243 504.787 121.133 504.588C121.021 504.387 120.86 504.233 120.65 504.125C120.438 504.015 120.181 503.96 119.88 503.96C119.567 503.96 119.302 504.015 119.085 504.125C118.867 504.233 118.701 504.387 118.587 504.588C118.474 504.787 118.417 505.024 118.417 505.298L118.417 506.477ZM116.775 505.381L122.934 505.381L122.934 506.395L116.775 506.395L116.775 505.381ZM122.781 500.099C122.781 500.526 122.687 500.895 122.499 501.207C122.312 501.52 122.049 501.762 121.712 501.935C121.375 502.105 120.981 502.19 120.531 502.19C120.08 502.19 119.685 502.105 119.346 501.935C119.007 501.762 118.744 501.52 118.556 501.207C118.369 500.895 118.275 500.526 118.275 500.099C118.275 499.673 118.369 499.304 118.556 498.991C118.744 498.679 119.007 498.437 119.346 498.267C119.685 498.095 120.08 498.009 120.531 498.009C120.981 498.009 121.375 498.095 121.712 498.267C122.049 498.437 122.312 498.679 122.499 498.991C122.687 499.304 122.781 499.673 122.781 500.099ZM121.957 500.094C121.957 499.863 121.893 499.67 121.766 499.514C121.638 499.359 121.465 499.243 121.249 499.168C121.033 499.09 120.793 499.051 120.528 499.051C120.261 499.051 120.019 499.09 119.803 499.168C119.585 499.243 119.412 499.359 119.283 499.514C119.155 499.67 119.09 499.863 119.09 500.094C119.09 500.33 119.155 500.527 119.283 500.685C119.412 500.84 119.585 500.956 119.803 501.034C120.019 501.11 120.261 501.148 120.528 501.148C120.793 501.148 121.033 501.11 121.249 501.034C121.465 500.956 121.638 500.84 121.766 500.685C121.893 500.527 121.957 500.33 121.957 500.094ZM121.303 496.144L118.332 494.397L118.332 493.34L122.695 493.34L122.695 494.335L119.721 494.335L122.695 496.076L122.695 497.136L118.332 497.136L118.332 496.144L121.303 496.144ZM116.832 494.678L116.832 493.908C117.163 493.908 117.432 494.029 117.638 494.269C117.843 494.508 117.945 494.832 117.945 495.241C117.945 495.646 117.843 495.969 117.638 496.21C117.432 496.448 117.163 496.567 116.832 496.565L116.832 495.8C116.968 495.8 117.09 495.759 117.198 495.675C117.304 495.59 117.357 495.445 117.357 495.241C117.357 495.04 117.304 494.897 117.198 494.812C117.092 494.725 116.97 494.68 116.832 494.678ZM122.781 490.352C122.781 490.79 122.69 491.168 122.508 491.486C122.324 491.802 122.065 492.045 121.729 492.216C121.392 492.386 120.996 492.472 120.539 492.472C120.09 492.472 119.696 492.386 119.357 492.216C119.016 492.044 118.751 491.803 118.562 491.494C118.371 491.186 118.275 490.823 118.275 490.406C118.275 490.137 118.318 489.884 118.406 489.645C118.491 489.404 118.623 489.192 118.803 489.009C118.983 488.823 119.212 488.677 119.491 488.571C119.767 488.465 120.097 488.412 120.479 488.412L120.795 488.412L120.795 491.989L120.102 491.989L120.102 489.398C119.905 489.4 119.729 489.442 119.576 489.526C119.421 489.609 119.299 489.725 119.21 489.875C119.121 490.023 119.076 490.195 119.076 490.392C119.076 490.602 119.127 490.787 119.229 490.946C119.33 491.105 119.462 491.229 119.627 491.318C119.79 491.405 119.969 491.45 120.164 491.452L120.769 491.452C121.023 491.452 121.241 491.405 121.423 491.312C121.603 491.22 121.741 491.09 121.837 490.923C121.932 490.757 121.979 490.562 121.979 490.338C121.979 490.188 121.959 490.053 121.917 489.932C121.873 489.811 121.81 489.705 121.727 489.616C121.643 489.527 121.54 489.46 121.417 489.415L121.525 488.455C121.779 488.515 122 488.631 122.19 488.801C122.377 488.97 122.523 489.186 122.627 489.449C122.729 489.712 122.781 490.013 122.781 490.352Z" fill="#797979"/>
    <rect x="146.125" y="436.96" width="36.5589" height="113.024" fill="url(#pattern0_1768_10484)"/>
    <path d="M160.557 513.656L161.44 513.656L161.44 516.344L166.375 516.344L166.375 517.398L160.557 517.398L160.557 513.656ZM166.463 512.149C166.463 512.425 166.414 512.674 166.315 512.896C166.215 513.115 166.067 513.29 165.872 513.418C165.677 513.545 165.437 513.609 165.151 513.609C164.904 513.609 164.701 513.563 164.54 513.472C164.379 513.381 164.25 513.257 164.153 513.1C164.057 512.943 163.984 512.766 163.935 512.569C163.884 512.37 163.847 512.165 163.824 511.953C163.797 511.697 163.774 511.489 163.753 511.33C163.73 511.171 163.696 511.056 163.651 510.984C163.603 510.91 163.53 510.873 163.432 510.873L163.415 510.873C163.201 510.873 163.035 510.936 162.918 511.063C162.8 511.19 162.741 511.373 162.741 511.612C162.741 511.863 162.796 512.063 162.906 512.211C163.016 512.357 163.146 512.455 163.295 512.506L163.159 513.467C162.894 513.391 162.672 513.266 162.494 513.092C162.314 512.917 162.18 512.704 162.091 512.453C162 512.201 161.955 511.922 161.955 511.617C161.955 511.407 161.979 511.198 162.028 510.989C162.078 510.781 162.159 510.591 162.273 510.418C162.384 510.246 162.537 510.108 162.73 510.004C162.923 509.898 163.165 509.845 163.455 509.845L166.375 509.845L166.375 510.833L165.776 510.833L165.776 510.867C165.897 510.93 166.01 511.018 166.116 511.131C166.221 511.243 166.305 511.384 166.369 511.555C166.432 511.723 166.463 511.921 166.463 512.149ZM165.707 511.881C165.707 511.675 165.667 511.496 165.585 511.345C165.502 511.193 165.392 511.077 165.256 510.995C165.119 510.912 164.971 510.87 164.81 510.87L164.295 510.87C164.322 510.902 164.347 510.957 164.369 511.035C164.392 511.111 164.412 511.196 164.429 511.291C164.446 511.385 164.461 511.479 164.474 511.572C164.488 511.665 164.499 511.745 164.509 511.813C164.529 511.967 164.563 512.104 164.611 512.225C164.658 512.346 164.724 512.442 164.81 512.512C164.893 512.582 165.001 512.617 165.134 512.617C165.323 512.617 165.466 512.548 165.562 512.41C165.659 512.272 165.707 512.095 165.707 511.881ZM168.011 508.81L162.011 508.81L162.011 507.799L162.733 507.799L162.733 507.739C162.627 507.686 162.514 507.612 162.395 507.515C162.274 507.418 162.17 507.288 162.085 507.123C161.998 506.958 161.955 506.748 161.955 506.492C161.955 506.155 162.041 505.851 162.213 505.58C162.384 505.308 162.636 505.092 162.972 504.933C163.305 504.772 163.714 504.691 164.199 504.691C164.678 504.691 165.085 504.77 165.42 504.927C165.756 505.084 166.011 505.298 166.187 505.569C166.364 505.84 166.452 506.147 166.452 506.489C166.452 506.739 166.41 506.947 166.327 507.112C166.243 507.276 166.143 507.409 166.026 507.509C165.906 507.608 165.794 507.685 165.687 507.739L165.687 507.782L168.011 507.782L168.011 508.81ZM164.193 507.802C164.475 507.802 164.723 507.762 164.935 507.683C165.147 507.601 165.312 507.485 165.432 507.333C165.549 507.18 165.608 506.994 165.608 506.776C165.608 506.549 165.547 506.359 165.426 506.205C165.303 506.052 165.135 505.936 164.923 505.859C164.709 505.779 164.466 505.739 164.193 505.739C163.922 505.739 163.682 505.778 163.472 505.856C163.261 505.934 163.097 506.049 162.977 506.203C162.858 506.356 162.798 506.547 162.798 506.776C162.798 506.996 162.856 507.183 162.972 507.336C163.087 507.489 163.249 507.606 163.457 507.685C163.666 507.763 163.911 507.802 164.193 507.802ZM167.642 504.197L165.528 504.197L165.528 503.85C165.456 503.757 165.359 503.68 165.236 503.617C165.111 503.555 164.964 503.504 164.795 503.464C164.625 503.422 164.435 503.388 164.224 503.362C164.012 503.335 163.784 503.311 163.54 503.291L162.011 503.166L162.011 500.012L165.528 500.012L165.528 499.336L167.642 499.336L167.642 500.33L166.375 500.33L166.375 503.185L167.642 503.185L167.642 504.197ZM165.528 502.793L165.528 500.995L162.841 500.995L162.841 502.274L163.54 502.342C164.002 502.38 164.398 502.43 164.727 502.492C165.057 502.555 165.324 502.655 165.528 502.793ZM166.46 496.636C166.46 497.074 166.369 497.452 166.187 497.77C166.004 498.086 165.744 498.33 165.409 498.5C165.072 498.671 164.675 498.756 164.219 498.756C163.77 498.756 163.376 498.671 163.037 498.5C162.696 498.328 162.431 498.087 162.241 497.778C162.05 497.47 161.955 497.107 161.955 496.69C161.955 496.421 161.998 496.168 162.085 495.929C162.17 495.689 162.303 495.476 162.483 495.293C162.663 495.107 162.892 494.961 163.17 494.855C163.447 494.749 163.777 494.696 164.159 494.696L164.474 494.696L164.474 498.273L163.781 498.273L163.781 495.682C163.584 495.684 163.409 495.726 163.256 495.81C163.1 495.893 162.978 496.01 162.889 496.159C162.8 496.307 162.756 496.479 162.756 496.676C162.756 496.886 162.807 497.071 162.909 497.23C163.009 497.389 163.142 497.513 163.307 497.602C163.47 497.689 163.649 497.734 163.844 497.736L164.449 497.736C164.703 497.736 164.92 497.689 165.102 497.597C165.282 497.504 165.42 497.374 165.517 497.207C165.612 497.041 165.659 496.846 165.659 496.622C165.659 496.473 165.638 496.337 165.597 496.216C165.553 496.095 165.49 495.99 165.406 495.901C165.323 495.812 165.22 495.744 165.097 495.699L165.205 494.739C165.458 494.799 165.68 494.915 165.869 495.085C166.057 495.254 166.203 495.47 166.307 495.733C166.409 495.996 166.46 496.297 166.46 496.636ZM168.011 493.826L162.011 493.826L162.011 492.815L162.733 492.815L162.733 492.755C162.627 492.702 162.514 492.627 162.395 492.531C162.274 492.434 162.17 492.303 162.085 492.139C161.998 491.974 161.955 491.764 161.955 491.508C161.955 491.171 162.041 490.867 162.213 490.596C162.384 490.323 162.636 490.107 162.972 489.948C163.305 489.787 163.714 489.707 164.199 489.707C164.678 489.707 165.085 489.785 165.42 489.943C165.756 490.1 166.011 490.314 166.187 490.585C166.364 490.855 166.452 491.162 166.452 491.505C166.452 491.755 166.41 491.962 166.327 492.127C166.243 492.292 166.143 492.425 166.026 492.525C165.906 492.623 165.794 492.7 165.687 492.755L165.687 492.798L168.011 492.798L168.011 493.826ZM164.193 492.818C164.475 492.818 164.723 492.778 164.935 492.698C165.147 492.617 165.312 492.5 165.432 492.349C165.549 492.195 165.608 492.01 165.608 491.792C165.608 491.565 165.547 491.374 165.426 491.221C165.303 491.068 165.135 490.952 164.923 490.874C164.709 490.795 164.466 490.755 164.193 490.755C163.922 490.755 163.682 490.794 163.472 490.872C163.261 490.949 163.097 491.065 162.977 491.218C162.858 491.372 162.798 491.563 162.798 491.792C162.798 492.012 162.856 492.198 162.972 492.352C163.087 492.505 163.249 492.622 163.457 492.701C163.666 492.779 163.911 492.818 164.193 492.818ZM166.46 486.923C166.46 487.349 166.366 487.718 166.179 488.031C165.991 488.343 165.729 488.586 165.392 488.758C165.055 488.928 164.661 489.014 164.21 489.014C163.759 489.014 163.365 488.928 163.026 488.758C162.687 488.586 162.423 488.343 162.236 488.031C162.048 487.718 161.955 487.349 161.955 486.923C161.955 486.497 162.048 486.127 162.236 485.815C162.423 485.502 162.687 485.261 163.026 485.09C163.365 484.918 163.759 484.832 164.21 484.832C164.661 484.832 165.055 484.918 165.392 485.09C165.729 485.261 165.991 485.502 166.179 485.815C166.366 486.127 166.46 486.497 166.46 486.923ZM165.636 486.917C165.636 486.686 165.573 486.493 165.446 486.337C165.317 486.182 165.145 486.067 164.929 485.991C164.713 485.913 164.473 485.874 164.207 485.874C163.94 485.874 163.699 485.913 163.483 485.991C163.265 486.067 163.092 486.182 162.963 486.337C162.834 486.493 162.77 486.686 162.77 486.917C162.77 487.154 162.834 487.351 162.963 487.508C163.092 487.663 163.265 487.78 163.483 487.857C163.699 487.933 163.94 487.971 164.207 487.971C164.473 487.971 164.713 487.933 164.929 487.857C165.145 487.78 165.317 487.663 165.446 487.508C165.573 487.351 165.636 487.154 165.636 486.917ZM160.398 480.462L161.062 480.104C161.172 480.231 161.252 480.373 161.301 480.53C161.35 480.687 161.383 480.872 161.398 481.084C161.411 481.294 161.42 481.544 161.426 481.834C161.434 482.16 161.495 482.426 161.611 482.632C161.726 482.839 161.902 482.997 162.136 483.107C162.369 483.216 162.667 483.288 163.028 483.323L163.028 483.274C162.761 483.138 162.558 482.947 162.418 482.7C162.277 482.454 162.207 482.165 162.207 481.834C162.207 481.472 162.289 481.153 162.452 480.877C162.613 480.598 162.847 480.381 163.153 480.226C163.46 480.069 163.831 479.99 164.267 479.99C164.716 479.99 165.105 480.074 165.435 480.243C165.762 480.412 166.015 480.651 166.193 480.962C166.371 481.27 166.46 481.637 166.46 482.061C166.46 482.484 166.368 482.851 166.185 483.163C165.999 483.474 165.725 483.715 165.364 483.885C165 484.054 164.552 484.138 164.02 484.138L163.628 484.138C162.601 484.138 161.835 483.947 161.33 483.564C160.824 483.181 160.566 482.614 160.557 481.862C160.553 481.639 160.552 481.439 160.554 481.263C160.556 481.085 160.547 480.93 160.528 480.797C160.509 480.664 160.466 480.553 160.398 480.462ZM165.636 482.055C165.636 481.845 165.582 481.663 165.474 481.51C165.365 481.357 165.209 481.239 165.009 481.158C164.808 481.074 164.57 481.033 164.295 481.033C164.025 481.033 163.795 481.074 163.605 481.158C163.414 481.241 163.268 481.359 163.168 481.513C163.067 481.666 163.017 481.849 163.017 482.061C163.017 482.22 163.045 482.363 163.102 482.49C163.159 482.617 163.242 482.725 163.352 482.814C163.462 482.903 163.596 482.971 163.753 483.019C163.91 483.066 164.091 483.091 164.295 483.095C164.706 483.095 165.033 483.002 165.276 482.817C165.516 482.631 165.636 482.377 165.636 482.055Z" fill="#797979"/>
    <rect x="149" y="178.456" width="75" height="85" fill="url(#pattern1_1768_10484)"/>
    <rect x="149" y="296.456" width="75" height="101" fill="url(#pattern2_1768_10484)"/>
    <path d="M153.751 283.194V282.319L153.915 282.31C154.139 282.297 154.316 282.217 154.447 282.069C154.579 281.921 154.677 281.683 154.739 281.356C154.804 281.028 154.846 280.589 154.867 280.038L154.964 277.376H158.776V283.194H157.745V278.242H155.947L155.856 280.364C155.829 281.001 155.759 281.528 155.646 281.947C155.534 282.365 155.35 282.678 155.094 282.884C154.841 283.091 154.487 283.194 154.035 283.194H153.751ZM161.812 283.279C161.374 283.279 160.996 283.188 160.678 283.006C160.362 282.823 160.119 282.563 159.948 282.228C159.778 281.891 159.692 281.494 159.692 281.038C159.692 280.589 159.778 280.195 159.948 279.856C160.121 279.515 160.361 279.25 160.67 279.06C160.978 278.869 161.341 278.773 161.758 278.773C162.027 278.773 162.281 278.817 162.519 278.904C162.76 278.989 162.972 279.122 163.156 279.302C163.341 279.482 163.487 279.711 163.593 279.989C163.699 280.266 163.752 280.595 163.752 280.978V281.293H160.175V280.6H162.766C162.764 280.403 162.722 280.228 162.638 280.075C162.555 279.919 162.439 279.797 162.289 279.708C162.141 279.619 161.969 279.575 161.772 279.575C161.562 279.575 161.377 279.626 161.218 279.728C161.059 279.828 160.935 279.961 160.846 280.126C160.759 280.289 160.714 280.468 160.712 280.663V281.268C160.712 281.521 160.759 281.739 160.852 281.921C160.944 282.101 161.074 282.239 161.241 282.336C161.407 282.431 161.603 282.478 161.826 282.478C161.976 282.478 162.111 282.457 162.232 282.415C162.353 282.372 162.459 282.308 162.548 282.225C162.637 282.142 162.704 282.039 162.749 281.915L163.71 282.023C163.649 282.277 163.533 282.499 163.363 282.688C163.194 282.876 162.978 283.021 162.715 283.126C162.452 283.228 162.151 283.279 161.812 283.279ZM164.622 283.194V278.83H165.651V280.592H166.026L167.338 278.83H168.577L166.96 280.972L168.594 283.194H167.349L166.153 281.549H165.651V283.194H164.622ZM172.862 278.83V282.427H173.529V284.597H172.523V283.194H169.177V278.83H170.168V282.35H171.879V278.83H172.862ZM175.364 281.802L177.111 278.83H178.168V283.194H177.173V280.219L175.432 283.194H174.372V278.83H175.364V281.802ZM181.127 283.279C180.701 283.279 180.332 283.185 180.019 282.998C179.707 282.81 179.464 282.548 179.292 282.211C179.121 281.874 179.036 281.48 179.036 281.029C179.036 280.578 179.121 280.183 179.292 279.844C179.464 279.505 179.707 279.242 180.019 279.055C180.332 278.867 180.701 278.773 181.127 278.773C181.553 278.773 181.923 278.867 182.235 279.055C182.548 279.242 182.789 279.505 182.96 279.844C183.132 280.183 183.218 280.578 183.218 281.029C183.218 281.48 183.132 281.874 182.96 282.211C182.789 282.548 182.548 282.81 182.235 282.998C181.923 283.185 181.553 283.279 181.127 283.279ZM181.133 282.455C181.364 282.455 181.557 282.392 181.712 282.265C181.868 282.136 181.983 281.964 182.059 281.748C182.137 281.532 182.175 281.291 182.175 281.026C182.175 280.759 182.137 280.518 182.059 280.302C181.983 280.084 181.868 279.911 181.712 279.782C181.557 279.653 181.364 279.589 181.133 279.589C180.896 279.589 180.699 279.653 180.542 279.782C180.387 279.911 180.27 280.084 180.192 280.302C180.117 280.518 180.079 280.759 180.079 281.026C180.079 281.291 180.117 281.532 180.192 281.748C180.27 281.964 180.387 282.136 180.542 282.265C180.699 282.392 180.896 282.455 181.133 282.455ZM187.088 280.586V281.43H184.764V280.586H187.088ZM185.082 278.83V283.194H184.091V278.83H185.082ZM187.761 278.83V283.194H186.773V278.83H187.761ZM191.799 280.586V281.43H189.475V280.586H191.799ZM189.793 278.83V283.194H188.802V278.83H189.793ZM192.472 278.83V283.194H191.484V278.83H192.472ZM194.209 280.251H195.496C196.053 280.251 196.483 280.386 196.788 280.657C197.093 280.928 197.247 281.283 197.249 281.722C197.247 282.008 197.177 282.262 197.038 282.484C196.902 282.705 196.703 282.879 196.442 283.006C196.182 283.131 195.867 283.194 195.496 283.194H193.513V278.83H194.504V282.35H195.496C195.719 282.35 195.903 282.293 196.047 282.18C196.191 282.064 196.263 281.916 196.263 281.736C196.263 281.547 196.191 281.393 196.047 281.273C195.903 281.154 195.719 281.094 195.496 281.094H194.209V280.251ZM197.791 283.194V278.83H198.82V283.194H197.791ZM200.871 281.802L202.619 278.83H203.675V283.194H202.681V280.219L200.94 283.194H199.88V278.83H200.871V281.802ZM202.337 277.33H203.107C203.107 277.662 202.987 277.931 202.746 278.137C202.508 278.342 202.184 278.444 201.775 278.444C201.37 278.444 201.047 278.342 200.806 278.137C200.567 277.931 200.449 277.662 200.451 277.33H201.215C201.215 277.467 201.257 277.589 201.34 277.697C201.425 277.803 201.57 277.856 201.775 277.856C201.976 277.856 202.119 277.803 202.204 277.697C202.291 277.591 202.335 277.468 202.337 277.33ZM206.474 281.998H207.494C207.504 282.161 207.577 282.287 207.713 282.376C207.849 282.465 208.027 282.509 208.244 282.509C208.466 282.509 208.652 282.461 208.804 282.364C208.957 282.266 209.034 282.117 209.034 281.918C209.034 281.801 209.005 281.698 208.946 281.609C208.887 281.518 208.805 281.448 208.699 281.398C208.593 281.349 208.468 281.325 208.324 281.325H207.656V280.594H208.324C208.538 280.594 208.7 280.545 208.81 280.447C208.921 280.348 208.977 280.224 208.977 280.075C208.977 279.914 208.919 279.783 208.801 279.682C208.686 279.582 208.526 279.532 208.321 279.532C208.116 279.532 207.946 279.578 207.81 279.671C207.675 279.764 207.605 279.883 207.599 280.029H206.585C206.589 279.775 206.665 279.555 206.812 279.367C206.962 279.18 207.163 279.034 207.415 278.93C207.669 278.825 207.955 278.773 208.273 278.773C208.614 278.773 208.908 278.825 209.156 278.927C209.404 279.029 209.596 279.172 209.73 279.356C209.865 279.538 209.932 279.752 209.932 279.998C209.932 280.235 209.858 280.431 209.71 280.586C209.563 280.739 209.364 280.849 209.114 280.915V280.961C209.286 280.97 209.441 281.02 209.58 281.109C209.718 281.196 209.828 281.314 209.909 281.464C209.991 281.613 210.031 281.787 210.031 281.984C210.031 282.251 209.955 282.482 209.801 282.677C209.648 282.87 209.437 283.019 209.168 283.123C208.901 283.227 208.595 283.279 208.25 283.279C207.915 283.279 207.615 283.229 207.349 283.129C207.086 283.026 206.877 282.879 206.722 282.688C206.566 282.497 206.484 282.267 206.474 281.998ZM212.097 283.282C211.82 283.282 211.571 283.233 211.349 283.134C211.13 283.034 210.955 282.886 210.827 282.691C210.7 282.496 210.636 282.255 210.636 281.969C210.636 281.723 210.682 281.52 210.773 281.359C210.864 281.198 210.988 281.069 211.145 280.972C211.302 280.876 211.479 280.803 211.676 280.754C211.875 280.702 212.08 280.665 212.293 280.643C212.548 280.616 212.756 280.593 212.915 280.572C213.074 280.549 213.189 280.515 213.261 280.469C213.335 280.422 213.372 280.349 213.372 280.251V280.234C213.372 280.02 213.309 279.854 213.182 279.736C213.055 279.619 212.872 279.56 212.634 279.56C212.382 279.56 212.182 279.615 212.034 279.725C211.888 279.835 211.79 279.965 211.739 280.114L210.778 279.978C210.854 279.713 210.979 279.491 211.153 279.313C211.328 279.133 211.541 278.999 211.793 278.91C212.045 278.819 212.323 278.773 212.628 278.773C212.838 278.773 213.047 278.798 213.256 278.847C213.464 278.896 213.654 278.978 213.827 279.092C213.999 279.203 214.137 279.356 214.241 279.549C214.348 279.742 214.401 279.984 214.401 280.273V283.194H213.412V282.594H213.378C213.315 282.716 213.227 282.829 213.114 282.935C213.002 283.039 212.861 283.124 212.69 283.188C212.522 283.251 212.324 283.282 212.097 283.282ZM212.364 282.526C212.57 282.526 212.749 282.486 212.901 282.404C213.052 282.321 213.169 282.211 213.25 282.075C213.333 281.938 213.375 281.789 213.375 281.629V281.114C213.343 281.141 213.288 281.165 213.21 281.188C213.134 281.211 213.049 281.231 212.955 281.248C212.86 281.265 212.766 281.28 212.673 281.293C212.58 281.307 212.5 281.318 212.432 281.327C212.278 281.348 212.141 281.382 212.02 281.43C211.899 281.477 211.803 281.543 211.733 281.629C211.663 281.712 211.628 281.82 211.628 281.952C211.628 282.142 211.697 282.285 211.835 282.381C211.973 282.478 212.15 282.526 212.364 282.526ZM215.134 283.194L215.128 282.347H215.278C215.392 282.347 215.488 282.322 215.565 282.271C215.643 282.219 215.707 282.134 215.759 282.015C215.81 281.894 215.849 281.731 215.878 281.526C215.906 281.322 215.926 281.067 215.938 280.762L216.014 278.83H219.196V283.194H218.202V279.674H216.949L216.881 281.08C216.864 281.444 216.823 281.759 216.759 282.026C216.696 282.291 216.607 282.51 216.491 282.682C216.378 282.855 216.235 282.984 216.062 283.069C215.89 283.152 215.687 283.194 215.452 283.194H215.134Z" fill="#797979"/>
    <g filter="url(#filter1_d_1768_10484)">
        <path d="M147.5 263.456H225.5" stroke="#656565"/>
    </g>
    <g filter="url(#filter2_d_1768_10484)">
        <path d="M147.5 296.456H225.5" stroke="#656565"/>
    </g>
    <rect opacity="0.5" x="123.453" y="229.195" width="12.5976" height="3.87619" fill="#C5C5C5"/>
    <rect opacity="0.5" x="123.453" y="232.102" width="12.5976" height="3.87619" fill="#C5C5C5"/>
    <rect opacity="0.5" x="123.453" y="235.009" width="12.5976" height="3.87619" fill="#C5C5C5"/>
    <rect opacity="0.5" x="123.453" y="237.916" width="12.5976" height="3.87619" fill="#C5C5C5"/>
    <rect opacity="0.5" x="123.453" y="240.823" width="12.5976" height="3.87619" fill="#C5C5C5"/>
    <rect opacity="0.5" x="123.453" y="243.73" width="12.5976" height="3.87619" fill="#C5C5C5"/>
    <rect opacity="0.5" x="123.453" y="246.638" width="12.5976" height="3.87619" fill="#C5C5C5"/>
    <path d="M47.3324 370.456V368.972L47.6118 368.958C47.9908 368.935 48.2911 368.799 48.5128 368.548C48.7376 368.298 48.903 367.895 49.009 367.339C49.1182 366.783 49.1905 366.038 49.2258 365.104L49.3896 360.589H55.855V370.456H54.1061V362.059H51.0565L50.9023 365.658C50.8574 366.737 50.7385 367.631 50.5458 368.341C50.3563 369.051 50.0448 369.581 49.6112 369.931C49.1808 370.281 48.5818 370.456 47.8142 370.456H47.3324ZM61.0027 370.601C60.2608 370.601 59.62 370.446 59.0804 370.138C58.544 369.827 58.1313 369.387 57.8423 368.818C57.5532 368.246 57.4087 367.573 57.4087 366.799C57.4087 366.038 57.5532 365.37 57.8423 364.795C58.1345 364.217 58.5424 363.767 59.066 363.446C59.5895 363.122 60.2046 362.96 60.9111 362.96C61.3672 362.96 61.7976 363.034 62.2023 363.181C62.6102 363.326 62.9699 363.551 63.2815 363.856C63.5962 364.161 63.8435 364.55 64.0234 365.022C64.2033 365.491 64.2932 366.049 64.2932 366.698V367.233H58.2277V366.057H62.6214C62.6182 365.723 62.546 365.426 62.4046 365.166C62.2633 364.903 62.0658 364.696 61.8121 364.545C61.5615 364.394 61.2693 364.318 60.9352 364.318C60.5787 364.318 60.2656 364.405 59.9958 364.578C59.726 364.749 59.5156 364.973 59.3647 365.253C59.2169 365.529 59.1414 365.833 59.1382 366.163V367.19C59.1382 367.62 59.2169 367.989 59.3743 368.298C59.5317 368.603 59.7517 368.837 60.0343 369.001C60.317 369.162 60.6478 369.242 61.0268 369.242C61.2805 369.242 61.5102 369.207 61.7157 369.136C61.9213 369.062 62.0995 368.955 62.2505 368.813C62.4014 368.672 62.5154 368.497 62.5925 368.288L64.2209 368.471C64.1181 368.902 63.9222 369.277 63.6332 369.599C63.3473 369.916 62.9812 370.164 62.5347 370.34C62.0883 370.514 61.5776 370.601 61.0027 370.601ZM68.9965 370.601C68.2578 370.601 67.6234 370.438 67.0935 370.114C66.5667 369.79 66.1605 369.342 65.8746 368.77C65.592 368.195 65.4506 367.533 65.4506 366.785C65.4506 366.033 65.5952 365.37 65.8842 364.795C66.1733 364.217 66.5812 363.767 67.1079 363.446C67.6379 363.122 68.2642 362.96 68.9868 362.96C69.5875 362.96 70.119 363.07 70.5815 363.292C71.0472 363.511 71.4182 363.82 71.6944 364.222C71.9706 364.62 72.128 365.086 72.1665 365.619H70.4996C70.4322 365.263 70.2716 364.965 70.0178 364.728C69.7673 364.487 69.4317 364.366 69.0109 364.366C68.6544 364.366 68.3413 364.463 68.0715 364.656C67.8017 364.845 67.5913 365.118 67.4404 365.475C67.2926 365.831 67.2187 366.258 67.2187 366.756C67.2187 367.26 67.2926 367.694 67.4404 368.057C67.5881 368.417 67.7953 368.694 68.0618 368.89C68.3316 369.083 68.648 369.179 69.0109 369.179C69.2679 369.179 69.4975 369.131 69.6999 369.035C69.9054 368.935 70.0773 368.792 70.2154 368.606C70.3535 368.42 70.4482 368.193 70.4996 367.927H72.1665C72.1248 368.45 71.9706 368.914 71.704 369.319C71.4375 369.721 71.0745 370.035 70.6152 370.263C70.1559 370.488 69.6164 370.601 68.9965 370.601ZM73.0614 364.487V363.056H79.5364V364.487H77.142V370.456H75.4558V364.487H73.0614ZM86.0078 366.033V367.464H82.0669V366.033H86.0078ZM82.6065 363.056V370.456H80.9251V363.056H82.6065ZM87.1496 363.056V370.456H85.4731V363.056H87.1496ZM90.5955 368.095L93.5584 363.056H95.3506V370.456H93.6644V365.412L90.7111 370.456H88.9141V363.056H90.5955V368.095ZM103.39 363.056V369.155H104.522V372.836H102.817V370.456H97.1416V363.056H98.8229V369.025H101.723V363.056H103.39ZM108.081 370.605C107.612 370.605 107.19 370.522 106.814 370.355C106.442 370.185 106.146 369.934 105.928 369.603C105.713 369.273 105.605 368.865 105.605 368.38C105.605 367.962 105.682 367.617 105.836 367.344C105.99 367.071 106.201 366.852 106.467 366.689C106.734 366.525 107.034 366.401 107.368 366.318C107.706 366.231 108.054 366.168 108.414 366.13C108.847 366.085 109.199 366.045 109.469 366.009C109.739 365.971 109.935 365.913 110.057 365.836C110.182 365.756 110.245 365.632 110.245 365.465V365.436C110.245 365.073 110.137 364.792 109.922 364.593C109.707 364.394 109.397 364.294 108.992 364.294C108.565 364.294 108.226 364.387 107.975 364.574C107.728 364.76 107.561 364.98 107.474 365.234L105.846 365.002C105.974 364.553 106.186 364.177 106.482 363.875C106.777 363.57 107.139 363.342 107.566 363.191C107.993 363.037 108.465 362.96 108.982 362.96C109.339 362.96 109.694 363.001 110.047 363.085C110.4 363.168 110.723 363.307 111.015 363.499C111.308 363.689 111.542 363.947 111.719 364.275C111.899 364.603 111.989 365.012 111.989 365.503V370.456H110.312V369.44H110.254C110.148 369.645 109.999 369.838 109.806 370.018C109.617 370.194 109.377 370.337 109.088 370.446C108.802 370.552 108.467 370.605 108.081 370.605ZM108.534 369.324C108.884 369.324 109.188 369.255 109.445 369.117C109.702 368.975 109.899 368.789 110.037 368.558C110.179 368.327 110.249 368.074 110.249 367.801V366.929C110.195 366.974 110.102 367.016 109.97 367.055C109.841 367.093 109.697 367.127 109.536 367.156C109.376 367.185 109.217 367.211 109.059 367.233C108.902 367.255 108.766 367.275 108.65 367.291C108.39 367.326 108.157 367.384 107.951 367.464C107.746 367.545 107.584 367.657 107.465 367.801C107.346 367.943 107.286 368.126 107.286 368.351C107.286 368.672 107.404 368.914 107.638 369.078C107.873 369.242 108.171 369.324 108.534 369.324Z" fill="#E2E2E2"/>
    <rect opacity="0.5" x="100" y="381.456" width="12.5976" height="3.87619" fill="#C5C5C5"/>
    <rect opacity="0.5" x="100" y="384.363" width="12.5976" height="3.87619" fill="#C5C5C5"/>
    <rect opacity="0.5" x="100" y="387.271" width="12.5976" height="3.87619" fill="#C5C5C5"/>
    <rect opacity="0.5" x="100" y="390.178" width="12.5976" height="3.87619" fill="#C5C5C5"/>
    <rect opacity="0.5" x="100" y="393.085" width="12.5976" height="3.87619" fill="#C5C5C5"/>
    <rect opacity="0.5" x="100" y="395.992" width="12.5976" height="3.87619" fill="#C5C5C5"/>
    <rect opacity="0.5" x="100" y="398.899" width="12.5976" height="3.87619" fill="#C5C5C5"/>
    <defs>
        <filter id="filter0_d_1768_10484" x="26.5428" y="-0.00018692" width="263.407" height="651.349" filterUnits="userSpaceOnUse" color-interpolation-filters="sRGB">
            <feFlood flood-opacity="0" result="BackgroundImageFix"/>
            <feColorMatrix in="SourceAlpha" type="matrix" values="0 0 0 0 0 0 0 0 0 0 0 0 0 0 0 0 0 0 127 0" result="hardAlpha"/>
            <feMorphology radius="15.5048" operator="dilate" in="SourceAlpha" result="effect1_dropShadow_1768_10484"/>
            <feOffset/>
            <feGaussianBlur stdDeviation="24.2262"/>
            <feComposite in2="hardAlpha" operator="out"/>
            <feColorMatrix type="matrix" values="0 0 0 0 0.486275 0 0 0 0 0.737255 0 0 0 0 0.643137 0 0 0 0.4 0"/>
            <feBlend mode="normal" in2="BackgroundImageFix" result="effect1_dropShadow_1768_10484"/>
            <feBlend mode="normal" in="SourceGraphic" in2="effect1_dropShadow_1768_10484" result="shape"/>
        </filter>
        <filter id="filter1_d_1768_10484" x="83.5428" y="198.999" width="205.914" height="128.914" filterUnits="userSpaceOnUse" color-interpolation-filters="sRGB">
            <feFlood flood-opacity="0" result="BackgroundImageFix"/>
            <feColorMatrix in="SourceAlpha" type="matrix" values="0 0 0 0 0 0 0 0 0 0 0 0 0 0 0 0 0 0 127 0" result="hardAlpha"/>
            <feMorphology radius="15.5048" operator="dilate" in="SourceAlpha" result="effect1_dropShadow_1768_10484"/>
            <feOffset/>
            <feGaussianBlur stdDeviation="24.2262"/>
            <feComposite in2="hardAlpha" operator="out"/>
            <feColorMatrix type="matrix" values="0 0 0 0 0.486275 0 0 0 0 0.737255 0 0 0 0 0.643137 0 0 0 0.4 0"/>
            <feBlend mode="normal" in2="BackgroundImageFix" result="effect1_dropShadow_1768_10484"/>
            <feBlend mode="normal" in="SourceGraphic" in2="effect1_dropShadow_1768_10484" result="shape"/>
        </filter>
        <filter id="filter2_d_1768_10484" x="83.5428" y="231.999" width="205.914" height="128.914" filterUnits="userSpaceOnUse" color-interpolation-filters="sRGB">
            <feFlood flood-opacity="0" result="BackgroundImageFix"/>
            <feColorMatrix in="SourceAlpha" type="matrix" values="0 0 0 0 0 0 0 0 0 0 0 0 0 0 0 0 0 0 127 0" result="hardAlpha"/>
            <feMorphology radius="15.5048" operator="dilate" in="SourceAlpha" result="effect1_dropShadow_1768_10484"/>
            <feOffset/>
            <feGaussianBlur stdDeviation="24.2262"/>
            <feComposite in2="hardAlpha" operator="out"/>
            <feColorMatrix type="matrix" values="0 0 0 0 0.486275 0 0 0 0 0.737255 0 0 0 0 0.643137 0 0 0 0.4 0"/>
            <feBlend mode="normal" in2="BackgroundImageFix" result="effect1_dropShadow_1768_10484"/>
            <feBlend mode="normal" in="SourceGraphic" in2="effect1_dropShadow_1768_10484" result="shape"/>
        </filter>
        <pattern id="pattern0_1768_10484" patternUnits="userSpaceOnUse" patternTransform="matrix(8.24448 0 0 8.24401 145.782 436.618)" preserveAspectRatio="none" viewBox="-0.353516 -0.353516 8.50781 8.50732" width="1" height="1">
            <use xlink:href="#pattern0_1768_10484_inner" transform="translate(-8.50781 -8.50732)"/>
            <use xlink:href="#pattern0_1768_10484_inner" transform="translate(0 -8.50732)"/>
            <use xlink:href="#pattern0_1768_10484_inner" transform="translate(-8.50781 0)"/>
            <g id="pattern0_1768_10484_inner">
                <path d="M8.50781 0L0 8.50732" stroke="#2E2F2E"/>
            </g>
        </pattern><pattern id="pattern1_1768_10484" patternUnits="userSpaceOnUse" patternTransform="matrix(8.24448 0 0 8.24401 148.657 178.113)" preserveAspectRatio="none" viewBox="-0.353516 -0.353516 8.50781 8.50732" width="1" height="1">
        <use xlink:href="#pattern1_1768_10484_inner" transform="translate(-8.50781 -8.50732)"/>
        <use xlink:href="#pattern1_1768_10484_inner" transform="translate(0 -8.50732)"/>
        <use xlink:href="#pattern1_1768_10484_inner" transform="translate(-8.50781 0)"/>
        <g id="pattern1_1768_10484_inner">
            <path d="M8.50781 0L0 8.50732" stroke="#2E2F2E"/>
        </g>
    </pattern><pattern id="pattern2_1768_10484" patternUnits="userSpaceOnUse" patternTransform="matrix(8.24448 0 0 8.24401 148.657 296.113)" preserveAspectRatio="none" viewBox="-0.353516 -0.353516 8.50781 8.50732" width="1" height="1">
        <use xlink:href="#pattern2_1768_10484_inner" transform="translate(-8.50781 -8.50732)"/>
        <use xlink:href="#pattern2_1768_10484_inner" transform="translate(0 -8.50732)"/>
        <use xlink:href="#pattern2_1768_10484_inner" transform="translate(-8.50781 0)"/>
        <g id="pattern2_1768_10484_inner">
            <path d="M8.50781 0L0 8.50732" stroke="#2E2F2E"/>
        </g>
    </pattern></defs>
</svg>
