<svg width="184" height="184" viewBox="0 0 184 184" fill="none" xmlns="http://www.w3.org/2000/svg">
<path d="M92 0C41.1866 0 0 41.1866 0 92C0 142.813 41.1934 184 92 184C142.807 184 184 142.813 184 92C184 41.1866 142.807 0 92 0ZM26.0305 75.3167C24.8033 71.4101 24.6397 66.9308 25.5328 62.0492C27.1009 54.0246 31.1712 45.8432 37.2936 38.3845L37.3822 38.2754C51.5429 19.5672 76.1758 8.39279 103.277 8.39279C108.867 8.39279 114.363 8.8632 119.721 9.80406C99.745 11.6585 79.1552 20.4535 58.4562 35.9778C57.5767 36.6323 57.0108 37.6413 56.9085 38.7322C56.7994 39.823 57.1676 40.9207 57.9039 41.7388C64.6604 49.1839 71.4101 57.3313 79.162 67.3671C80.4506 69.0443 82.8095 69.392 84.5413 68.158C100.154 56.9699 113.694 48.6931 126.812 42.332C126.232 49.0612 117.233 59.4789 107.824 67.3535C92.7908 79.6597 74.6895 92.4568 54.386 94.0931L53.5951 94.1613C50.6088 94.2976 47.3977 93.9499 44.0569 93.1181C36.0255 91.0591 28.9417 84.0504 26.0305 75.3099V75.3167ZM91.9386 171.544C73.51 171.544 56.5472 165.258 43.0819 154.711C45.6591 154.942 48.3726 155.058 51.3179 155.058C53.7928 155.058 56.4313 154.976 59.2743 154.813C76.0667 153.586 93.4249 148.588 109.474 140.359C125.701 132.041 139.841 120.785 150.395 107.783C157.233 99.1246 165.428 85.823 167.753 69.6988C167.896 69.8965 168.039 70.1011 168.183 70.3056C170.18 77.2666 171.251 84.6163 171.251 92.2182C171.251 136.023 135.736 171.537 91.9318 171.537L91.9386 171.544Z" fill="#E2E2E2"/>
</svg>
