<svg width="337" height="147" viewBox="0 0 337 147" fill="none" xmlns="http://www.w3.org/2000/svg">
    <g opacity="0.2">
        <path d="M1.04349 69.1716H30.2733C30.8464 69.1716 31.3168 68.7071 31.3168 68.1279V21.2293C31.3168 20.6562 31.7813 20.1857 32.3603 20.1857H61.5238C62.0969 20.1857 62.5673 19.7212 62.5673 19.142V1.06185C62.5673 0.488744 62.1029 0.018189 61.5238 0.018189H1.04349C0.470477 0.018189 1.40833e-07 0.482711 1.40833e-07 1.06185V68.1279C1.40833e-07 68.7011 0.464445 69.1716 1.04349 69.1716Z" fill="url(#paint0_radial_2200_9727)"/>
        <path d="M176.604 69.1715H205.833C206.406 69.1715 206.877 68.707 206.877 68.1279V21.2293C206.877 20.6562 207.341 20.1856 207.92 20.1856H237.084C237.657 20.1856 238.127 19.7211 238.127 19.1419V1.06178C238.127 0.48867 237.663 0.0181159 237.084 0.0181159H176.604C176.031 0.0181159 175.56 0.482638 175.56 1.06178V68.1279C175.56 68.701 176.025 69.1715 176.604 69.1715Z" fill="url(#paint1_radial_2200_9727)"/>
        <path d="M69.3349 69.1715H99.1499C99.4454 69.1715 99.7229 69.0448 99.9219 68.8277L134.858 30.1879C135.497 29.4821 136.673 29.9345 136.673 30.8877V68.1279C136.673 68.701 137.138 69.1715 137.717 69.1715H166.947C167.52 69.1715 167.99 68.707 167.99 68.1279V1.06178C167.99 0.48867 167.526 0.0181159 166.947 0.0181159H137.138C136.842 0.0181159 136.559 0.144804 136.366 0.361983L101.43 39.0862C100.791 39.792 99.6143 39.3456 99.6143 38.3864V1.06178C99.6143 0.48867 99.1499 0.0181159 98.5708 0.0181159H69.341C68.768 0.0181159 68.2975 0.482638 68.2975 1.06178V68.1279C68.2975 68.701 68.7619 69.1715 69.341 69.1715H69.3349Z" fill="url(#paint2_radial_2200_9727)"/>
        <path d="M229.128 76.435C228.555 76.435 228.085 76.8995 228.085 77.4786V97.0489C228.085 97.622 228.549 98.0925 229.128 98.0925H259.787C260.36 98.0925 260.831 98.5571 260.831 99.1362V144.545C260.831 145.118 261.295 145.588 261.874 145.588H291.201C291.774 145.588 292.244 145.124 292.244 144.545V99.1362C292.244 98.5631 292.709 98.0925 293.288 98.0925H323.941C324.514 98.0925 324.985 97.628 324.985 97.0489V77.4786C324.985 76.9055 324.52 76.435 323.941 76.435H229.128Z" fill="url(#paint3_radial_2200_9727)"/>
        <path d="M294.85 59.5975H257.049C256.717 59.5975 256.422 59.7846 256.283 60.0681L252.218 68.701C252.085 68.9845 251.783 69.1715 251.451 69.1715H219.93C219.314 69.1715 218.91 68.5622 219.176 68.0313L253.442 0.452456C253.581 0.17495 253.876 0 254.196 0H298.795C299.108 0 299.398 0.168917 299.537 0.434358L335.992 68.0132C336.276 68.5441 335.872 69.1715 335.251 69.1715H300.526C300.2 69.1715 299.898 68.9905 299.766 68.707L295.61 60.0621C295.471 59.7785 295.176 59.5975 294.85 59.5975ZM285.537 39.4059L276.471 20.813C276.17 20.1977 275.247 20.1977 274.951 20.813L266.054 39.4059C265.801 39.9308 266.205 40.528 266.814 40.528H284.771C285.38 40.528 285.784 39.9247 285.531 39.3999L285.537 39.4059Z" fill="url(#paint4_radial_2200_9727)"/>
        <path d="M99.3791 77.3761V144.291C99.3791 145.003 98.8 145.576 98.0943 145.576H69.6305C68.9188 145.576 68.3457 144.997 68.3457 144.291V123.883C68.3457 123.11 67.6823 122.513 66.9162 122.604C60.7819 123.358 50.6124 123.78 42.6565 123.78C10.3867 123.78 0 114.936 0 91.5229V77.37C0 76.6582 0.579048 76.0851 1.28476 76.0851H30.0441C30.7559 76.0851 31.3289 76.6642 31.3289 77.37V89.158C31.3289 100.12 36.1121 102.484 48.827 102.484C52.7778 102.484 62.9292 102.183 67.1877 101.754C67.8451 101.688 68.3397 101.133 68.3397 100.469V77.364C68.3397 76.6521 68.9188 76.079 69.6245 76.079H98.0883C98.8 76.079 99.3731 76.6582 99.3731 77.364L99.3791 77.3761Z" fill="url(#paint5_radial_2200_9727)"/>
        <path d="M134.025 147C114.621 147 101.195 136.925 105.905 123.985C110.61 111.051 120.973 104.457 146.065 102.84L183.48 101.718C187.225 101.344 188.764 100.741 189.783 97.7366C190.857 94.135 184.047 92.0175 173.974 92.0175H168.364C158.792 92.0175 151.035 95.7156 148.93 97.7728C148.453 98.2434 147.808 98.4847 147.138 98.4847L118.421 98.364C117.716 98.364 117.251 97.628 117.553 96.9946C121.956 87.6679 138.23 74.3537 173.648 74.3537H180.91C218.844 74.3537 224.936 87.6619 220.997 98.4847L214.579 116.625C212.601 122.236 216.256 123.49 218.868 123.49H225.973C226.673 123.49 227.162 124.19 226.926 124.848L219.827 144.358C219.574 145.045 218.922 145.504 218.186 145.504H190.814C179.589 145.504 176.423 140.654 176.585 136.799C173.395 139.411 159.335 147 142.295 147H134.025ZM182.672 117.144L183.679 115.431C184.077 114.755 183.534 113.916 182.756 114.007C178.262 114.52 170.94 115.274 163.02 116.022C145.383 117.639 140.341 119.382 137.994 123.364C135.769 127.719 139.364 129.583 149.817 129.583C168.117 129.583 179.143 123.134 182.672 117.144Z" fill="url(#paint6_radial_2200_9727)"/>
    </g>
    <defs>
        <radialGradient id="paint0_radial_2200_9727" cx="0" cy="0" r="1" gradientUnits="userSpaceOnUse" gradientTransform="translate(168.042 147) rotate(-90) scale(147 230.376)">
            <stop offset="0.1" stop-color="#161716" stop-opacity="0"/>
            <stop offset="1" stop-color="#E2E2E2"/>
        </radialGradient>
        <radialGradient id="paint1_radial_2200_9727" cx="0" cy="0" r="1" gradientUnits="userSpaceOnUse" gradientTransform="translate(168.042 147) rotate(-90) scale(147 230.376)">
            <stop offset="0.1" stop-color="#161716" stop-opacity="0"/>
            <stop offset="1" stop-color="#E2E2E2"/>
        </radialGradient>
        <radialGradient id="paint2_radial_2200_9727" cx="0" cy="0" r="1" gradientUnits="userSpaceOnUse" gradientTransform="translate(168.042 147) rotate(-90) scale(147 230.376)">
            <stop offset="0.1" stop-color="#161716" stop-opacity="0"/>
            <stop offset="1" stop-color="#E2E2E2"/>
        </radialGradient>
        <radialGradient id="paint3_radial_2200_9727" cx="0" cy="0" r="1" gradientUnits="userSpaceOnUse" gradientTransform="translate(168.042 147) rotate(-90) scale(147 230.376)">
            <stop offset="0.1" stop-color="#161716" stop-opacity="0"/>
            <stop offset="1" stop-color="#E2E2E2"/>
        </radialGradient>
        <radialGradient id="paint4_radial_2200_9727" cx="0" cy="0" r="1" gradientUnits="userSpaceOnUse" gradientTransform="translate(168.042 147) rotate(-90) scale(147 230.376)">
            <stop offset="0.1" stop-color="#161716" stop-opacity="0"/>
            <stop offset="1" stop-color="#E2E2E2"/>
        </radialGradient>
        <radialGradient id="paint5_radial_2200_9727" cx="0" cy="0" r="1" gradientUnits="userSpaceOnUse" gradientTransform="translate(168.042 147) rotate(-90) scale(147 230.376)">
            <stop offset="0.1" stop-color="#161716" stop-opacity="0"/>
            <stop offset="1" stop-color="#E2E2E2"/>
        </radialGradient>
        <radialGradient id="paint6_radial_2200_9727" cx="0" cy="0" r="1" gradientUnits="userSpaceOnUse" gradientTransform="translate(168.042 147) rotate(-90) scale(147 230.376)">
            <stop offset="0.1" stop-color="#161716" stop-opacity="0"/>
            <stop offset="1" stop-color="#E2E2E2"/>
        </radialGradient>
    </defs>
</svg>
