<svg width="278" height="186" viewBox="0 0 278 186" fill="none" xmlns="http://www.w3.org/2000/svg">
<g clip-path="url(#clip0_845_10954)">
<path d="M270.278 -217.045C274.6 -217.045 278.105 -213.541 278.105 -209.219V109.242H276.976V-209.219C276.976 -212.917 273.977 -215.916 270.278 -215.916H17.0899C14.0085 -215.916 11.5098 -213.417 11.5098 -210.336V-194.304C11.5098 -193.636 10.9691 -193.095 10.3018 -193.095C5.24044 -193.094 1.13678 -188.991 1.13678 -183.93V-157.228C1.13678 -152.166 5.24044 -148.063 10.3018 -148.062C10.9691 -148.062 11.5098 -147.521 11.5098 -146.854V-118.06C11.5098 -117.392 10.9691 -116.851 10.3018 -116.851C5.24044 -116.85 1.13678 -112.747 1.13678 -107.686V-80.4648C1.13678 -75.4034 5.24044 -71.3 10.3018 -71.2998C10.9691 -71.2997 11.5098 -70.7582 11.5098 -70.0908V-41.8154C11.5098 -41.1481 10.9691 -40.6066 10.3018 -40.6064C5.24055 -40.6062 1.13697 -36.5037 1.13678 -31.4424V-4.2207C1.13678 0.840729 5.24044 4.94411 10.3018 4.94434C10.969 4.94447 11.5096 5.48518 11.5098 6.15234V34.4287C11.5098 35.096 10.9691 35.6366 10.3018 35.6367C5.24049 35.6369 1.13686 39.7404 1.13678 44.8018V72.0234C1.1368 77.0849 5.24045 81.1882 10.3018 81.1885C10.9691 81.1886 11.5097 81.7292 11.5098 82.3965V111.191C11.5097 111.859 10.9691 112.399 10.3018 112.399C5.24046 112.4 1.13681 116.503 1.13678 121.564V148.268C1.1369 153.329 5.24051 157.432 10.3018 157.433C10.9691 157.433 11.5098 157.973 11.5098 158.641V173.916C11.51 176.843 13.8835 179.216 16.8106 179.216H114.68V180.345H16.8106C13.2601 180.344 10.3811 177.467 10.3809 173.916V158.641C10.3809 158.597 10.3457 158.561 10.3018 158.561C4.61706 158.56 0.00799815 153.952 0.00787354 148.268V121.564C0.00790801 115.88 4.61701 111.271 10.3018 111.271C10.3456 111.27 10.3808 111.235 10.3809 111.191V82.3965C10.3808 82.3527 10.3456 82.3175 10.3018 82.3174C4.61699 82.3171 0.00789023 77.7083 0.00787354 72.0234V44.8018C0.0079534 39.1169 4.61703 34.508 10.3018 34.5078C10.3456 34.5077 10.3808 34.4726 10.3809 34.4287V6.15234C10.3807 6.10864 10.3455 6.07338 10.3018 6.07324C4.61698 6.07301 0.00787354 1.46419 0.00787354 -4.2207V-31.4424C0.00806112 -37.1271 4.6171 -41.7351 10.3018 -41.7354C10.3457 -41.7355 10.3809 -41.7715 10.3809 -41.8154V-70.0908C10.3809 -70.1347 10.3457 -70.1708 10.3018 -70.1709C4.61698 -70.1711 0.00787354 -74.78 0.00787354 -80.4648V-107.686C0.00787354 -113.37 4.61698 -117.979 10.3018 -117.979C10.3457 -117.98 10.3809 -118.016 10.3809 -118.06V-146.854C10.3809 -146.897 10.3457 -146.933 10.3018 -146.934C4.61698 -146.934 0.00787354 -151.543 0.00787354 -157.228V-183.93C0.00787354 -189.615 4.61698 -194.223 10.3018 -194.224C10.3457 -194.224 10.3809 -194.26 10.3809 -194.304V-210.336C10.3809 -214.041 13.385 -217.045 17.0899 -217.045H270.278ZM278.105 172.52C278.104 176.841 274.6 180.345 270.278 180.345H164.472V179.216H270.278C273.977 179.216 276.975 176.218 276.976 172.52V157.996H278.105V172.52Z" fill="#B2987E"/>
<path d="M119.676 -128.949H76.2688C75.0221 -128.949 74.0111 -127.938 74.011 -126.691V-76.2285H119.677V-75.0996H74.011V-21.8184H119.677V-20.6895H74.011V32.5938H119.677V33.7227H74.011V87.0039H119.677V88.1328H74.011V138.591C74.011 139.838 75.0221 140.848 76.2688 140.849H119.676V141.978H76.2688L76.094 141.974C74.305 141.883 72.8821 140.402 72.8821 138.591V-126.691C72.8821 -128.503 74.3051 -129.982 76.094 -130.073L76.2688 -130.078H119.676V-128.949ZM214.229 -130.078C216.099 -130.078 217.615 -128.562 217.615 -126.691V138.591C217.615 140.461 216.099 141.977 214.229 141.978H171.91V140.849H214.229C215.476 140.849 216.487 139.838 216.487 138.591V88.1328H171.912V87.0039H216.487V33.7227H171.912V32.5938H216.487V-20.6895H171.912V-21.8184H216.487V-75.0996H171.912V-76.2285H216.487V-126.691C216.487 -127.938 215.476 -128.949 214.229 -128.949H171.91V-130.078H214.229Z" fill="#B2987E"/>
<path d="M124.951 182.505L125.871 182.355V175.075L124.951 174.935V174.715H128.001C128.721 174.715 129.294 174.782 129.721 174.915C130.147 175.048 130.457 175.252 130.651 175.525C130.844 175.792 130.941 176.145 130.941 176.585C130.941 177.545 130.334 178.158 129.121 178.425V178.475C129.861 178.575 130.434 178.795 130.841 179.135C131.254 179.475 131.461 179.948 131.461 180.555C131.461 181.288 131.191 181.832 130.651 182.185C130.117 182.538 129.394 182.715 128.481 182.715H124.951V182.505ZM128.081 178.395C128.614 178.395 129.024 178.245 129.311 177.945C129.597 177.645 129.741 177.218 129.741 176.665V176.605C129.741 175.512 129.161 174.965 128.001 174.965H126.971V178.395H128.081ZM128.481 182.475C129.047 182.475 129.487 182.312 129.801 181.985C130.114 181.652 130.271 181.178 130.271 180.565V180.455C130.271 179.848 130.114 179.395 129.801 179.095C129.494 178.795 129.054 178.645 128.481 178.645H126.971V182.475H128.481ZM131.924 182.715V182.505L132.914 181.945L135.204 178.885L132.674 175.075L131.824 174.935V174.715H134.854V174.935L134.064 175.055L136.004 177.995L137.934 175.415L136.744 174.935V174.715H139.134V174.935L138.184 175.465L136.144 178.195L138.914 182.365L139.774 182.505V182.715H136.734V182.505L137.524 182.375L135.344 179.095L133.134 182.035L134.314 182.505V182.715H131.924ZM143.412 182.915C142.685 182.915 142.035 182.738 141.462 182.385C140.888 182.032 140.442 181.538 140.122 180.905C139.802 180.265 139.642 179.535 139.642 178.715C139.642 177.895 139.802 177.168 140.122 176.535C140.442 175.895 140.888 175.398 141.462 175.045C142.035 174.692 142.685 174.515 143.412 174.515C144.138 174.515 144.788 174.692 145.362 175.045C145.935 175.398 146.382 175.895 146.702 176.535C147.022 177.168 147.182 177.895 147.182 178.715C147.182 179.535 147.022 180.265 146.702 180.905C146.382 181.538 145.935 182.032 145.362 182.385C144.788 182.738 144.138 182.915 143.412 182.915ZM143.412 182.685C143.892 182.685 144.322 182.558 144.702 182.305C145.088 182.052 145.392 181.685 145.612 181.205C145.832 180.718 145.942 180.145 145.942 179.485V177.945C145.942 177.285 145.832 176.715 145.612 176.235C145.392 175.748 145.088 175.378 144.702 175.125C144.322 174.872 143.892 174.745 143.412 174.745C142.925 174.745 142.492 174.872 142.112 175.125C141.732 175.378 141.432 175.748 141.212 176.235C140.992 176.715 140.882 177.285 140.882 177.945V179.485C140.882 180.145 140.992 180.718 141.212 181.205C141.432 181.685 141.732 182.052 142.112 182.305C142.492 182.558 142.925 182.685 143.412 182.685ZM147.122 182.465H147.452C147.672 182.465 147.892 182.375 148.112 182.195C148.332 182.008 148.539 181.712 148.732 181.305C148.912 180.925 149.052 180.468 149.152 179.935C149.252 179.402 149.332 178.602 149.392 177.535L149.522 175.385L148.462 174.945V174.715H154.312V174.935L153.382 175.075V182.465H154.242L154.392 184.915H154.092L153.052 182.715H148.312L147.272 184.915H146.972L147.122 182.465ZM152.282 182.465V174.965H149.822L149.662 177.535C149.589 178.635 149.502 179.458 149.402 180.005C149.302 180.545 149.165 181.012 148.992 181.405C148.885 181.645 148.772 181.845 148.652 182.005C148.539 182.158 148.435 182.275 148.342 182.355C148.249 182.435 148.202 182.472 148.202 182.465H152.282Z" fill="#B2987E"/>
<rect x="203" y="47" width="28" height="28" rx="14" fill="#B2987E"/>
<path d="M217.359 53C217.359 53.4956 217.455 53.8566 217.689 54.0996C217.924 54.3418 218.358 54.5303 219.184 54.5303C219.846 54.5302 220.341 54.3523 220.881 54.1572C221.42 53.9623 222.004 53.7501 222.782 53.75C223.982 53.75 224.696 54.7059 224.596 55.6895C224.993 55.8393 225.284 56.0611 225.48 56.334C225.715 56.6606 225.797 57.0313 225.797 57.3691C225.797 57.8356 225.697 58.1764 225.608 58.4893C225.521 58.798 225.442 59.0861 225.442 59.4961C225.442 60.033 225.533 60.3159 225.67 60.4707C225.798 60.6155 226.029 60.7139 226.5 60.7139V61.3145C226.016 61.3145 225.79 61.4005 225.666 61.5352C225.535 61.6781 225.442 61.9544 225.442 62.5322C225.442 62.8995 225.519 63.1493 225.607 63.4521C225.698 63.7623 225.797 64.1124 225.797 64.6309C225.797 65.4293 225.275 66.0557 224.616 66.3311C224.687 66.8016 224.517 67.2511 224.23 67.5908C223.886 67.9993 223.351 68.2783 222.782 68.2783C222.004 68.2783 221.42 68.066 220.881 67.8711C220.341 67.676 219.846 67.4991 219.184 67.499C218.415 67.499 217.974 67.6829 217.723 67.9297C217.473 68.1753 217.359 68.5344 217.359 69H216.759C216.759 68.5243 216.658 68.1669 216.425 67.9248C216.192 67.6841 215.771 67.4991 214.994 67.499C214.295 67.499 213.77 67.677 213.203 67.8721C212.636 68.067 212.027 68.2783 211.218 68.2783C210.682 68.2783 210.163 68.0629 209.813 67.6709C209.509 67.3291 209.347 66.8676 209.404 66.3369C208.466 65.9677 208.203 65.166 208.203 64.6309C208.203 64.1706 208.303 63.8182 208.392 63.501C208.48 63.184 208.558 62.9021 208.558 62.5322C208.558 61.9788 208.467 61.6979 208.332 61.5479C208.205 61.4073 207.976 61.3145 207.5 61.3145V60.7139L207.663 60.709C208.02 60.6868 208.213 60.5901 208.328 60.458C208.469 60.2959 208.558 60.0087 208.558 59.4961C208.558 59.1203 208.479 58.8338 208.391 58.5127C208.302 58.1911 208.203 57.8343 208.203 57.3691C208.203 56.551 208.72 55.9129 209.395 55.6748C209.295 54.7225 210.071 53.75 211.218 53.75C212.025 53.7501 212.667 53.9601 213.252 54.1553C213.842 54.3524 214.364 54.5303 214.994 54.5303C215.763 54.5302 216.184 54.3447 216.419 54.1006C216.626 53.8855 216.731 53.579 216.754 53.1777L216.759 53H217.359ZM217.055 54.251C216.997 54.3442 216.931 54.4341 216.852 54.5166C216.459 54.9249 215.848 55.1298 214.994 55.1299C214.252 55.1299 213.639 54.9175 213.062 54.7246C212.478 54.5298 211.918 54.3497 211.218 54.3496C210.336 54.3496 209.827 55.1669 210.028 55.8027L210.133 56.1328L209.792 56.1895C209.25 56.2802 208.803 56.744 208.803 57.3691C208.803 57.745 208.881 58.0314 208.97 58.3525C209.058 58.6742 209.157 59.0309 209.157 59.4961C209.157 60.0473 209.068 60.5198 208.781 60.8506C208.731 60.9083 208.675 60.9583 208.617 61.0039C208.674 61.0464 208.728 61.0921 208.777 61.1465C209.07 61.4716 209.157 61.9509 209.157 62.5322C209.157 62.9925 209.057 63.3449 208.969 63.6621C208.88 63.9791 208.803 64.261 208.803 64.6309C208.803 65.0138 208.995 65.6204 209.821 65.8457L210.102 65.9219L210.034 66.2051C209.924 66.6665 210.041 67.0261 210.261 67.2725C210.487 67.5259 210.838 67.6787 211.218 67.6787C211.917 67.6786 212.441 67.4997 213.008 67.3047C213.575 67.1097 214.185 66.8984 214.994 66.8984C215.854 66.8985 216.466 67.1032 216.856 67.5078C216.941 67.5957 217.01 67.6922 217.07 67.792C217.136 67.6897 217.212 67.5914 217.303 67.502C217.708 67.1037 218.329 66.8984 219.184 66.8984C219.962 66.8985 220.546 67.1117 221.085 67.3066C221.625 67.5017 222.12 67.6786 222.782 67.6787C223.158 67.6787 223.531 67.4905 223.772 67.2041C224.011 66.9209 224.1 66.5716 223.977 66.2402L223.859 65.9258L224.185 65.8438C224.755 65.7008 225.197 65.2184 225.197 64.6309C225.197 64.1994 225.118 63.9152 225.032 63.6211C224.944 63.3198 224.843 62.9951 224.843 62.5322C224.843 61.933 224.928 61.4496 225.225 61.1279C225.268 61.0811 225.315 61.0413 225.364 61.0039C225.314 60.9636 225.265 60.9192 225.221 60.8691C224.93 60.5417 224.843 60.0653 224.843 59.4961C224.843 58.9987 224.942 58.6438 225.031 58.3262C225.12 58.0127 225.197 57.7437 225.197 57.3691C225.197 57.1254 225.138 56.8853 224.993 56.6836C224.85 56.4849 224.604 56.2964 224.181 56.1836L223.892 56.1064L223.968 55.8174C224.156 55.1036 223.681 54.3496 222.782 54.3496C222.12 54.3497 221.625 54.5266 221.085 54.7217C220.546 54.9166 219.962 55.1298 219.184 55.1299C218.283 55.1299 217.654 54.9269 217.258 54.5166C217.178 54.434 217.112 54.3442 217.055 54.251ZM222.841 57C222.841 56.7792 222.662 56.5997 222.441 56.5996H211.5C211.279 56.5996 211.1 56.7791 211.1 57V65C211.1 65.2209 211.279 65.4004 211.5 65.4004H222.441C222.662 65.4003 222.841 65.2208 222.841 65V57ZM223.441 65L223.436 65.1025C223.388 65.5732 223.014 65.9475 222.543 65.9951L222.441 66H211.5C210.982 66 210.556 65.6067 210.505 65.1025L210.5 65V57L210.505 56.8975C210.556 56.3933 210.982 56 211.5 56H222.441L222.543 56.0049C223.014 56.0525 223.388 56.4268 223.436 56.8975L223.441 57V65Z" fill="#FFFCF8"/>
</g>
<defs>
<clipPath id="clip0_845_10954">
<rect width="278" height="186" fill="white"/>
</clipPath>
</defs>
</svg>